<svg version="1.1" xmlns="http://www.w3.org/2000/svg" xmlns:xlink="http://www.w3.org/1999/xlink" width="83.09538" height="88.4133" viewBox="0,0,83.09538,88.4133"><g transform="translate(-198.40462,-137.35116)"><g data-paper-data="{&quot;isPaintingLayer&quot;:true}" fill-rule="nonzero" stroke-linecap="butt" stroke-linejoin="miter" stroke-miterlimit="10" stroke-dasharray="" stroke-dashoffset="0" style="mix-blend-mode: normal"><path d="M280.5,180c0,22.09139 -18.13247,40 -40.5,40c-22.36753,0 -40.5,-17.90861 -40.5,-40c0,-22.09139 18.13247,-40 40.5,-40c22.36753,0 40.5,17.90861 40.5,40z" fill="#ffe820" stroke="#000000" stroke-width="2"/><path d="M249.22543,190.56503c2.5,0 2.5,2.5 2.5,2.5l-0.01027,2.56738c-0.13304,1.44867 -0.34762,5.08902 -1.05397,6.21957c-2.46105,3.93903 -9.38225,5.64052 -13.16183,2.86508c-3.42627,-2.51599 -3.72025,-5.41134 -4.73209,-9.12141c0,0 -0.65779,-2.41191 1.75412,-3.0697c2.41191,-0.65779 3.0697,1.75412 3.0697,1.75412c0.6494,2.38112 0.68737,4.70138 2.75924,6.32945c1.43367,1.12657 5.16362,0.16089 6.0347,-1.34879c0.68236,-1.1826 0.22841,-2.72114 0.35065,-4.081l-0.01027,-2.1147c0,0 0,-2.5 2.5,-2.5z" fill="#000000" stroke="none" stroke-width="0.5"/><g fill="#000000"><path d="M265.61272,174.06792c0,5.6697 -3.87804,10.2659 -8.66185,10.2659c-4.78381,0 -8.66185,-4.5962 -8.66185,-10.2659c0,-5.6697 3.87804,-10.2659 8.66185,-10.2659c4.78381,0 8.66185,4.5962 8.66185,10.2659z" stroke="#000000" stroke-width="2"/><path d="M273.99728,170.54266c0.9848,2.29786 -1.31306,3.28266 -1.31306,3.28266l-2.17631,0.86412c-1.71676,0.31214 -3.43353,0.62428 -5.15029,0.93642c0,0 -2.45967,0.44721 -2.90689,-2.01246c-0.17702,-0.97362 0.10142,-1.63192 0.50249,-2.07198c-0.36563,0.21372 -2.16026,1.12605 -3.40039,-0.73415c-1.38675,-2.08013 0.69338,-3.46688 0.69338,-3.46688c2.34289,-1.56174 4.70925,-3.06269 7.12363,-4.51158l0.89502,-0.74486c0,0 1.95217,-1.56174 3.51391,0.39043c1.56174,1.95217 -0.39043,3.51391 -0.39043,3.51391l-1.44602,1.12798c-2.00451,1.20249 -3.97434,2.44206 -5.92519,3.72411c0.26023,-0.10009 0.44607,-0.13388 0.44607,-0.13388c1.71676,-0.31214 3.43353,-0.62428 5.15029,-0.93642l1.10114,-0.5405c0,0 2.29786,-0.9848 3.28266,1.31306z" stroke="none" stroke-width="0.5"/></g><g fill="#000000"><path d="M233.85838,175.08815c0,5.6697 -3.87804,10.2659 -8.66185,10.2659c-4.78381,0 -8.66185,-4.59619 -8.66185,-10.26589c0,-5.6697 3.87804,-10.26589 8.66185,-10.26589c4.78381,0 8.66185,4.59619 8.66185,10.2659z" stroke="#000000" stroke-width="2"/><path d="M224.35792,170.01786c-2.23607,1.11803 -3.3541,-1.11803 -3.3541,-1.11803l-0.07816,-0.19949c-1.50254,-2.25514 -2.88344,-4.56613 -4.27748,-6.88953c0,0 -1.28624,-2.14373 0.85749,-3.42997c2.14373,-1.28624 3.42997,0.85749 3.42997,0.85749c1.35323,2.25539 2.69053,4.50026 4.15027,6.68851l0.39005,0.73692c0,0 1.11803,2.23607 -1.11803,3.3541z" stroke="none" stroke-width="0.5"/><path d="M220.55967,174.23164c-1.76777,1.76777 -3.53553,0 -3.53553,0l-0.23529,-0.26259c-2.47104,-1.9222 -4.80425,-3.84497 -7.02193,-6.05821c0,0 -1.76777,-1.76777 0,-3.53553c1.76777,-1.76777 3.53553,0 3.53553,0c2.06688,2.07138 4.24808,3.85213 6.5561,5.64699l0.70112,0.67382c0,0 1.76777,1.76777 0,3.53553z" stroke="none" stroke-width="0.5"/></g><path d="M216.67389,211.66576c9.81621,5.68021 19.86852,6.8464 30.94869,6.91838c11.5327,-1.08331 20.26628,-7.58026 26.34864,-17.0407c0.01438,-1.41659 1.43097,-2.12488 1.43097,-2.12488l0.08869,0.07818c0.05236,-0.79858 0.10853,-1.59424 0.16992,-2.38603l-0.00184,-2.47917c0,-0.00002 0,-0.00004 0,-0.00004c0.00305,-6.0083 0.24099,-12.11966 0.47037,-18.12991c0.07434,-1.94786 0.05959,-3.72217 -0.13808,-5.37281c-0.73955,-0.11889 -1.20726,-0.55921 -1.49673,-1.00005c-0.31228,0.62544 -0.93728,1.25132 -2.18816,1.25132c-1.38408,0 -2.00189,-0.76627 -2.27766,-1.45035c-0.31802,0.61355 -0.94282,1.21625 -2.17032,1.21625c-1.13373,0 -1.75332,-0.51413 -2.09193,-1.07609c-0.34862,0.22499 -0.80973,0.37378 -1.41963,0.37378c-1.85263,0 -2.33236,-1.37289 -2.45659,-2.08391c-0.35933,0.26437 -0.85085,0.44518 -1.52318,0.44518c-1.68978,0 -2.23742,-1.14214 -2.4149,-1.88245c-0.42054,0.47018 -1.09163,0.83836 -2.15253,0.68681c-0.8751,-0.12501 -1.39656,-0.51525 -1.70507,-0.96752c-0.35368,0.66244 -1.07548,1.40638 -2.50881,1.20162c-0.49345,-0.07049 -0.87445,-0.22531 -1.16824,-0.42804c-0.12203,0.70867 -0.59839,2.09189 -2.45797,2.09189c-1.01152,0 -1.61377,-0.40927 -1.97234,-0.89661c-0.29224,0.66083 -0.91489,1.36482 -2.24153,1.36482c-1.02694,0 -1.63204,-0.42184 -1.98858,-0.91896c-0.15419,0.06231 -0.32447,0.11535 -0.51245,0.15712c-2.44047,0.54233 -2.98279,-1.89814 -2.98279,-1.89814l-0.03551,-0.19735c-0.25958,0.48399 -0.73853,0.92866 -1.59976,1.14397c-2.42536,0.60634 -3.0317,-1.81902 -3.0317,-1.81902l-0.03923,-0.17454l-2.05943,-0.19004l-0.07265,0.00011c0.0002,-0.00225 0.00041,-0.00451 0.00061,-0.00676l-0.01088,-0.001c0,0 0,-0.18738 0.0513,-0.45954c0.01252,-0.1478 0.02462,-0.29556 0.03629,-0.44328c-0.43001,0.62652 -1.35619,1.50837 -2.94168,0.89179c-1.20656,-0.46922 -1.54535,-1.32026 -1.59154,-2.03186c-0.2283,0.0606 -0.48689,0.09492 -0.7798,0.09492c-0.78962,0 -1.32984,-0.2494 -1.69943,-0.59065c-0.25109,0.07763 -0.54099,0.12244 -0.87571,0.12244c-1.23385,0 -1.85874,-0.60895 -2.17523,-1.22578c-0.34899,0.52798 -0.96197,0.99167 -2.03864,0.99167c-1.04599,0 -1.65434,-0.43764 -2.00816,-0.9467c-0.42284,0.59635 -1.18841,1.18173 -2.51393,0.88717c-0.65987,-0.14664 -1.10167,-0.43204 -1.39508,-0.77046c-0.55838,0.39525 -1.37774,0.63802 -2.45808,0.09785c-0.16765,-0.08383 -0.31645,-0.17394 -0.44828,-0.26892c-0.1658,0.52349 -0.3297,1.04912 -0.49222,1.57731c0,0 -0.73521,2.38945 -3.12466,1.65423c-0.22733,-0.06995 -0.42638,-0.15487 -0.60047,-0.25128c-0.13541,5.63981 0.60065,11.06439 0.79049,16.72832c0.23736,7.08164 0.13398,14.2009 0.05741,21.30527c3.08606,2.87707 5.709,6.05725 9.46804,8.23244zM260.84739,220.06498c0.24732,-0.009 0.49461,-0.017 0.74187,-0.0241c-0.00246,-0.11374 0.00204,-0.22957 0.01202,-0.34704c-0.24966,0.12645 -0.50096,0.25017 -0.75389,0.37114zM280.65712,197.30259c-0.48199,6.31227 -0.89338,12.64492 -1.65377,18.92242c-0.50103,4.13632 0.88546,7.11107 -4.20887,8.92208c-1.81151,0.64398 -3.84301,-0.15818 -5.76558,-0.1572c-3.6172,0.00184 -7.2036,-0.05302 -10.81115,0.22674c0,0 -0.03457,0.00266 -0.09589,0.00328c-0.06118,0.00408 -0.09586,0.00408 -0.09586,0.00408l-0.94418,-0.01027c-8.10666,0.73678 -16.11377,0.80913 -24.18974,-0.24426c-3.37444,-0.44014 -8.1726,-0.51196 -11.27492,-2.0858c-1.17229,0.67243 -2.69956,0.90721 -4.00135,0.78799c-0.34807,-0.03188 -0.37855,-0.4357 -0.35526,-0.90566c-0.43459,0.3652 -0.9953,0.58516 -1.60738,0.58516c-1.31307,0 -2.3897,-1.0123 -2.49204,-2.29905l-0.12751,-1.40263c-0.03815,0.15063 -0.07774,0.3022 -0.11883,0.45485l-0.15842,1.93201c0,0 -0.24876,2.48759 -2.73635,2.23883c-1.41517,-0.14152 -1.94476,-1.00761 -2.13836,-1.72806c-0.3409,0.20362 -0.78362,0.33584 -1.35855,0.33584c-1.82823,0 -2.31949,-1.33697 -2.4515,-2.05548c-0.20969,-0.08314 -0.38913,-0.19054 -0.54267,-0.31347c-0.48239,1.66664 -2.39023,1.66664 -2.39023,1.66664l-2.7341,-2.5c0,-18.7483 0.09531,-37.72472 1.64736,-56.39258c0,0 0.14694,-1.76332 1.67705,-2.1994c1.03441,-2.21036 2.1279,-4.36297 3.30166,-6.51555c0,0 0.44812,-0.82156 1.29867,-1.1852l0.53293,-1.25827c2.74893,-2.73947 5.7827,-5.2528 9.05126,-7.37844c0.25578,-0.70644 0.86478,-1.54743 2.31478,-1.54743c0.07499,0 0.14773,0.00225 0.21829,0.00661c3.55385,-2.01446 7.35255,-3.55627 11.33813,-4.43841c0.40281,-0.84044 1.26149,-1.42081 2.25571,-1.42081c0.70663,0 1.34479,0.29317 1.79947,0.76451c0.19427,-0.0199 0.38892,-0.03819 0.58393,-0.05484c0,0 1.23659,-0.09512 2.0348,0.71961c8.61378,0.20868 17.54506,1.8011 24.68606,7.0154c1.60882,1.17474 2.85859,2.79171 4.45419,3.98435c0.12958,0.09686 0.25884,0.19298 0.38776,0.28849c0.71965,0.16758 1.15103,0.58987 1.40962,1.03592c1.98958,1.45908 3.87586,2.86805 5.58215,4.67033c0.14112,0.06244 0.26858,0.13235 0.37954,0.2012c0.09783,0.0377 0.198,0.08191 0.30053,0.13317c0.74247,0.37123 1.11514,0.86573 1.28173,1.36071l0.04182,0.04282c0.79924,1.04502 1.41179,2.05605 1.89862,3.07445c7.08791,9.52524 3.77207,22.47198 3.77829,34.0442c0,0.00001 0,0.00002 0,0.00002c0,0 0,0.00001 0,0.00003zM230.05522,152.11479c-0.08733,0.46298 -0.16104,0.93145 -0.22458,1.40276c0.08307,-0.46636 0.15798,-0.93378 0.22458,-1.40276zM238.16556,155.44691c-0.06758,1.39899 -0.10368,2.79336 -0.10066,4.16902c0.059,-1.39034 0.09092,-2.77979 0.10066,-4.16902z" fill="#a57442" stroke="none" stroke-width="0.5"/></g></g></svg>