<svg version="1.1" xmlns="http://www.w3.org/2000/svg" xmlns:xlink="http://www.w3.org/1999/xlink" width="83" height="82" viewBox="0,0,83,82"><g transform="translate(-198.5,-139)"><g data-paper-data="{&quot;isPaintingLayer&quot;:true}" fill-rule="nonzero" stroke-linecap="butt" stroke-linejoin="miter" stroke-miterlimit="10" stroke-dasharray="" stroke-dashoffset="0" style="mix-blend-mode: normal"><path d="M280.5,180c0,22.09139 -18.13247,40 -40.5,40c-22.36753,0 -40.5,-17.90861 -40.5,-40c0,-22.09139 18.13247,-40 40.5,-40c22.36753,0 40.5,17.90861 40.5,40z" fill="#ffe820" stroke="#000000" stroke-width="2"/><path d="M274.25454,170.52245c0.03267,-0.47023 0.30045,-2.39745 2.49546,-2.39745c2.5,0 2.5,2.5 2.5,2.5l-0.10543,0.96837c-0.56078,1.83557 -1.19247,4.733 -2.8273,5.97936c-3.42551,2.61154 -8.36872,1.18277 -10.66971,-2.09505c-2.06204,-2.93744 -0.97858,-6.47654 -4.77415,-8.37091c-1.64506,-0.82105 -6.38373,-1.43458 -8.04048,-0.36675c-2.84232,1.83197 -3.33037,6.92618 -3.5932,9.86132c0,0 -0.22634,2.48973 -2.71607,2.26339c-2.48973,-0.22634 -2.26339,-2.71607 -2.26339,-2.71607c0.41729,-4.52847 1.5653,-10.96094 5.9068,-13.63868c4.29279,-2.64769 12.06484,-1.22447 15.5257,2.02531c2.73578,2.56892 2.59613,2.83491 3.69064,6.33515c0.45068,1.44126 0.05697,2.07616 1.47223,2.76233c2.52994,1.22661 2.91885,-1.28088 3.3989,-3.11032z" fill="#000000" stroke="none" stroke-width="0.5"/><path d="M211.14927,174.13278c1.41526,-0.68617 1.02155,-1.32108 1.47223,-2.76234c1.09451,-3.50024 0.95486,-3.76623 3.69064,-6.33515c3.46086,-3.24979 11.23291,-4.673 15.5257,-2.02531c4.34151,2.67774 5.48951,9.11021 5.9068,13.63868c0,0 0.22634,2.48973 -2.2634,2.71607c-2.48973,0.22634 -2.71607,-2.2634 -2.71607,-2.2634c-0.26282,-2.93514 -0.75088,-8.02935 -3.5932,-9.86132c-1.65675,-1.06784 -6.39541,-0.4543 -8.04047,0.36676c-3.79557,1.89437 -2.71211,5.43347 -4.77416,8.37091c-2.30099,3.27782 -7.24419,4.7066 -10.66971,2.09506c-1.63483,-1.24636 -2.26652,-4.1438 -2.82729,-5.97937l-0.10544,-0.96837c0,0 0,-2.5 2.5,-2.5c2.19501,0 2.46279,1.92723 2.49546,2.39746c0.48005,1.82944 0.86896,4.33693 3.3989,3.11032z" data-paper-data="{&quot;index&quot;:null}" fill="#000000" stroke="none" stroke-width="0.5"/><path d="M252.80058,197.20665c-0.07899,6.26859 -5.70741,14.91201 -13.10188,12.12208c-5.47981,-2.06754 -6.11453,-7.81561 -7.37113,-12.63879c-2.6043,0.07095 -5.20211,0.19367 -7.7862,0.43129c0,0 -2.48973,0.22634 -2.71607,-2.26339c-0.22634,-2.48973 2.26339,-2.71607 2.26339,-2.71607c11.32499,-1.01868 22.97064,0.20905 34.19242,-1.84277l-0.20261,-0.0105c0,0 2.23607,-1.11803 3.3541,1.11803c1.11803,2.23607 -1.11803,3.3541 -1.11803,3.3541l-1.13903,0.45771c-2.1771,0.39379 -4.3675,0.66799 -6.56677,0.8613zM238.84917,202.21313c3.64925,6.12685 9.03312,-0.3917 8.95141,-5.00648l-0.18556,-0.68023c0,0 -0.00944,-0.0472 -0.01915,-0.12982c-3.39694,0.14285 -6.80689,0.16389 -10.21375,0.2036c0.33246,1.92293 0.59803,4.15389 1.46705,5.61293z" fill="#000000" stroke="none" stroke-width="0.5"/><path d="M237.34228,196.56998c3.40686,-0.03972 6.89512,-0.06248 10.29206,-0.20533c0.00971,0.08262 0.0197,0.1305 0.0197,0.1305l0.18861,0.68448c0.08171,4.61478 -5.38993,11.18063 -9.03918,5.05378c-0.86903,-1.45904 -1.12872,-3.7405 -1.46119,-5.66343z" data-paper-data="{&quot;noHover&quot;:false,&quot;origItem&quot;:[&quot;Path&quot;,{&quot;applyMatrix&quot;:true,&quot;segments&quot;:[[[238.84917,202.21313],[-0.86903,-1.45904],[3.64925,6.12685]],[[247.80058,197.20665],[0.08171,4.61478],[0,0]],[247.61502,196.52642],[[247.59587,196.3966],[0.00971,0.08262],[-3.39694,0.14285]],[[237.38212,196.6002],[3.40686,-0.03972],[0.33246,1.92293]]],&quot;closed&quot;:true}]}" fill="#ff8af6" stroke="none" stroke-width="0.5"/></g></g></svg>