<svg version="1.1" xmlns="http://www.w3.org/2000/svg" xmlns:xlink="http://www.w3.org/1999/xlink" width="90.75" height="86.75" viewBox="0,0,90.75,86.75"><g transform="translate(-198.5,-139)"><g data-paper-data="{&quot;isPaintingLayer&quot;:true}" fill-rule="nonzero" stroke-linecap="butt" stroke-linejoin="miter" stroke-miterlimit="10" stroke-dasharray="" stroke-dashoffset="0" style="mix-blend-mode: normal"><path d="M280.5,180c0,22.09139 -18.13247,40 -40.5,40c-22.36753,0 -40.5,-17.90861 -40.5,-40c0,-22.09139 18.13247,-40 40.5,-40c22.36753,0 40.5,17.90861 40.5,40z" fill="#ffe820" stroke="#000000" stroke-width="2"/><g fill="#000000"><path d="M265.61272,174.06792c0,5.6697 -3.87804,10.2659 -8.66185,10.2659c-4.78381,0 -8.66185,-4.5962 -8.66185,-10.2659c0,-5.6697 3.87804,-10.2659 8.66185,-10.2659c4.78381,0 8.66185,4.5962 8.66185,10.2659z" stroke="#000000" stroke-width="2"/><path d="M273.99728,170.54266c0.9848,2.29786 -1.31306,3.28266 -1.31306,3.28266l-2.17631,0.86412c-1.71676,0.31214 -3.43353,0.62428 -5.15029,0.93642c0,0 -2.45967,0.44721 -2.90689,-2.01246c-0.17702,-0.97362 0.10142,-1.63192 0.50249,-2.07198c-0.36563,0.21372 -2.16026,1.12605 -3.40039,-0.73415c-1.38675,-2.08013 0.69338,-3.46688 0.69338,-3.46688c2.34289,-1.56174 4.70925,-3.06269 7.12363,-4.51158l0.89502,-0.74486c0,0 1.95217,-1.56174 3.51391,0.39043c1.56174,1.95217 -0.39043,3.51391 -0.39043,3.51391l-1.44602,1.12798c-2.00451,1.20249 -3.97434,2.44206 -5.92519,3.72411c0.26023,-0.10009 0.44607,-0.13388 0.44607,-0.13388c1.71676,-0.31214 3.43353,-0.62428 5.15029,-0.93642l1.10114,-0.5405c0,0 2.29786,-0.9848 3.28266,1.31306z" stroke="none" stroke-width="0.5"/></g><g fill="#000000"><path d="M233.85838,175.08815c0,5.6697 -3.87804,10.2659 -8.66185,10.2659c-4.78381,0 -8.66185,-4.59619 -8.66185,-10.26589c0,-5.6697 3.87804,-10.26589 8.66185,-10.26589c4.78381,0 8.66185,4.59619 8.66185,10.2659z" stroke="#000000" stroke-width="2"/><path d="M224.35792,170.01786c-2.23607,1.11803 -3.3541,-1.11803 -3.3541,-1.11803l-0.07816,-0.19949c-1.50254,-2.25514 -2.88344,-4.56613 -4.27748,-6.88953c0,0 -1.28624,-2.14373 0.85749,-3.42997c2.14373,-1.28624 3.42997,0.85749 3.42997,0.85749c1.35323,2.25539 2.69053,4.50026 4.15027,6.68851l0.39005,0.73692c0,0 1.11803,2.23607 -1.11803,3.3541z" stroke="none" stroke-width="0.5"/><path d="M220.55967,174.23164c-1.76777,1.76777 -3.53553,0 -3.53553,0l-0.23529,-0.26259c-2.47104,-1.9222 -4.80425,-3.84497 -7.02193,-6.05821c0,0 -1.76777,-1.76777 0,-3.53553c1.76777,-1.76777 3.53553,0 3.53553,0c2.06688,2.07138 4.24808,3.85213 6.5561,5.64699l0.70112,0.67382c0,0 1.76777,1.76777 0,3.53553z" stroke="none" stroke-width="0.5"/></g><path d="M246.21656,200.87948c0.57252,4.28403 -3.68341,2.85681 -6.2627,3.50375c-1.74184,0.43689 -3.28507,2.04586 -5.17107,0.33399c-0.81127,-0.73636 -1.13223,-3.92514 -1.34184,-4.97207c0,0 -0.24515,-1.22573 0.98058,-1.47087c0.14053,-0.02811 0.26817,-0.03688 0.38403,-0.03038c0.28389,-0.23654 0.61597,-0.30295 0.61597,-0.30295c2.30801,-0.4616 4.66391,-0.7477 6.94198,-1.32029l0.96984,-0.03732c0,0 1.11653,0 1.23911,1.05523c0.09106,0.09572 0.16711,0.20586 0.22437,0.32664l0.65456,1.30911c0.25506,0.53505 0.68668,1.01764 0.76519,1.60516zM243.01474,200.3974c0.04652,-0.0518 0.0869,-0.10606 0.12182,-0.16252l-0.08253,-0.16505l-0.01782,0.00445c-0.06341,0.09555 -0.12578,0.18702 -0.1873,0.27464l0.10274,0.10274c0.02377,-0.01593 0.04485,-0.03396 0.06308,-0.05426z" fill="#000000" stroke="none" stroke-width="0.5"/><path d="M253.33334,225.5v-47.66666h35.66666v47.66666z" fill="#ffffff" stroke="#000000" stroke-width="0.5"/><path d="M264.83727,150.59299c1.24035,2.17061 -0.93026,3.41096 -0.93026,3.41096l-2.33333,1.33333c-4.88093,2.77112 -9.8445,4.23795 -14.45392,7.53039c0,0 -2.03433,1.4531 -3.48743,-0.58124c-1.4531,-2.03433 0.58124,-3.48743 0.58124,-3.48743c0.32374,-0.23124 4.7546,-3.40399 4.94428,-3.50541c3.19154,-1.70647 6.77333,-2.47721 9.93514,-4.29753l2.33333,-1.33333c0,0 2.17061,-1.24035 3.41096,0.93026z" fill="#000000" stroke="none" stroke-width="0.5"/><path d="M234.82597,155.05923c0.74415,-0.16794 1.99458,-0.17497 2.74343,1.32274c1.11803,2.23607 -1.11803,3.3541 -1.11803,3.3541l-3.02505,0.26787c-3.84635,-2.19791 -7.68109,-3.7992 -11.74445,-5.53941c0,0 -2.29786,-0.9848 -1.31306,-3.28266c0.9848,-2.29786 3.28266,-1.31306 3.28266,-1.31306c3.85103,1.65166 7.52339,3.19874 11.17451,5.19043z" fill="#000000" stroke="none" stroke-width="0.5"/></g></g></svg>