<svg version="1.1" xmlns="http://www.w3.org/2000/svg" xmlns:xlink="http://www.w3.org/1999/xlink" width="204.71167" height="202.54761" viewBox="0,0,204.71167,202.54761"><g transform="translate(-142.34646,-18.45239)"><g data-paper-data="{&quot;isPaintingLayer&quot;:true}" fill-rule="nonzero" stroke-linecap="butt" stroke-linejoin="miter" stroke-miterlimit="10" stroke-dasharray="" stroke-dashoffset="0" style="mix-blend-mode: normal"><path d="M249.47255,140c22.36753,0 40.5,17.90861 40.5,40c0,22.09139 -18.13247,40 -40.5,40c-22.36753,0 -40.5,-17.90861 -40.5,-40c0,-22.09139 18.13247,-40 40.5,-40z" data-paper-data="{&quot;index&quot;:null}" fill="#ffe820" stroke="#000000" stroke-width="2"/><path d="M270.85564,169.56598c-1.41526,0.68617 -1.02155,1.32107 -1.47223,2.76233c-1.09451,3.50024 -0.95486,3.76623 -3.69064,6.33515c-3.46086,3.24978 -11.23291,4.673 -15.5257,2.02531c-4.3415,-2.67774 -5.48951,-9.11021 -5.9068,-13.63868c0,0 -0.22634,-2.48973 2.26339,-2.71607c2.48973,-0.22634 2.71607,2.26339 2.71607,2.26339c0.26283,2.93514 0.75088,8.02935 3.5932,9.86132c1.65675,1.06783 6.39542,0.4543 8.04048,-0.36675c3.79557,-1.89437 2.71211,-5.43347 4.77415,-8.37091c2.30099,-3.27782 7.2442,-4.70659 10.66971,-2.09505c1.63483,1.24636 2.26652,4.14379 2.8273,5.97936l0.10543,0.96837c0,0 0,2.5 -2.5,2.5c-2.19501,0 -2.46279,-1.92722 -2.49546,-2.39745c-0.48005,-1.82944 -0.86896,-4.33693 -3.3989,-3.11032z" data-paper-data="{&quot;index&quot;:null}" fill="#000000" stroke="none" stroke-width="0.5"/><path d="M210.36285,170.06597c-2.52994,-1.22661 -2.91885,1.28088 -3.3989,3.11032c-0.03267,0.47023 -0.30045,2.39746 -2.49546,2.39746c-2.5,0 -2.5,-2.5 -2.5,-2.5l0.10544,-0.96837c0.56077,-1.83557 1.19246,-4.73301 2.82729,-5.97937c3.42552,-2.61154 8.36872,-1.18276 10.66971,2.09506c2.06205,2.93744 0.97859,6.47654 4.77416,8.37091c1.64506,0.82106 6.38372,1.4346 8.04047,0.36676c2.84232,-1.83197 3.33038,-6.92618 3.5932,-9.86132c0,0 0.22634,-2.48974 2.71607,-2.2634c2.48974,0.22634 2.2634,2.71607 2.2634,2.71607c-0.41729,4.52847 -1.56529,10.96094 -5.9068,13.63868c-4.29279,2.64769 -12.06484,1.22448 -15.5257,-2.02531c-2.73578,-2.56892 -2.59613,-2.83491 -3.69064,-6.33515c-0.45068,-1.44126 -0.05697,-2.07617 -1.47223,-2.76234z" data-paper-data="{&quot;index&quot;:null}" fill="#000000" stroke="none" stroke-width="0.5"/><path d="M244.07282,196.90777c0,2.5 -2.5,2.5 -2.5,2.5l-2.84017,-0.01873c-2.14908,0.53727 -4.38153,0.79312 -6.59672,0.80514c0,0 -2.5,0 -2.5,-2.5c0,-2.5 2.5,-2.5 2.5,-2.5c2.01157,0.01327 4.03426,-0.27979 5.9858,-0.76768l3.45109,-0.01873c0,0 2.5,0 2.5,2.5z" fill="#000000" stroke="none" stroke-width="0.5"/><path d="M162.93204,78.30097c-2.5,0 -2.5,-2.5 -2.5,-2.5l0.32556,-2.29478c-0.47353,-0.13183 -2.27671,-0.77954 -1.84983,-2.91396c0.3334,-1.66701 1.57367,-1.97372 2.33328,-1.99932c0.01457,-0.53299 0.06899,-1.07518 -0.25911,-1.45092c-0.57818,-0.66214 -1.67389,-0.56273 -2.45034,-0.97486c-1.68311,-0.89338 -3.51488,-1.47325 -5.26142,-2.23522c-2.60233,-1.13533 -6.81722,-4.1356 -8.24179,-6.55939c-1.46768,-2.49713 -1.63844,-5.55774 -2.55543,-8.30526c0,0 -0.79057,-2.37171 1.58114,-3.16228c2.37171,-0.79057 3.16228,1.58114 3.16228,1.58114c0.8141,2.44525 0.92852,5.16059 2.16302,7.4229c2.07242,3.79787 8.35149,4.94659 11.66184,6.93355c1.26093,0.75684 2.91304,1.02981 3.84092,2.17077c0.90291,1.11026 0.91214,2.71589 1.26166,4.10361c0.13756,0.54616 0.32906,1.09568 0.49682,1.64758c5.40928,3.26858 3.92979,10.95571 2.64881,16.07966c-0.37323,1.49291 -1.44732,3.03059 -1.00758,4.50527c0.49398,1.6566 3.45958,0.09202 5.17894,0.2712c2.03557,0.21213 6.48994,1.65011 7.82551,3.14771c2.51383,2.81881 4.15221,9.23959 3.79376,12.94883c-0.22282,2.30573 -1.04074,4.58228 -0.88151,6.89327c0.02177,0.31599 0.0478,0.82452 0.35973,0.8795c1.00792,0.17767 2.03857,-0.18473 3.05785,-0.27708c4.78964,1.22042 9.99551,3.66952 12.20011,8.53851c1.37002,3.02578 1.38863,8.24546 0.98541,11.54918c-0.40176,3.29172 -0.9563,6.21682 -0.78641,9.61239c0.03171,0.63386 -0.18077,1.4256 0.25525,1.88677c1.4847,1.57034 4.40169,1.47026 5.59828,3.26983c1.52366,2.29146 1.22911,5.1955 1.24287,7.73138v0.78641c0,0 0,2.5 -2.5,2.5c-2.5,0 -2.5,-2.5 -2.5,-2.5v-0.78641c0.00338,-0.51256 0.19473,-4.06882 -0.32995,-4.85114c-1.15071,-1.71579 -4.13623,-1.39603 -5.41142,-3.02143c-0.9459,-1.20568 -1.06059,-2.89374 -1.31758,-4.40449c-1.37034,-8.05568 4.66286,-17.8639 -3.62392,-23.39038c-1.34155,-0.89468 -2.85644,-1.57818 -4.42356,-1.95808c-1.60208,-0.09236 -3.39548,0.48775 -4.80623,-0.27708c-3.39353,-1.83978 -3.11959,-5.69265 -2.881,-8.74179c0.12487,-1.59586 1.26462,-4.48939 0.81935,-6.35856c-0.29063,-1.22001 -0.99274,-2.30431 -1.43911,-3.47633c-0.39749,-1.04369 -0.39447,-2.29499 -1.09133,-3.16774c-0.49092,-0.61483 -1.42619,-0.67419 -2.17329,-0.92088c-3.8796,-1.28101 -9.05042,0.99792 -11.56012,-3.52429c-1.88692,-3.40002 0.96978,-7.59826 1.29573,-10.92199c0.14357,-1.46398 -0.05695,-2.94248 -0.01873,-4.41299c0.00414,-0.15954 0.01673,-0.31363 0.03392,-0.46247c-0.28757,0.6679 -0.90909,1.38966 -2.25236,1.38966zM165.01217,75.6149l0.34137,0.15128c0.02304,-0.22795 0.02344,-0.43925 -0.02474,-0.63532c-0.11269,0.15881 -0.21974,0.31962 -0.31663,0.48404z" fill="#ff8037" stroke="none" stroke-width="0.5"/><path d="M167.93204,83.30097c-2.5,0 -2.5,-2.5 -2.5,-2.5l0.32556,-2.29478c-0.47353,-0.13183 -2.27671,-0.77954 -1.84983,-2.91396c0.3334,-1.66701 1.57367,-1.97372 2.33328,-1.99932c0.01457,-0.53299 0.06899,-1.07518 -0.25911,-1.45092c-0.57818,-0.66214 -1.67389,-0.56273 -2.45034,-0.97486c-1.68311,-0.89338 -3.51488,-1.47325 -5.26142,-2.23521c-2.60233,-1.13533 -6.81722,-4.1356 -8.24179,-6.55939c-1.46768,-2.49713 -1.63844,-5.55774 -2.55543,-8.30526c0,0 -0.79057,-2.37171 1.58114,-3.16228c2.37171,-0.79057 3.16228,1.58114 3.16228,1.58114c0.8141,2.44525 0.92852,5.16059 2.16302,7.4229c2.07242,3.79787 8.35149,4.9466 11.66184,6.93355c1.26093,0.75684 2.91304,1.02981 3.84092,2.17077c0.90291,1.11026 0.91214,2.71589 1.26166,4.10361c0.13756,0.54616 0.32906,1.09568 0.49682,1.64758c5.40928,3.26858 3.92979,10.95571 2.64881,16.07966c-0.37323,1.49291 -1.44732,3.03059 -1.00758,4.50527c0.49398,1.6566 3.45958,0.09202 5.17894,0.2712c2.03557,0.21213 6.48994,1.65011 7.82551,3.14771c2.51383,2.81881 4.15221,9.23959 3.79376,12.94883c-0.22282,2.30573 -1.04074,4.58228 -0.88151,6.89327c0.02177,0.31599 0.0478,0.82452 0.35973,0.8795c1.00792,0.17767 2.03857,-0.18473 3.05785,-0.27708c4.78964,1.22042 9.99551,3.66952 12.20011,8.53851c1.37002,3.02578 1.38863,8.24546 0.98541,11.54918c-0.40176,3.29172 -0.9563,6.21682 -0.78641,9.61239c0.03171,0.63386 -0.18077,1.4256 0.25525,1.88677c1.4847,1.57034 4.40169,1.47026 5.59828,3.26983c1.52366,2.29146 1.22911,5.1955 1.24287,7.73138v0.78641c0,0 0,2.5 -2.5,2.5c-2.5,0 -2.5,-2.5 -2.5,-2.5v-0.78641c0.00338,-0.51256 0.19473,-4.06882 -0.32995,-4.85114c-1.15071,-1.71579 -4.13623,-1.39603 -5.41142,-3.02143c-0.9459,-1.20568 -1.06059,-2.89374 -1.31758,-4.40449c-1.37034,-8.05568 4.66286,-17.8639 -3.62392,-23.39038c-1.34155,-0.89468 -2.85644,-1.57818 -4.42356,-1.95808c-1.60208,-0.09236 -3.39548,0.48775 -4.80623,-0.27708c-3.39353,-1.83978 -3.11959,-5.69265 -2.881,-8.74179c0.12487,-1.59586 1.26462,-4.48939 0.81935,-6.35856c-0.29063,-1.22001 -0.99274,-2.30431 -1.43911,-3.47633c-0.39749,-1.04369 -0.39447,-2.29499 -1.09133,-3.16774c-0.49092,-0.61483 -1.42619,-0.67419 -2.17329,-0.92088c-3.8796,-1.28101 -9.05042,0.99792 -11.56012,-3.52429c-1.88692,-3.40002 0.96978,-7.59826 1.29573,-10.92199c0.14357,-1.46398 -0.05695,-2.94248 -0.01873,-4.41299c0.00414,-0.15954 0.01673,-0.31363 0.03392,-0.46247c-0.28757,0.6679 -0.90909,1.38966 -2.25236,1.38966zM170.01217,80.6149l0.34137,0.15128c0.02304,-0.22795 0.02344,-0.43925 -0.02474,-0.63532c-0.11269,0.15881 -0.21974,0.31962 -0.31663,0.48404z" fill="#ff8037" stroke="none" stroke-width="0.5"/><path d="M176.07767,79.65048c-2.5,0 -2.5,-2.5 -2.5,-2.5l0.32556,-2.29478c-0.47353,-0.13183 -2.27671,-0.77954 -1.84983,-2.91396c0.3334,-1.66701 1.57367,-1.97372 2.33328,-1.99932c0.01457,-0.53299 0.06899,-1.07518 -0.25911,-1.45092c-0.57818,-0.66214 -1.67389,-0.56273 -2.45034,-0.97486c-1.68311,-0.89338 -3.51488,-1.47325 -5.26142,-2.23521c-2.60233,-1.13533 -6.81722,-4.1356 -8.24179,-6.55939c-1.46768,-2.49713 -1.63844,-5.55774 -2.55543,-8.30525c0,0 -0.79057,-2.37171 1.58114,-3.16228c2.37171,-0.79057 3.16228,1.58114 3.16228,1.58114c0.8141,2.44525 0.92852,5.16059 2.16302,7.4229c2.07242,3.79788 8.35149,4.9466 11.66184,6.93355c1.26093,0.75684 2.91304,1.02981 3.84092,2.17077c0.90291,1.11026 0.91214,2.71589 1.26166,4.10361c0.13756,0.54616 0.32906,1.09568 0.49682,1.64758c5.40928,3.26858 3.92979,10.95571 2.64881,16.07966c-0.37323,1.49291 -1.44732,3.03059 -1.00758,4.50527c0.49398,1.6566 3.45958,0.09202 5.17894,0.2712c2.03557,0.21213 6.48994,1.65011 7.82551,3.14771c2.51383,2.81881 4.15221,9.23959 3.79376,12.94883c-0.22282,2.30573 -1.04074,4.58228 -0.88151,6.89327c0.02177,0.31599 0.0478,0.82452 0.35973,0.8795c1.00792,0.17767 2.03857,-0.18473 3.05785,-0.27708c4.78964,1.22042 9.99551,3.66952 12.20011,8.53851c1.37002,3.02578 1.38863,8.24547 0.98541,11.54919c-0.40176,3.29172 -0.9563,6.21682 -0.78641,9.61239c0.03171,0.63386 -0.18077,1.4256 0.25525,1.88677c1.4847,1.57034 4.40169,1.47026 5.59828,3.26983c1.52366,2.29146 1.22911,5.19551 1.24287,7.73138v0.78641c0,0 0,2.5 -2.5,2.5c-2.5,0 -2.5,-2.5 -2.5,-2.5v-0.78641c0.00338,-0.51256 0.19473,-4.06882 -0.32995,-4.85114c-1.15071,-1.71579 -4.13623,-1.39603 -5.41142,-3.02143c-0.9459,-1.20569 -1.06059,-2.89375 -1.31758,-4.40449c-1.37034,-8.05568 4.66286,-17.8639 -3.62392,-23.39038c-1.34155,-0.89468 -2.85644,-1.57818 -4.42356,-1.95808c-1.60208,-0.09236 -3.39548,0.48774 -4.80623,-0.27708c-3.39353,-1.83978 -3.11959,-5.69265 -2.881,-8.74179c0.12487,-1.59586 1.26462,-4.48939 0.81935,-6.35856c-0.29063,-1.22001 -0.99274,-2.30431 -1.43911,-3.47633c-0.39749,-1.04369 -0.39447,-2.29499 -1.09133,-3.16774c-0.49092,-0.61483 -1.42619,-0.67419 -2.17329,-0.92088c-3.8796,-1.28101 -9.05042,0.99792 -11.56012,-3.52429c-1.88692,-3.40002 0.96978,-7.59826 1.29573,-10.92199c0.14357,-1.46398 -0.05695,-2.94248 -0.01873,-4.41299c0.00414,-0.15954 0.01673,-0.31363 0.03392,-0.46247c-0.28757,0.6679 -0.90909,1.38966 -2.25236,1.38966zM178.1578,76.96442l0.34137,0.15128c0.02304,-0.22795 0.02344,-0.43925 -0.02474,-0.63532c-0.11269,0.15881 -0.21974,0.31962 -0.31663,0.48404z" fill="#ff8037" stroke="none" stroke-width="0.5"/><path d="M275.4466,55.5534c-2.5,0 -2.5,-2.5 -2.5,-2.5l0.32556,-2.29478c-0.47353,-0.13183 -2.27672,-0.77954 -1.84983,-2.91396c0.3334,-1.66701 1.57367,-1.97372 2.33328,-1.99932c0.01457,-0.53299 0.06899,-1.07518 -0.25911,-1.45092c-0.57818,-0.66214 -1.67389,-0.56273 -2.45035,-0.97486c-1.6831,-0.89338 -3.51488,-1.47325 -5.26142,-2.23521c-2.60233,-1.13533 -6.81722,-4.1356 -8.24179,-6.55939c-1.46767,-2.49713 -1.63844,-5.55774 -2.55543,-8.30525c0,0 -0.79057,-2.37171 1.58114,-3.16228c2.37171,-0.79057 3.16228,1.58114 3.16228,1.58114c0.8141,2.44525 0.92852,5.16059 2.16301,7.4229c2.07242,3.79788 8.35149,4.9466 11.66184,6.93355c1.26094,0.75684 2.91304,1.02981 3.84092,2.17077c0.90291,1.11026 0.91214,2.71589 1.26166,4.10361c0.13756,0.54616 0.32906,1.09568 0.49682,1.64758c5.40927,3.26858 3.92979,10.95571 2.64881,16.07966c-0.37323,1.49291 -1.44732,3.03059 -1.00758,4.50527c0.49398,1.6566 3.45958,0.09202 5.17894,0.2712c2.03557,0.21213 6.48994,1.65011 7.82551,3.14771c2.51383,2.81881 4.15221,9.23959 3.79376,12.94883c-0.22282,2.30573 -1.04074,4.58228 -0.88151,6.89327c0.02177,0.31599 0.0478,0.82451 0.35973,0.8795c1.00792,0.17767 2.03857,-0.18472 3.05786,-0.27708c4.78963,1.22042 9.9955,3.66952 12.20011,8.53851c1.37002,3.02578 1.38864,8.24547 0.98541,11.54919c-0.40176,3.29172 -0.9563,6.21682 -0.78641,9.61239c0.03172,0.63386 -0.18077,1.4256 0.25525,1.88677c1.4847,1.57033 4.4017,1.47025 5.59828,3.26983c1.52366,2.29146 1.22911,5.19551 1.24287,7.73138v0.78641c0,0 0,2.5 -2.5,2.5c-2.5,0 -2.5,-2.5 -2.5,-2.5v-0.78641c0.00338,-0.51256 0.19473,-4.06882 -0.32994,-4.85114c-1.15071,-1.71579 -4.13624,-1.39602 -5.41142,-3.02143c-0.9459,-1.20569 -1.06059,-2.89374 -1.31758,-4.40449c-1.37034,-8.05568 4.66286,-17.8639 -3.62392,-23.39038c-1.34155,-0.89468 -2.85643,-1.57818 -4.42356,-1.95808c-1.60208,-0.09236 -3.39548,0.48774 -4.80623,-0.27708c-3.39353,-1.83978 -3.11959,-5.69265 -2.881,-8.74179c0.12487,-1.59586 1.26462,-4.48939 0.81935,-6.35856c-0.29063,-1.22001 -0.99274,-2.30431 -1.43912,-3.47633c-0.39749,-1.04369 -0.39447,-2.29499 -1.09133,-3.16774c-0.49092,-0.61483 -1.42619,-0.67419 -2.17329,-0.92088c-3.8796,-1.28101 -9.05042,0.99792 -11.56012,-3.52429c-1.88692,-3.40002 0.96978,-7.59826 1.29573,-10.92199c0.14357,-1.46398 -0.05695,-2.94248 -0.01873,-4.41299c0.00414,-0.15954 0.01673,-0.31363 0.03392,-0.46247c-0.28757,0.6679 -0.90909,1.38966 -2.25236,1.38966zM277.52673,52.86733l0.34137,0.15128c0.02304,-0.22795 0.02344,-0.43925 -0.02474,-0.63532c-0.11269,0.15881 -0.21974,0.31962 -0.31664,0.48404z" fill="#ff8037" stroke="none" stroke-width="0.5"/><path d="M263.14563,84.14563c-2.5,0 -2.5,-2.5 -2.5,-2.5l0.32556,-2.29478c-0.47353,-0.13183 -2.27671,-0.77954 -1.84983,-2.91396c0.3334,-1.66701 1.57367,-1.97372 2.33328,-1.99932c0.01456,-0.53299 0.06899,-1.07518 -0.25911,-1.45092c-0.57818,-0.66214 -1.67389,-0.56273 -2.45034,-0.97486c-1.68311,-0.89338 -3.51488,-1.47325 -5.26142,-2.23521c-2.60233,-1.13533 -6.81722,-4.1356 -8.24179,-6.55939c-1.46768,-2.49713 -1.63844,-5.55774 -2.55543,-8.30525c0,0 -0.79057,-2.37171 1.58114,-3.16228c2.37171,-0.79057 3.16228,1.58114 3.16228,1.58114c0.8141,2.44525 0.92852,5.16059 2.16302,7.4229c2.07242,3.79788 8.35149,4.9466 11.66184,6.93355c1.26093,0.75684 2.91304,1.02981 3.84092,2.17077c0.90291,1.11026 0.91214,2.71589 1.26166,4.10361c0.13756,0.54616 0.32906,1.09568 0.49682,1.64758c5.40927,3.26858 3.92979,10.95571 2.64881,16.07966c-0.37323,1.49291 -1.44732,3.03059 -1.00758,4.50527c0.49397,1.6566 3.45958,0.09202 5.17894,0.2712c2.03557,0.21213 6.48994,1.65011 7.82551,3.14772c2.51383,2.81881 4.15221,9.23959 3.79375,12.94883c-0.22282,2.30573 -1.04074,4.58228 -0.88151,6.89327c0.02177,0.31599 0.0478,0.82451 0.35973,0.8795c1.00792,0.17767 2.03857,-0.18472 3.05786,-0.27708c4.78963,1.22042 9.9955,3.66952 12.20011,8.53852c1.37003,3.02578 1.38864,8.24546 0.98541,11.54918c-0.40176,3.29172 -0.9563,6.21682 -0.7864,9.61239c0.03171,0.63386 -0.18077,1.42561 0.25524,1.88677c1.48471,1.57034 4.4017,1.47026 5.59829,3.26983c1.52366,2.29146 1.22911,5.1955 1.24287,7.73138v0.78641c0,0 0,2.5 -2.5,2.5c-2.5,0 -2.5,-2.5 -2.5,-2.5v-0.78641c0.00338,-0.51256 0.19473,-4.06882 -0.32995,-4.85114c-1.15071,-1.71579 -4.13624,-1.39603 -5.41142,-3.02143c-0.9459,-1.20568 -1.06059,-2.89374 -1.31758,-4.40449c-1.37034,-8.05568 4.66286,-17.8639 -3.62392,-23.39038c-1.34155,-0.89469 -2.85644,-1.57818 -4.42356,-1.95808c-1.60208,-0.09236 -3.39547,0.48775 -4.80622,-0.27708c-3.39353,-1.83978 -3.11959,-5.69265 -2.88101,-8.74179c0.12487,-1.59586 1.26462,-4.48939 0.81935,-6.35856c-0.29063,-1.22001 -0.99274,-2.30431 -1.43911,-3.47633c-0.3975,-1.04369 -0.39448,-2.29499 -1.09133,-3.16774c-0.49092,-0.61483 -1.42619,-0.67419 -2.17329,-0.92088c-3.8796,-1.28101 -9.05042,0.99792 -11.56012,-3.52429c-1.88692,-3.40002 0.96978,-7.59826 1.29573,-10.922c0.14357,-1.46398 -0.05694,-2.94248 -0.01873,-4.41299c0.00414,-0.15954 0.01673,-0.31363 0.03392,-0.46247c-0.28757,0.6679 -0.90909,1.38966 -2.25236,1.38966zM265.22576,81.45957l0.34137,0.15128c0.02304,-0.22795 0.02344,-0.43925 -0.02474,-0.63532c-0.11269,0.15881 -0.21974,0.31962 -0.31663,0.48404z" fill="#ff8037" stroke="none" stroke-width="0.5"/><path d="M258.70874,91.50485c-2.5,0 -2.5,-2.5 -2.5,-2.5l0.32556,-2.29478c-0.47353,-0.13183 -2.27672,-0.77954 -1.84983,-2.91396c0.3334,-1.66701 1.57367,-1.97372 2.33327,-1.99932c0.01457,-0.53299 0.06899,-1.07518 -0.25911,-1.45092c-0.57818,-0.66214 -1.6739,-0.56273 -2.45035,-0.97486c-1.68311,-0.89338 -3.51488,-1.47325 -5.26142,-2.23521c-2.60233,-1.13533 -6.81722,-4.1356 -8.24179,-6.55939c-1.46768,-2.49713 -1.63844,-5.55774 -2.55543,-8.30525c0,0 -0.79057,-2.37171 1.58114,-3.16228c2.37171,-0.79057 3.16228,1.58114 3.16228,1.58114c0.8141,2.44525 0.92852,5.16059 2.16302,7.4229c2.07242,3.79788 8.35149,4.9466 11.66184,6.93355c1.26093,0.75684 2.91304,1.02981 3.84092,2.17077c0.90291,1.11026 0.91214,2.71589 1.26166,4.10361c0.13756,0.54616 0.32905,1.09568 0.49682,1.64758c5.40927,3.26858 3.9298,10.95571 2.64881,16.07966c-0.37323,1.49291 -1.44732,3.03059 -1.00758,4.50527c0.49398,1.6566 3.45958,0.09202 5.17894,0.2712c2.03557,0.21213 6.48994,1.65011 7.82551,3.14771c2.51383,2.81881 4.15221,9.23958 3.79376,12.94883c-0.22282,2.30573 -1.04074,4.58228 -0.88151,6.89327c0.02177,0.31599 0.0478,0.82451 0.35973,0.8795c1.00792,0.17766 2.03857,-0.18473 3.05785,-0.27708c4.78964,1.22042 9.99551,3.66952 12.20011,8.53851c1.37002,3.02578 1.38863,8.24546 0.98541,11.54918c-0.40176,3.29172 -0.9563,6.21682 -0.78641,9.61239c0.03171,0.63386 -0.18077,1.42561 0.25525,1.88677c1.4847,1.57034 4.40169,1.47026 5.59828,3.26983c1.52366,2.29146 1.22911,5.1955 1.24287,7.73138v0.78641c0,0 0,2.5 -2.5,2.5c-2.5,0 -2.5,-2.5 -2.5,-2.5v-0.78641c0.00338,-0.51256 0.19473,-4.06882 -0.32995,-4.85114c-1.15071,-1.71579 -4.13623,-1.39603 -5.41142,-3.02143c-0.9459,-1.20568 -1.06059,-2.89374 -1.31758,-4.40449c-1.37034,-8.05568 4.66286,-17.8639 -3.62392,-23.39038c-1.34155,-0.89469 -2.85644,-1.57818 -4.42357,-1.95808c-1.60208,-0.09236 -3.39548,0.48775 -4.80623,-0.27708c-3.39352,-1.83978 -3.11959,-5.69265 -2.881,-8.74179c0.12487,-1.59586 1.26463,-4.48939 0.81935,-6.35856c-0.29063,-1.22001 -0.99274,-2.30431 -1.43912,-3.47633c-0.39749,-1.04369 -0.39447,-2.29499 -1.09133,-3.16774c-0.49092,-0.61483 -1.42619,-0.67419 -2.17329,-0.92088c-3.8796,-1.28101 -9.05042,0.99792 -11.56012,-3.52429c-1.88692,-3.40002 0.96978,-7.59826 1.29573,-10.92199c0.14357,-1.46398 -0.05695,-2.94248 -0.01873,-4.41299c0.00414,-0.15954 0.01673,-0.31363 0.03392,-0.46247c-0.28757,0.6679 -0.90909,1.38966 -2.25236,1.38966zM260.78886,88.81879l0.34138,0.15128c0.02304,-0.22795 0.02344,-0.43925 -0.02474,-0.63532c-0.11269,0.15881 -0.21974,0.31962 -0.31664,0.48404z" fill="#ff8037" stroke="none" stroke-width="0.5"/><path d="M246.40777,76.84466c-2.5,0 -2.5,-2.5 -2.5,-2.5l0.32556,-2.29478c-0.47353,-0.13183 -2.27671,-0.77954 -1.84983,-2.91396c0.3334,-1.66701 1.57367,-1.97372 2.33328,-1.99932c0.01457,-0.53299 0.06899,-1.07518 -0.25911,-1.45092c-0.57818,-0.66214 -1.6739,-0.56273 -2.45034,-0.97486c-1.68311,-0.89338 -3.51489,-1.47325 -5.26142,-2.23521c-2.60233,-1.13533 -6.81722,-4.1356 -8.24179,-6.55939c-1.46768,-2.49713 -1.63844,-5.55774 -2.55543,-8.30525c0,0 -0.79057,-2.37171 1.58114,-3.16228c2.37171,-0.79057 3.16228,1.58114 3.16228,1.58114c0.8141,2.44525 0.92852,5.16059 2.16302,7.4229c2.07242,3.79788 8.35149,4.9466 11.66184,6.93355c1.26093,0.75684 2.91304,1.02981 3.84092,2.17077c0.90291,1.11026 0.91214,2.71589 1.26166,4.10361c0.13756,0.54616 0.32905,1.09568 0.49682,1.64758c5.40928,3.26858 3.9298,10.95571 2.64881,16.07966c-0.37323,1.49291 -1.44732,3.03059 -1.00758,4.50527c0.49397,1.6566 3.45957,0.09202 5.17894,0.2712c2.03557,0.21213 6.48994,1.65011 7.82551,3.14771c2.51383,2.81881 4.15221,9.23958 3.79376,12.94883c-0.22282,2.30573 -1.04074,4.58228 -0.88151,6.89327c0.02177,0.31599 0.0478,0.82451 0.35973,0.8795c1.00792,0.17767 2.03857,-0.18472 3.05786,-0.27708c4.78963,1.22042 9.9955,3.66952 12.20011,8.53851c1.37002,3.02578 1.38864,8.24546 0.98541,11.54918c-0.40176,3.29172 -0.9563,6.21682 -0.78641,9.61239c0.03172,0.63386 -0.18077,1.42561 0.25525,1.88677c1.4847,1.57034 4.4017,1.47026 5.59828,3.26983c1.52366,2.29146 1.22911,5.1955 1.24287,7.73138v0.78641c0,0 0,2.5 -2.5,2.5c-2.5,0 -2.5,-2.5 -2.5,-2.5v-0.78641c0.00338,-0.51256 0.19473,-4.06882 -0.32994,-4.85114c-1.15071,-1.71579 -4.13624,-1.39603 -5.41142,-3.02143c-0.94589,-1.20568 -1.06058,-2.89374 -1.31758,-4.40449c-1.37034,-8.05568 4.66286,-17.86389 -3.62392,-23.39038c-1.34155,-0.89469 -2.85643,-1.57818 -4.42356,-1.95808c-1.60208,-0.09236 -3.39548,0.48775 -4.80623,-0.27708c-3.39352,-1.83978 -3.11959,-5.69265 -2.881,-8.74179c0.12487,-1.59586 1.26463,-4.48939 0.81935,-6.35856c-0.29063,-1.22 -0.99274,-2.30431 -1.43911,-3.47633c-0.39749,-1.04369 -0.39447,-2.295 -1.09133,-3.16774c-0.49092,-0.61483 -1.42618,-0.67419 -2.17329,-0.92088c-3.8796,-1.28101 -9.05042,0.99792 -11.56012,-3.52429c-1.88692,-3.40002 0.96978,-7.59826 1.29573,-10.92199c0.14358,-1.46398 -0.05694,-2.94248 -0.01873,-4.41299c0.00414,-0.15954 0.01674,-0.31363 0.03392,-0.46247c-0.28757,0.6679 -0.90909,1.38966 -2.25236,1.38966zM248.48789,74.15859l0.34138,0.15128c0.02304,-0.22795 0.02344,-0.43925 -0.02474,-0.63532c-0.11269,0.15881 -0.21974,0.31962 -0.31663,0.48404z" fill="#ff8037" stroke="none" stroke-width="0.5"/><path d="M264.7767,63.75728c-2.5,0 -2.5,-2.5 -2.5,-2.5l0.32556,-2.29478c-0.47353,-0.13183 -2.27671,-0.77954 -1.84983,-2.91396c0.3334,-1.66701 1.57367,-1.97372 2.33328,-1.99932c0.01457,-0.53299 0.06899,-1.07518 -0.25911,-1.45092c-0.57818,-0.66214 -1.6739,-0.56273 -2.45034,-0.97486c-1.68311,-0.89338 -3.51489,-1.47325 -5.26142,-2.23521c-2.60232,-1.13533 -6.81722,-4.1356 -8.24178,-6.55939c-1.46768,-2.49713 -1.63844,-5.55774 -2.55543,-8.30525c0,0 -0.79057,-2.37171 1.58114,-3.16228c2.37171,-0.79057 3.16228,1.58114 3.16228,1.58114c0.8141,2.44525 0.92852,5.16059 2.16302,7.4229c2.07242,3.79788 8.35149,4.9466 11.66184,6.93355c1.26093,0.75684 2.91304,1.02981 3.84092,2.17077c0.90291,1.11026 0.91214,2.71589 1.26166,4.10361c0.13756,0.54616 0.32905,1.09568 0.49682,1.64758c5.40928,3.26858 3.9298,10.95571 2.64881,16.07966c-0.37323,1.49291 -1.44732,3.03059 -1.00758,4.50527c0.49397,1.6566 3.45957,0.09202 5.17894,0.2712c2.03557,0.21213 6.48994,1.65011 7.82551,3.14772c2.51383,2.81881 4.15221,9.23958 3.79375,12.94883c-0.22282,2.30573 -1.04074,4.58228 -0.88151,6.89327c0.02177,0.31599 0.0478,0.82452 0.35973,0.8795c1.00792,0.17767 2.03857,-0.18472 3.05785,-0.27708c4.78963,1.22042 9.9955,3.66952 12.20011,8.53852c1.37002,3.02578 1.38864,8.24546 0.98541,11.54918c-0.40176,3.29172 -0.9563,6.21682 -0.78641,9.61238c0.03172,0.63386 -0.18077,1.42561 0.25525,1.88677c1.4847,1.57033 4.4017,1.47025 5.59828,3.26983c1.52366,2.29146 1.22911,5.1955 1.24287,7.73138v0.78641c0,0 0,2.5 -2.5,2.5c-2.5,0 -2.5,-2.5 -2.5,-2.5v-0.78641c0.00338,-0.51256 0.19473,-4.06882 -0.32994,-4.85114c-1.15071,-1.71579 -4.13624,-1.39603 -5.41142,-3.02143c-0.9459,-1.20568 -1.06059,-2.89374 -1.31758,-4.40449c-1.37034,-8.05567 4.66286,-17.86389 -3.62392,-23.39038c-1.34155,-0.89469 -2.85643,-1.57818 -4.42356,-1.95808c-1.60208,-0.09236 -3.39547,0.48775 -4.80622,-0.27709c-3.39353,-1.83978 -3.11959,-5.69265 -2.88101,-8.74179c0.12487,-1.59586 1.26463,-4.48939 0.81935,-6.35856c-0.29063,-1.22 -0.99274,-2.30431 -1.43911,-3.47633c-0.39749,-1.04369 -0.39447,-2.295 -1.09133,-3.16774c-0.49092,-0.61483 -1.42618,-0.67419 -2.17329,-0.92088c-3.8796,-1.28101 -9.05042,0.99792 -11.56012,-3.52429c-1.88692,-3.40002 0.96978,-7.59826 1.29573,-10.92199c0.14358,-1.46398 -0.05694,-2.94248 -0.01873,-4.41299c0.00414,-0.15954 0.01674,-0.31363 0.03392,-0.46247c-0.28757,0.6679 -0.90909,1.38966 -2.25236,1.38966zM266.85683,61.07122l0.34138,0.15128c0.02304,-0.22795 0.02344,-0.43925 -0.02474,-0.63532c-0.11269,0.15881 -0.21974,0.31962 -0.31663,0.48404z" fill="#ff8037" stroke="none" stroke-width="0.5"/><path d="M180.12621,64.82524c-2.5,0 -2.5,-2.5 -2.5,-2.5l0.32556,-2.29478c-0.47353,-0.13183 -2.27671,-0.77954 -1.84983,-2.91396c0.3334,-1.66701 1.57367,-1.97372 2.33328,-1.99932c0.01457,-0.53299 0.06899,-1.07518 -0.25911,-1.45092c-0.57818,-0.66214 -1.67389,-0.56273 -2.45034,-0.97486c-1.68311,-0.89338 -3.51488,-1.47325 -5.26142,-2.23521c-2.60233,-1.13533 -6.81722,-4.1356 -8.24179,-6.55939c-1.46768,-2.49713 -1.63844,-5.55774 -2.55543,-8.30525c0,0 -0.79057,-2.37171 1.58114,-3.16228c2.37171,-0.79057 3.16228,1.58114 3.16228,1.58114c0.8141,2.44525 0.92852,5.16059 2.16302,7.4229c2.07242,3.79788 8.35149,4.9466 11.66184,6.93355c1.26093,0.75684 2.91304,1.02981 3.84092,2.17077c0.90291,1.11026 0.91214,2.71589 1.26166,4.10361c0.13756,0.54616 0.32906,1.09568 0.49682,1.64758c5.40928,3.26858 3.92979,10.95571 2.64881,16.07966c-0.37323,1.49291 -1.44732,3.03059 -1.00758,4.50527c0.49398,1.6566 3.45958,0.09202 5.17894,0.2712c2.03557,0.21213 6.48994,1.65011 7.82551,3.14772c2.51383,2.81881 4.15221,9.23958 3.79376,12.94883c-0.22282,2.30573 -1.04074,4.58228 -0.88151,6.89327c0.02177,0.31599 0.0478,0.82451 0.35973,0.8795c1.00792,0.17767 2.03857,-0.18472 3.05785,-0.27708c4.78964,1.22042 9.99551,3.66952 12.2001,8.53851c1.37002,3.02578 1.38864,8.24546 0.98541,11.54918c-0.40176,3.29172 -0.9563,6.21682 -0.78641,9.61239c0.03171,0.63386 -0.18077,1.42561 0.25524,1.88677c1.48471,1.57034 4.40169,1.47026 5.59829,3.26983c1.52366,2.29146 1.2291,5.1955 1.24287,7.73138v0.78641c0,0 0,2.5 -2.5,2.5c-2.5,0 -2.5,-2.5 -2.5,-2.5v-0.78641c0.00338,-0.51256 0.19473,-4.06882 -0.32995,-4.85114c-1.15071,-1.71579 -4.13623,-1.39603 -5.41142,-3.02143c-0.9459,-1.20568 -1.06059,-2.89374 -1.31758,-4.40449c-1.37034,-8.05568 4.66285,-17.8639 -3.62392,-23.39038c-1.34155,-0.89469 -2.85644,-1.57818 -4.42356,-1.95808c-1.60208,-0.09236 -3.39548,0.48774 -4.80623,-0.27708c-3.39353,-1.83978 -3.11959,-5.69265 -2.881,-8.74179c0.12487,-1.59586 1.26462,-4.48939 0.81935,-6.35856c-0.29063,-1.22 -0.99274,-2.30431 -1.43911,-3.47633c-0.39749,-1.04369 -0.39447,-2.295 -1.09133,-3.16774c-0.49092,-0.61483 -1.42619,-0.67419 -2.17329,-0.92088c-3.8796,-1.28101 -9.05042,0.99792 -11.56012,-3.52429c-1.88692,-3.40002 0.96978,-7.59826 1.29573,-10.922c0.14357,-1.46398 -0.05695,-2.94248 -0.01873,-4.41299c0.00414,-0.15954 0.01673,-0.31363 0.03392,-0.46247c-0.28757,0.6679 -0.90909,1.38966 -2.25236,1.38966zM182.20634,62.13918l0.34137,0.15128c0.02304,-0.22795 0.02344,-0.43925 -0.02474,-0.63532c-0.11269,0.15881 -0.21974,0.31962 -0.31663,0.48404z" fill="#ff8037" stroke="none" stroke-width="0.5"/><path d="M242.53398,51.73786c-2.5,0 -2.5,-2.5 -2.5,-2.5l0.32556,-2.29478c-0.47353,-0.13183 -2.27671,-0.77954 -1.84983,-2.91396c0.3334,-1.66701 1.57367,-1.97372 2.33328,-1.99932c0.01457,-0.53299 0.06899,-1.07518 -0.25911,-1.45092c-0.57818,-0.66214 -1.67389,-0.56273 -2.45034,-0.97486c-1.68311,-0.89338 -3.51488,-1.47325 -5.26142,-2.23521c-2.60233,-1.13533 -6.81722,-4.1356 -8.24179,-6.55939c-1.46768,-2.49713 -1.63844,-5.55774 -2.55543,-8.30525c0,0 -0.79057,-2.37171 1.58114,-3.16228c2.37171,-0.79057 3.16228,1.58114 3.16228,1.58114c0.8141,2.44525 0.92852,5.16059 2.16302,7.4229c2.07242,3.79788 8.35149,4.9466 11.66184,6.93355c1.26093,0.75684 2.91304,1.02981 3.84092,2.17077c0.90291,1.11026 0.91214,2.71589 1.26166,4.10361c0.13756,0.54616 0.32906,1.09568 0.49682,1.64758c5.40928,3.26858 3.92979,10.95571 2.64881,16.07966c-0.37323,1.49291 -1.44732,3.03059 -1.00758,4.50528c0.49398,1.6566 3.45958,0.09202 5.17894,0.2712c2.03557,0.21213 6.48994,1.65011 7.82551,3.14772c2.51383,2.81881 4.15221,9.23958 3.79375,12.94883c-0.22282,2.30573 -1.04074,4.58228 -0.88151,6.89327c0.02177,0.31599 0.0478,0.82451 0.35973,0.8795c1.00792,0.17766 2.03857,-0.18473 3.05786,-0.27708c4.78963,1.22042 9.9955,3.66952 12.20011,8.53851c1.37002,3.02578 1.38864,8.24547 0.98541,11.54919c-0.40176,3.29172 -0.9563,6.21682 -0.78641,9.61238c0.03172,0.63386 -0.18077,1.4256 0.25525,1.88677c1.4847,1.57034 4.4017,1.47026 5.59828,3.26983c1.52366,2.29146 1.22911,5.1955 1.24287,7.73138v0.78641c0,0 0,2.5 -2.5,2.5c-2.5,0 -2.5,-2.5 -2.5,-2.5v-0.78641c0.00338,-0.51256 0.19473,-4.06881 -0.32994,-4.85114c-1.15071,-1.71579 -4.13624,-1.39603 -5.41142,-3.02144c-0.94589,-1.20569 -1.06058,-2.89375 -1.31758,-4.40449c-1.37034,-8.05567 4.66286,-17.86389 -3.62392,-23.39038c-1.34155,-0.89468 -2.85643,-1.57818 -4.42356,-1.95808c-1.60208,-0.09236 -3.39548,0.48774 -4.80623,-0.27708c-3.39353,-1.83978 -3.11959,-5.69266 -2.88101,-8.74179c0.12487,-1.59586 1.26463,-4.48939 0.81935,-6.35856c-0.29063,-1.22 -0.99274,-2.30431 -1.43912,-3.47633c-0.39749,-1.04369 -0.39447,-2.295 -1.09133,-3.16774c-0.49092,-0.61483 -1.42619,-0.67419 -2.17329,-0.92088c-3.8796,-1.28101 -9.05042,0.99792 -11.56012,-3.52429c-1.88692,-3.40002 0.96978,-7.59826 1.29573,-10.922c0.14357,-1.46398 -0.05695,-2.94248 -0.01873,-4.41299c0.00414,-0.15954 0.01673,-0.31363 0.03392,-0.46247c-0.28757,0.6679 -0.90909,1.38966 -2.25236,1.38966zM244.61411,49.0518l0.34137,0.15128c0.02304,-0.22795 0.02344,-0.43925 -0.02474,-0.63532c-0.11269,0.15881 -0.21974,0.31962 -0.31663,0.48404z" fill="#ff8037" stroke="none" stroke-width="0.5"/><path d="M300.2396,62.42588c0.01719,0.14884 0.02978,0.30293 0.03392,0.46247c0.03821,1.47052 -0.16231,2.949 -0.01873,4.41299c0.32595,3.32373 3.18265,7.52197 1.29573,10.922c-2.5097,4.5222 -7.68052,2.24328 -11.56012,3.52429c-0.74711,0.24669 -1.68237,0.30605 -2.17329,0.92088c-0.69685,0.87274 -0.69383,2.12405 -1.09133,3.16774c-0.44637,1.17202 -1.14848,2.25633 -1.43911,3.47633c-0.44527,1.86917 0.69448,4.7627 0.81935,6.35856c0.23859,3.04914 0.51252,6.90201 -2.88101,8.74179c-1.41075,0.76483 -3.20415,0.18473 -4.80622,0.27708c-1.56713,0.3799 -3.08202,1.0634 -4.42356,1.95808c-8.28678,5.52648 -2.25358,15.3347 -3.62392,23.39038c-0.25699,1.51074 -0.37168,3.1988 -1.31758,4.40449c-1.27518,1.62541 -4.26071,1.30565 -5.41142,3.02143c-0.52468,0.78233 -0.33333,4.33858 -0.32995,4.85114v0.78641c0,0 0,2.5 -2.5,2.5c-2.5,0 -2.5,-2.5 -2.5,-2.5v-0.78641c0.01376,-2.53588 -0.28079,-5.43992 1.24287,-7.73138c1.19659,-1.79958 4.11358,-1.6995 5.59828,-3.26983c0.43601,-0.46116 0.22353,-1.25291 0.25525,-1.88677c0.16989,-3.39556 -0.38465,-6.32067 -0.78641,-9.61239c-0.40322,-3.30372 -0.38461,-8.5234 0.98541,-11.54918c2.2046,-4.86899 7.41047,-7.3181 12.20011,-8.53852c1.01929,0.09236 2.04994,0.45475 3.05786,0.27708c0.31193,-0.05498 0.33796,-0.56351 0.35973,-0.8795c0.15923,-2.31099 -0.65869,-4.58754 -0.88151,-6.89327c-0.35845,-3.70925 1.27992,-10.13002 3.79375,-12.94883c1.33557,-1.4976 5.78994,-2.93559 7.82551,-3.14772c1.71937,-0.17918 4.68497,1.3854 5.17894,-0.2712c0.43974,-1.47469 -0.63435,-3.01237 -1.00758,-4.50528c-1.28098,-5.12394 -2.76047,-12.81108 2.64881,-16.07966c0.16776,-0.55191 0.35926,-1.10142 0.49682,-1.64758c0.34952,-1.38772 0.35875,-2.99335 1.26166,-4.10361c0.92788,-1.14096 2.57998,-1.41393 3.84092,-2.17077c3.31035,-1.98695 9.58942,-3.13567 11.66184,-6.93355c1.2345,-2.26231 1.34892,-4.97765 2.16301,-7.4229c0,0 0.79057,-2.37171 3.16228,-1.58114c2.37171,0.79057 1.58114,3.16228 1.58114,3.16228c-0.91699,2.74751 -1.08776,5.80812 -2.55543,8.30525c-1.42457,2.42379 -5.63946,5.42406 -8.24178,6.55939c-1.74653,0.76196 -3.57831,1.34184 -5.26142,2.23521c-0.77645,0.41213 -1.87216,0.31272 -2.45034,0.97486c-0.32811,0.37575 -0.27368,0.91793 -0.25911,1.45092c0.75961,0.0256 1.99988,0.33231 2.33328,1.99932c0.42688,2.13442 -1.3763,2.78213 -1.84983,2.91396l0.32556,2.29478c0,0 0,2.5 -2.5,2.5c-1.34328,0 -1.9648,-0.72176 -2.25237,-1.38966zM300.0952,60.64543c-0.04818,0.19607 -0.04778,0.40737 -0.02474,0.63532l0.34137,-0.15128c-0.09689,-0.16442 -0.20394,-0.32523 -0.31663,-0.48404z" data-paper-data="{&quot;index&quot;:null}" fill="#ff8037" stroke="none" stroke-width="0.5"/><path d="M315.6862,63.49384c0.01719,0.14884 0.02978,0.30293 0.03392,0.46247c0.03821,1.47052 -0.16231,2.949 -0.01873,4.41299c0.32595,3.32373 3.18265,7.52197 1.29573,10.922c-2.5097,4.5222 -7.68052,2.24328 -11.56012,3.52429c-0.74711,0.24669 -1.68237,0.30605 -2.17329,0.92088c-0.69685,0.87274 -0.69383,2.12405 -1.09133,3.16774c-0.44637,1.17202 -1.14849,2.25633 -1.43912,3.47633c-0.44528,1.86917 0.69448,4.7627 0.81935,6.35856c0.23859,3.04914 0.51252,6.90201 -2.881,8.74179c-1.41075,0.76483 -3.20415,0.18472 -4.80623,0.27708c-1.56713,0.3799 -3.08201,1.0634 -4.42356,1.95808c-8.28678,5.52648 -2.25358,15.3347 -3.62392,23.39038c-0.25699,1.51074 -0.37168,3.1988 -1.31757,4.40449c-1.27519,1.62541 -4.26071,1.30564 -5.41142,3.02143c-0.52468,0.78232 -0.33333,4.33857 -0.32995,4.85114v0.78641c0,0 0,2.5 -2.5,2.5c-2.5,0 -2.5,-2.5 -2.5,-2.5v-0.78641c0.01376,-2.53587 -0.28079,-5.43992 1.24287,-7.73138c1.19659,-1.79958 4.11358,-1.6995 5.59829,-3.26983c0.43601,-0.46116 0.22353,-1.25291 0.25524,-1.88677c0.16989,-3.39557 -0.38464,-6.32067 -0.7864,-9.61239c-0.40323,-3.30372 -0.38462,-8.5234 0.98541,-11.54919c2.2046,-4.86899 7.41047,-7.3181 12.20011,-8.53851c1.01928,0.09236 2.04993,0.45475 3.05785,0.27708c0.31193,-0.05499 0.33796,-0.56351 0.35973,-0.8795c0.15923,-2.31099 -0.65869,-4.58754 -0.88151,-6.89327c-0.35845,-3.70925 1.27992,-10.13002 3.79376,-12.94883c1.33557,-1.4976 5.78993,-2.93559 7.82551,-3.14772c1.71937,-0.17918 4.68497,1.3854 5.17894,-0.2712c0.43974,-1.47469 -0.63435,-3.01237 -1.00758,-4.50528c-1.28098,-5.12394 -2.76047,-12.81108 2.64881,-16.07966c0.16776,-0.55191 0.35926,-1.10142 0.49682,-1.64758c0.34952,-1.38772 0.35875,-2.99335 1.26166,-4.10361c0.92788,-1.14096 2.57998,-1.41393 3.84092,-2.17077c3.31035,-1.98695 9.58942,-3.13567 11.66184,-6.93355c1.2345,-2.26231 1.34892,-4.97765 2.16301,-7.4229c0,0 0.79057,-2.37171 3.16228,-1.58114c2.37171,0.79057 1.58114,3.16228 1.58114,3.16228c-0.91699,2.74751 -1.08776,5.80812 -2.55543,8.30525c-1.42457,2.42379 -5.63946,5.42406 -8.24178,6.55939c-1.74653,0.76196 -3.57831,1.34184 -5.26142,2.23521c-0.77645,0.41213 -1.87216,0.31272 -2.45034,0.97486c-0.32811,0.37575 -0.27368,0.91793 -0.25911,1.45092c0.75961,0.0256 1.99988,0.33231 2.33328,1.99932c0.42688,2.13442 -1.3763,2.78213 -1.84983,2.91396l0.32556,2.29478c0,0 0,2.5 -2.5,2.5c-1.34328,0 -1.9648,-0.72176 -2.25237,-1.38966zM315.54181,61.71339c-0.04818,0.19607 -0.04778,0.40737 -0.02474,0.63532l0.34137,-0.15128c-0.09689,-0.16442 -0.20394,-0.32523 -0.31663,-0.48404z" data-paper-data="{&quot;index&quot;:null}" fill="#ff8037" stroke="none" stroke-width="0.5"/><path d="M278.44348,49.62005c0.01719,0.14884 0.02978,0.30293 0.03392,0.46247c0.03821,1.47052 -0.16231,2.949 -0.01873,4.41299c0.32595,3.32373 3.18265,7.52197 1.29573,10.922c-2.5097,4.5222 -7.68052,2.24328 -11.56012,3.52429c-0.7471,0.24669 -1.68237,0.30605 -2.17329,0.92088c-0.69686,0.87274 -0.69384,2.12405 -1.09133,3.16774c-0.44637,1.17202 -1.14849,2.25633 -1.43912,3.47633c-0.44528,1.86917 0.69448,4.7627 0.81935,6.35856c0.23859,3.04914 0.51252,6.90201 -2.881,8.74179c-1.41075,0.76483 -3.20415,0.18472 -4.80623,0.27708c-1.56713,0.3799 -3.08201,1.0634 -4.42356,1.95808c-8.28678,5.52648 -2.25358,15.3347 -3.62392,23.39038c-0.25699,1.51074 -0.37168,3.1988 -1.31757,4.40449c-1.27519,1.62541 -4.26071,1.30564 -5.41142,3.02143c-0.52468,0.78232 -0.33333,4.33858 -0.32995,4.85114v0.78641c0,0 0,2.5 -2.5,2.5c-2.5,0 -2.5,-2.5 -2.5,-2.5v-0.78641c0.01376,-2.53587 -0.28079,-5.43992 1.24287,-7.73138c1.19659,-1.79957 4.11358,-1.69949 5.59829,-3.26983c0.43601,-0.46116 0.22353,-1.25291 0.25524,-1.88677c0.16989,-3.39557 -0.38464,-6.32066 -0.7864,-9.61238c-0.40323,-3.30372 -0.38462,-8.5234 0.98541,-11.54919c2.2046,-4.86899 7.41047,-7.3181 12.20011,-8.53851c1.01928,0.09236 2.04993,0.45475 3.05785,0.27708c0.31193,-0.05499 0.33796,-0.56351 0.35973,-0.8795c0.15923,-2.31099 -0.65869,-4.58754 -0.88151,-6.89327c-0.35845,-3.70925 1.27992,-10.13002 3.79376,-12.94883c1.33557,-1.4976 5.78993,-2.93559 7.82551,-3.14772c1.71937,-0.17918 4.68497,1.3854 5.17894,-0.2712c0.43974,-1.47469 -0.63435,-3.01237 -1.00758,-4.50528c-1.28098,-5.12394 -2.76047,-12.81108 2.64881,-16.07966c0.16776,-0.55191 0.35926,-1.10143 0.49682,-1.64758c0.34952,-1.38772 0.35875,-2.99335 1.26166,-4.10361c0.92788,-1.14096 2.57998,-1.41393 3.84092,-2.17077c3.31035,-1.98695 9.58942,-3.13567 11.66184,-6.93355c1.2345,-2.26231 1.34892,-4.97765 2.16301,-7.4229c0,0 0.79057,-2.37171 3.16228,-1.58114c2.37171,0.79057 1.58114,3.16228 1.58114,3.16228c-0.91699,2.74751 -1.08776,5.80812 -2.55543,8.30525c-1.42457,2.42379 -5.63946,5.42406 -8.24178,6.55939c-1.74653,0.76196 -3.57831,1.34184 -5.26142,2.23521c-0.77645,0.41213 -1.87216,0.31272 -2.45034,0.97486c-0.32811,0.37575 -0.27368,0.91793 -0.25911,1.45092c0.75961,0.0256 1.99988,0.33231 2.33328,1.99932c0.42688,2.13442 -1.3763,2.78213 -1.84983,2.91396l0.32556,2.29478c0,0 0,2.5 -2.5,2.5c-1.34328,0 -1.9648,-0.72176 -2.25237,-1.38966zM278.29909,47.8396c-0.04818,0.19607 -0.04778,0.40737 -0.02474,0.63532l0.34137,-0.15128c-0.09689,-0.16442 -0.20394,-0.32523 -0.31663,-0.48404z" data-paper-data="{&quot;index&quot;:null}" fill="#ff8037" stroke="none" stroke-width="0.5"/><path d="M295.4629,64.84335c0.01719,0.14884 0.02978,0.30293 0.03392,0.46247c0.03821,1.47052 -0.16231,2.949 -0.01873,4.41299c0.32595,3.32373 3.18265,7.52197 1.29573,10.922c-2.5097,4.5222 -7.68052,2.24328 -11.56012,3.52429c-0.7471,0.24669 -1.68237,0.30605 -2.17329,0.92088c-0.69686,0.87274 -0.69384,2.12405 -1.09133,3.16774c-0.44637,1.17202 -1.14849,2.25633 -1.43912,3.47633c-0.44528,1.86917 0.69448,4.7627 0.81935,6.35856c0.23859,3.04914 0.51252,6.90201 -2.881,8.74179c-1.41075,0.76483 -3.20415,0.18473 -4.80623,0.27708c-1.56713,0.3799 -3.08201,1.0634 -4.42356,1.95808c-8.28678,5.52648 -2.25358,15.3347 -3.62392,23.39038c-0.25699,1.51074 -0.37168,3.1988 -1.31757,4.40449c-1.27519,1.62541 -4.26071,1.30565 -5.41142,3.02143c-0.52468,0.78233 -0.33333,4.33858 -0.32995,4.85114v0.78641c0,0 0,2.5 -2.5,2.5c-2.5,0 -2.5,-2.5 -2.5,-2.5v-0.78641c0.01376,-2.53588 -0.28079,-5.43992 1.24287,-7.73138c1.19659,-1.79958 4.11358,-1.6995 5.59829,-3.26983c0.43601,-0.46116 0.22353,-1.25291 0.25524,-1.88677c0.16989,-3.39556 -0.38464,-6.32067 -0.7864,-9.61239c-0.40323,-3.30372 -0.38462,-8.5234 0.98541,-11.54918c2.2046,-4.86899 7.41047,-7.3181 12.20011,-8.53852c1.01928,0.09236 2.04993,0.45475 3.05785,0.27708c0.31193,-0.05498 0.33796,-0.56351 0.35973,-0.8795c0.15923,-2.31099 -0.65869,-4.58754 -0.88151,-6.89327c-0.35845,-3.70925 1.27992,-10.13002 3.79376,-12.94883c1.33557,-1.4976 5.78993,-2.93559 7.82551,-3.14772c1.71937,-0.17918 4.68497,1.3854 5.17894,-0.2712c0.43974,-1.47469 -0.63435,-3.01237 -1.00758,-4.50528c-1.28098,-5.12394 -2.76046,-12.81108 2.64881,-16.07966c0.16776,-0.55191 0.35926,-1.10143 0.49682,-1.64758c0.34952,-1.38772 0.35875,-2.99335 1.26166,-4.10361c0.92788,-1.14096 2.57998,-1.41393 3.84092,-2.17077c3.31035,-1.98695 9.58942,-3.13567 11.66184,-6.93355c1.2345,-2.26231 1.34892,-4.97765 2.16301,-7.4229c0,0 0.79057,-2.37171 3.16228,-1.58114c2.37171,0.79057 1.58114,3.16228 1.58114,3.16228c-0.91699,2.74751 -1.08776,5.80812 -2.55543,8.30525c-1.42457,2.42379 -5.63946,5.42406 -8.24178,6.55939c-1.74653,0.76196 -3.57831,1.34184 -5.26142,2.23521c-0.77645,0.41213 -1.87216,0.31272 -2.45034,0.97486c-0.32811,0.37575 -0.27368,0.91793 -0.25911,1.45092c0.75961,0.0256 1.99988,0.33231 2.33328,1.99932c0.42688,2.13442 -1.3763,2.78213 -1.84983,2.91396l0.32556,2.29478c0,0 0,2.5 -2.5,2.5c-1.34328,0 -1.9648,-0.72176 -2.25237,-1.38966zM295.3185,63.0629c-0.04818,0.19607 -0.04778,0.40737 -0.02474,0.63532l0.34137,-0.15128c-0.09689,-0.16442 -0.20394,-0.32523 -0.31663,-0.48404z" data-paper-data="{&quot;index&quot;:null}" fill="#ff8037" stroke="none" stroke-width="0.5"/><path d="M292.82212,50.96957c0.01719,0.14884 0.02978,0.30293 0.03392,0.46247c0.03821,1.47052 -0.16231,2.949 -0.01873,4.41299c0.32595,3.32373 3.18265,7.52197 1.29573,10.922c-2.5097,4.5222 -7.68052,2.24328 -11.56012,3.52429c-0.74711,0.24669 -1.68237,0.30605 -2.17329,0.92088c-0.69686,0.87274 -0.69384,2.12405 -1.09133,3.16774c-0.44637,1.17202 -1.14849,2.25633 -1.43912,3.47633c-0.44528,1.86917 0.69448,4.7627 0.81935,6.35856c0.23859,3.04914 0.51252,6.90201 -2.881,8.74179c-1.41075,0.76483 -3.20415,0.18472 -4.80623,0.27708c-1.56713,0.3799 -3.08201,1.0634 -4.42356,1.95808c-8.28678,5.52648 -2.25358,15.3347 -3.62392,23.39038c-0.25699,1.51074 -0.37168,3.1988 -1.31757,4.40449c-1.27519,1.62541 -4.26071,1.30564 -5.41142,3.02143c-0.52468,0.78232 -0.33333,4.33858 -0.32995,4.85114v0.78641c0,0 0,2.5 -2.5,2.5c-2.5,0 -2.5,-2.5 -2.5,-2.5v-0.78641c0.01376,-2.53587 -0.28079,-5.43992 1.24287,-7.73138c1.19659,-1.79958 4.11358,-1.6995 5.59829,-3.26983c0.43601,-0.46116 0.22353,-1.25291 0.25524,-1.88677c0.16989,-3.39557 -0.38464,-6.32067 -0.7864,-9.61239c-0.40323,-3.30372 -0.38462,-8.5234 0.98541,-11.54918c2.2046,-4.86899 7.41047,-7.3181 12.20011,-8.53851c1.01928,0.09236 2.04993,0.45475 3.05785,0.27708c0.31193,-0.05499 0.33796,-0.56351 0.35973,-0.8795c0.15923,-2.31099 -0.65869,-4.58754 -0.88151,-6.89327c-0.35845,-3.70924 1.27992,-10.13002 3.79376,-12.94883c1.33557,-1.4976 5.78993,-2.93559 7.82551,-3.14772c1.71937,-0.17918 4.68497,1.3854 5.17894,-0.2712c0.43974,-1.47469 -0.63435,-3.01237 -1.00758,-4.50528c-1.28098,-5.12394 -2.76047,-12.81108 2.64881,-16.07966c0.16776,-0.55191 0.35926,-1.10143 0.49682,-1.64758c0.34952,-1.38772 0.35875,-2.99335 1.26166,-4.10361c0.92788,-1.14096 2.57998,-1.41393 3.84092,-2.17077c3.31035,-1.98695 9.58942,-3.13567 11.66184,-6.93355c1.2345,-2.26231 1.34892,-4.97765 2.16301,-7.4229c0,0 0.79057,-2.37171 3.16228,-1.58114c2.37171,0.79057 1.58114,3.16228 1.58114,3.16228c-0.91699,2.74751 -1.08776,5.80812 -2.55543,8.30525c-1.42457,2.42379 -5.63946,5.42406 -8.24178,6.55939c-1.74653,0.76196 -3.57831,1.34184 -5.26142,2.23521c-0.77645,0.41213 -1.87216,0.31272 -2.45034,0.97486c-0.32811,0.37575 -0.27368,0.91793 -0.25911,1.45092c0.75961,0.0256 1.99988,0.33231 2.33328,1.99932c0.42688,2.13442 -1.3763,2.78213 -1.84983,2.91396l0.32556,2.29478c0,0 0,2.5 -2.5,2.5c-1.34328,0 -1.9648,-0.72176 -2.25237,-1.38966zM292.67773,49.18912c-0.04818,0.19607 -0.04778,0.40737 -0.02474,0.63532l0.34137,-0.15128c-0.09689,-0.16442 -0.20394,-0.32523 -0.31663,-0.48404z" data-paper-data="{&quot;index&quot;:null}" fill="#ff8037" stroke="none" stroke-width="0.5"/><path d="M220.63107,55.78641c-2.5,0 -2.5,-2.5 -2.5,-2.5l0.32556,-2.29478c-0.47353,-0.13183 -2.27671,-0.77954 -1.84983,-2.91396c0.3334,-1.66701 1.57367,-1.97372 2.33328,-1.99932c0.01457,-0.53299 0.06899,-1.07518 -0.25911,-1.45092c-0.57818,-0.66214 -1.67389,-0.56273 -2.45034,-0.97486c-1.68311,-0.89338 -3.51488,-1.47325 -5.26142,-2.23521c-2.60233,-1.13533 -6.81722,-4.1356 -8.24179,-6.55939c-1.46768,-2.49713 -1.63844,-5.55774 -2.55543,-8.30525c0,0 -0.79057,-2.37171 1.58114,-3.16228c2.37171,-0.79057 3.16228,1.58114 3.16228,1.58114c0.8141,2.44525 0.92852,5.16059 2.16302,7.4229c2.07242,3.79788 8.35149,4.9466 11.66184,6.93355c1.26093,0.75684 2.91304,1.02981 3.84092,2.17077c0.90291,1.11026 0.91214,2.71589 1.26166,4.10361c0.13756,0.54616 0.32906,1.09568 0.49682,1.64758c5.40928,3.26858 3.92979,10.95571 2.64881,16.07966c-0.37323,1.49291 -1.44732,3.03059 -1.00758,4.50528c0.49398,1.6566 3.45958,0.09202 5.17894,0.2712c2.03557,0.21213 6.48994,1.65011 7.82551,3.14772c2.51383,2.81881 4.15221,9.23958 3.79376,12.94883c-0.22282,2.30573 -1.04074,4.58228 -0.88151,6.89327c0.02177,0.31599 0.0478,0.82451 0.35973,0.8795c1.00792,0.17767 2.03857,-0.18472 3.05786,-0.27708c4.78964,1.22042 9.9955,3.66952 12.2001,8.53851c1.37003,3.02578 1.38864,8.24546 0.98541,11.54918c-0.40176,3.29172 -0.9563,6.21682 -0.7864,9.61239c0.03171,0.63386 -0.18077,1.4256 0.25524,1.88677c1.4847,1.57034 4.4017,1.47026 5.59829,3.26983c1.52366,2.29146 1.22911,5.19551 1.24287,7.73138v0.78641c0,0 0,2.5 -2.5,2.5c-2.5,0 -2.5,-2.5 -2.5,-2.5v-0.78641c0.00338,-0.51256 0.19473,-4.06882 -0.32994,-4.85114c-1.15071,-1.71579 -4.13624,-1.39603 -5.41142,-3.02143c-0.94589,-1.20569 -1.06058,-2.89375 -1.31758,-4.40449c-1.37034,-8.05568 4.66286,-17.86389 -3.62392,-23.39038c-1.34155,-0.89469 -2.85643,-1.57818 -4.42356,-1.95808c-1.60208,-0.09236 -3.39548,0.48774 -4.80623,-0.27708c-3.39353,-1.83978 -3.11959,-5.69265 -2.881,-8.74179c0.12487,-1.59586 1.26462,-4.48939 0.81935,-6.35856c-0.29063,-1.22 -0.99274,-2.30431 -1.43912,-3.47633c-0.39749,-1.04369 -0.39447,-2.295 -1.09133,-3.16774c-0.49092,-0.61483 -1.42619,-0.67419 -2.17329,-0.92088c-3.8796,-1.28101 -9.05042,0.99792 -11.56012,-3.52429c-1.88692,-3.40002 0.96978,-7.59826 1.29573,-10.922c0.14357,-1.46399 -0.05695,-2.94248 -0.01873,-4.41299c0.00414,-0.15954 0.01673,-0.31363 0.03392,-0.46247c-0.28757,0.6679 -0.90909,1.38966 -2.25236,1.38966zM222.71119,53.10034l0.34137,0.15128c0.02304,-0.22795 0.02344,-0.43926 -0.02474,-0.63532c-0.11269,0.15881 -0.21974,0.31962 -0.31663,0.48404z" fill="#ff8037" stroke="none" stroke-width="0.5"/><path d="M287.54057,72.76568c0.01718,0.14884 0.02978,0.30293 0.03392,0.46247c0.03821,1.47052 -0.16231,2.949 -0.01873,4.41299c0.32595,3.32373 3.18265,7.52197 1.29573,10.922c-2.5097,4.5222 -7.68052,2.24328 -11.56012,3.52429c-0.7471,0.24669 -1.68237,0.30605 -2.17329,0.92088c-0.69686,0.87274 -0.69384,2.12405 -1.09133,3.16774c-0.44637,1.17202 -1.14849,2.25633 -1.43912,3.47633c-0.44528,1.86917 0.69448,4.7627 0.81935,6.35856c0.23858,3.04914 0.51252,6.90201 -2.881,8.74179c-1.41075,0.76483 -3.20415,0.18473 -4.80623,0.27708c-1.56713,0.3799 -3.08201,1.0634 -4.42356,1.95808c-8.28678,5.52648 -2.25358,15.3347 -3.62392,23.39038c-0.25699,1.51074 -0.37168,3.1988 -1.31757,4.40449c-1.27519,1.62541 -4.26071,1.30565 -5.41142,3.02143c-0.52468,0.78233 -0.33333,4.33858 -0.32995,4.85114v0.78641c0,0 0,2.5 -2.5,2.5c-2.5,0 -2.5,-2.5 -2.5,-2.5v-0.78641c0.01376,-2.53588 -0.28079,-5.43992 1.24287,-7.73138c1.19659,-1.79958 4.11358,-1.6995 5.59829,-3.26983c0.43601,-0.46116 0.22353,-1.25291 0.25524,-1.88677c0.16989,-3.39556 -0.38464,-6.32067 -0.7864,-9.61239c-0.40323,-3.30372 -0.38462,-8.5234 0.98541,-11.54918c2.2046,-4.86899 7.41047,-7.3181 12.20011,-8.53852c1.01928,0.09236 2.04993,0.45475 3.05785,0.27708c0.31193,-0.05498 0.33796,-0.56351 0.35973,-0.8795c0.15923,-2.31099 -0.65869,-4.58754 -0.88151,-6.89327c-0.35846,-3.70925 1.27992,-10.13002 3.79376,-12.94883c1.33557,-1.4976 5.78993,-2.93559 7.82551,-3.14772c1.71937,-0.17918 4.68497,1.3854 5.17895,-0.2712c0.43973,-1.47469 -0.63435,-3.01237 -1.00758,-4.50528c-1.28098,-5.12394 -2.76047,-12.81108 2.64881,-16.07966c0.16777,-0.55191 0.35926,-1.10143 0.49682,-1.64758c0.34952,-1.38772 0.35875,-2.99335 1.26166,-4.10361c0.92788,-1.14096 2.57999,-1.41393 3.84092,-2.17077c3.31035,-1.98695 9.58942,-3.13567 11.66184,-6.93355c1.2345,-2.26231 1.34892,-4.97765 2.16301,-7.4229c0,0 0.79057,-2.37171 3.16228,-1.58114c2.37171,0.79057 1.58114,3.16228 1.58114,3.16228c-0.91699,2.74751 -1.08776,5.80812 -2.55543,8.30525c-1.42457,2.42379 -5.63946,5.42406 -8.24179,6.55939c-1.74653,0.76196 -3.57831,1.34184 -5.26142,2.23521c-0.77645,0.41213 -1.87216,0.31272 -2.45034,0.97486c-0.3281,0.37575 -0.27368,0.91793 -0.25911,1.45092c0.75961,0.0256 1.99988,0.33231 2.33328,1.99932c0.42688,2.13442 -1.3763,2.78213 -1.84983,2.91396l0.32556,2.29478c0,0 0,2.5 -2.5,2.5c-1.34328,0 -1.96479,-0.72176 -2.25236,-1.38966zM287.39617,70.98523c-0.04818,0.19607 -0.04778,0.40737 -0.02474,0.63532l0.34137,-0.15128c-0.09689,-0.16442 -0.20395,-0.32523 -0.31664,-0.48404z" data-paper-data="{&quot;index&quot;:null}" fill="#ff8037" stroke="none" stroke-width="0.5"/><path d="M324.22018,70.68801c0.01718,0.14884 0.02977,0.30293 0.03392,0.46247c0.03822,1.47052 -0.16231,2.949 -0.01873,4.41299c0.32596,3.32373 3.18265,7.52197 1.29573,10.922c-2.5097,4.5222 -7.68052,2.24328 -11.56012,3.52429c-0.7471,0.24669 -1.68237,0.30605 -2.17329,0.92088c-0.69686,0.87274 -0.69384,2.12405 -1.09133,3.16774c-0.44637,1.17202 -1.14849,2.25633 -1.43912,3.47633c-0.44528,1.86917 0.69448,4.7627 0.81935,6.35856c0.23859,3.04914 0.51252,6.90201 -2.881,8.74179c-1.41075,0.76483 -3.20415,0.18472 -4.80623,0.27708c-1.56713,0.3799 -3.08201,1.0634 -4.42356,1.95808c-8.28678,5.52648 -2.25359,15.3347 -3.62392,23.39038c-0.25699,1.51074 -0.37168,3.1988 -1.31758,4.40449c-1.27518,1.62541 -4.26071,1.30564 -5.41142,3.02143c-0.52468,0.78232 -0.33332,4.33858 -0.32994,4.85114v0.78641c0,0 0,2.5 -2.5,2.5c-2.5,0 -2.5,-2.5 -2.5,-2.5v-0.78641c0.01376,-2.53588 -0.28079,-5.43992 1.24287,-7.73138c1.19659,-1.79958 4.11358,-1.6995 5.59829,-3.26983c0.43601,-0.46116 0.22353,-1.25291 0.25524,-1.88677c0.16989,-3.39557 -0.38464,-6.32067 -0.7864,-9.61239c-0.40323,-3.30372 -0.38462,-8.5234 0.98541,-11.54918c2.2046,-4.86899 7.41047,-7.3181 12.20011,-8.53851c1.01928,0.09236 2.04994,0.45475 3.05786,0.27708c0.31193,-0.05499 0.33796,-0.56351 0.35973,-0.8795c0.15923,-2.31099 -0.65869,-4.58754 -0.88151,-6.89327c-0.35845,-3.70925 1.27993,-10.13002 3.79376,-12.94883c1.33557,-1.4976 5.78993,-2.93559 7.82551,-3.14772c1.71937,-0.17918 4.68497,1.3854 5.17894,-0.2712c0.43974,-1.47469 -0.63435,-3.01237 -1.00758,-4.50528c-1.28098,-5.12394 -2.76046,-12.81108 2.64881,-16.07966c0.16777,-0.55191 0.35926,-1.10143 0.49682,-1.64758c0.34952,-1.38772 0.35875,-2.99335 1.26166,-4.10361c0.92788,-1.14096 2.57999,-1.41393 3.84092,-2.17077c3.31035,-1.98695 9.58942,-3.13567 11.66184,-6.93355c1.2345,-2.26231 1.34892,-4.97765 2.16301,-7.4229c0,0 0.79057,-2.37171 3.16228,-1.58114c2.37171,0.79057 1.58114,3.16228 1.58114,3.16228c-0.91699,2.74751 -1.08776,5.80812 -2.55543,8.30525c-1.42457,2.42379 -5.63946,5.42406 -8.24178,6.55939c-1.74653,0.76196 -3.57831,1.34184 -5.26142,2.23521c-0.77645,0.41213 -1.87216,0.31272 -2.45034,0.97486c-0.3281,0.37575 -0.27368,0.91793 -0.25911,1.45092c0.75961,0.0256 1.99987,0.33231 2.33327,1.99932c0.42688,2.13442 -1.3763,2.78213 -1.84983,2.91396l0.32556,2.29478c0,0 0,2.5 -2.5,2.5c-1.34327,0 -1.96479,-0.72176 -2.25236,-1.38966zM324.07579,68.90756c-0.04818,0.19607 -0.04778,0.40737 -0.02474,0.63532l0.34138,-0.15128c-0.09689,-0.16442 -0.20395,-0.32523 -0.31664,-0.48404z" data-paper-data="{&quot;index&quot;:null}" fill="#ff8037" stroke="none" stroke-width="0.5"/><path d="M254.73474,59.95986c0.01718,0.14884 0.02977,0.30293 0.03392,0.46247c0.03822,1.47052 -0.16231,2.949 -0.01873,4.41299c0.32596,3.32373 3.18265,7.52197 1.29573,10.922c-2.5097,4.5222 -7.68052,2.24328 -11.56012,3.52429c-0.7471,0.24669 -1.68237,0.30605 -2.17329,0.92088c-0.69686,0.87274 -0.69384,2.12405 -1.09133,3.16774c-0.44637,1.17202 -1.14849,2.25633 -1.43912,3.47633c-0.44528,1.86917 0.69448,4.7627 0.81935,6.35856c0.23859,3.04914 0.51252,6.90201 -2.881,8.74179c-1.41075,0.76483 -3.20415,0.18473 -4.80623,0.27708c-1.56713,0.3799 -3.08201,1.0634 -4.42356,1.95808c-8.28678,5.52648 -2.25358,15.33471 -3.62392,23.39038c-0.25699,1.51074 -0.37168,3.1988 -1.31757,4.40449c-1.27519,1.62541 -4.26071,1.30565 -5.41142,3.02143c-0.52468,0.78233 -0.33333,4.33858 -0.32995,4.85114v0.78641c0,0 0,2.5 -2.5,2.5c-2.5,0 -2.5,-2.5 -2.5,-2.5v-0.78641c0.01376,-2.53588 -0.28079,-5.43992 1.24287,-7.73138c1.19659,-1.79958 4.11358,-1.6995 5.59829,-3.26983c0.43601,-0.46116 0.22353,-1.25291 0.25524,-1.88677c0.16989,-3.39556 -0.38464,-6.32067 -0.7864,-9.61239c-0.40323,-3.30372 -0.38462,-8.5234 0.98541,-11.54918c2.2046,-4.86899 7.41047,-7.3181 12.20011,-8.53852c1.01928,0.09236 2.04993,0.45475 3.05785,0.27708c0.31193,-0.05498 0.33796,-0.56351 0.35973,-0.8795c0.15923,-2.31099 -0.65869,-4.58754 -0.88151,-6.89327c-0.35845,-3.70925 1.27992,-10.13002 3.79376,-12.94883c1.33557,-1.4976 5.78993,-2.93559 7.82551,-3.14772c1.71937,-0.17918 4.68497,1.3854 5.17895,-0.2712c0.43973,-1.47469 -0.63435,-3.01237 -1.00758,-4.50528c-1.28098,-5.12394 -2.76046,-12.81108 2.64881,-16.07966c0.16777,-0.55191 0.35926,-1.10143 0.49682,-1.64758c0.34952,-1.38772 0.35875,-2.99335 1.26166,-4.10361c0.92788,-1.14096 2.57998,-1.41393 3.84092,-2.17077c3.31035,-1.98695 9.58942,-3.13567 11.66184,-6.93355c1.2345,-2.26231 1.34892,-4.97765 2.16301,-7.4229c0,0 0.79057,-2.37171 3.16228,-1.58114c2.37171,0.79057 1.58114,3.16228 1.58114,3.16228c-0.91699,2.74751 -1.08776,5.80812 -2.55543,8.30525c-1.42457,2.42379 -5.63946,5.42406 -8.24178,6.55939c-1.74653,0.76196 -3.57831,1.34184 -5.26142,2.23521c-0.77645,0.41213 -1.87216,0.31272 -2.45034,0.97486c-0.32811,0.37575 -0.27368,0.91793 -0.25911,1.45092c0.75961,0.0256 1.99988,0.33231 2.33328,1.99932c0.42688,2.13442 -1.3763,2.78213 -1.84983,2.91396l0.32556,2.29478c0,0 0,2.5 -2.5,2.5c-1.34328,0 -1.96479,-0.72176 -2.25236,-1.38966zM254.59035,58.17941c-0.04818,0.19607 -0.04778,0.40737 -0.02474,0.63532l0.34138,-0.15128c-0.09689,-0.16442 -0.20395,-0.32523 -0.31664,-0.48404z" data-paper-data="{&quot;index&quot;:null}" fill="#ff8037" stroke="none" stroke-width="0.5"/><path d="M224.11651,60.05825c-2.5,0 -2.5,-2.5 -2.5,-2.5l0.32556,-2.29478c-0.47353,-0.13183 -2.27671,-0.77954 -1.84983,-2.91396c0.3334,-1.66701 1.57367,-1.97372 2.33327,-1.99932c0.01457,-0.53299 0.06899,-1.07518 -0.25911,-1.45092c-0.57818,-0.66214 -1.67389,-0.56273 -2.45034,-0.97486c-1.68311,-0.89338 -3.51488,-1.47325 -5.26142,-2.23521c-2.60233,-1.13533 -6.81722,-4.1356 -8.24179,-6.55939c-1.46768,-2.49713 -1.63844,-5.55774 -2.55543,-8.30525c0,0 -0.79057,-2.37171 1.58114,-3.16228c2.37171,-0.79057 3.16228,1.58114 3.16228,1.58114c0.8141,2.44525 0.92852,5.16059 2.16302,7.4229c2.07242,3.79788 8.35149,4.9466 11.66184,6.93355c1.26093,0.75684 2.91304,1.02981 3.84092,2.17077c0.90291,1.11026 0.91214,2.71589 1.26166,4.10361c0.13756,0.54616 0.32905,1.09568 0.49682,1.64758c5.40927,3.26858 3.9298,10.95571 2.64881,16.07966c-0.37323,1.49291 -1.44732,3.03059 -1.00758,4.50528c0.49398,1.6566 3.45958,0.09202 5.17894,0.2712c2.03557,0.21213 6.48994,1.65011 7.82551,3.14772c2.51383,2.81881 4.15221,9.23958 3.79376,12.94883c-0.22282,2.30573 -1.04074,4.58228 -0.88151,6.89327c0.02177,0.31599 0.0478,0.82451 0.35973,0.8795c1.00792,0.17767 2.03857,-0.18472 3.05785,-0.27708c4.78964,1.22042 9.99551,3.66952 12.20011,8.53851c1.37003,3.02578 1.38864,8.24546 0.98541,11.54918c-0.40176,3.29172 -0.9563,6.21682 -0.7864,9.61239c0.03171,0.63386 -0.18077,1.4256 0.25524,1.88677c1.48471,1.57034 4.4017,1.47026 5.59829,3.26983c1.52366,2.29146 1.22911,5.19551 1.24287,7.73138v0.78641c0,0 0,2.5 -2.5,2.5c-2.5,0 -2.5,-2.5 -2.5,-2.5v-0.78641c0.00338,-0.51256 0.19473,-4.06882 -0.32995,-4.85114c-1.15071,-1.71579 -4.13623,-1.39603 -5.41142,-3.02144c-0.94589,-1.20569 -1.06058,-2.89375 -1.31757,-4.40449c-1.37034,-8.05568 4.66285,-17.8639 -3.62392,-23.39038c-1.34155,-0.89469 -2.85643,-1.57818 -4.42356,-1.95808c-1.60208,-0.09236 -3.39548,0.48774 -4.80623,-0.27708c-3.39352,-1.83978 -3.11959,-5.69265 -2.881,-8.74179c0.12487,-1.59586 1.26463,-4.48939 0.81935,-6.35856c-0.29063,-1.22 -0.99274,-2.30431 -1.43912,-3.47633c-0.39749,-1.04369 -0.39447,-2.295 -1.09133,-3.16774c-0.49092,-0.61483 -1.42619,-0.67419 -2.17329,-0.92088c-3.8796,-1.28101 -9.05042,0.99792 -11.56012,-3.52429c-1.88692,-3.40002 0.96978,-7.59826 1.29573,-10.922c0.14357,-1.46399 -0.05695,-2.94248 -0.01873,-4.41299c0.00414,-0.15954 0.01673,-0.31363 0.03392,-0.46247c-0.28757,0.6679 -0.90909,1.38966 -2.25236,1.38966zM226.19663,57.37219l0.34138,0.15128c0.02304,-0.22795 0.02344,-0.43926 -0.02474,-0.63532c-0.11269,0.15881 -0.21974,0.31962 -0.31664,0.48404z" fill="#ff8037" stroke="none" stroke-width="0.5"/><path d="M205.52427,64.27184c-2.5,0 -2.5,-2.5 -2.5,-2.5l0.32556,-2.29478c-0.47353,-0.13183 -2.27672,-0.77954 -1.84983,-2.91396c0.3334,-1.66701 1.57367,-1.97372 2.33327,-1.99932c0.01457,-0.53299 0.06899,-1.07518 -0.25911,-1.45092c-0.57818,-0.66214 -1.6739,-0.56273 -2.45035,-0.97486c-1.68311,-0.89338 -3.51488,-1.47325 -5.26142,-2.23521c-2.60233,-1.13533 -6.81722,-4.1356 -8.24179,-6.55939c-1.46768,-2.49713 -1.63844,-5.55774 -2.55543,-8.30525c0,0 -0.79057,-2.37171 1.58114,-3.16228c2.37171,-0.79057 3.16228,1.58114 3.16228,1.58114c0.8141,2.44525 0.92852,5.16059 2.16302,7.4229c2.07242,3.79788 8.35149,4.9466 11.66184,6.93355c1.26093,0.75684 2.91304,1.02981 3.84092,2.17077c0.90291,1.11026 0.91214,2.71589 1.26166,4.10361c0.13756,0.54616 0.32905,1.09568 0.49682,1.64758c5.40927,3.26858 3.9298,10.95571 2.64881,16.07966c-0.37323,1.49291 -1.44732,3.03059 -1.00758,4.50528c0.49398,1.6566 3.45958,0.09202 5.17894,0.2712c2.03557,0.21213 6.48994,1.65011 7.82551,3.14772c2.51383,2.81881 4.15221,9.23958 3.79376,12.94883c-0.22282,2.30573 -1.04074,4.58228 -0.88151,6.89327c0.02177,0.31599 0.0478,0.82451 0.35973,0.8795c1.00792,0.17766 2.03857,-0.18473 3.05785,-0.27708c4.78964,1.22042 9.9955,3.66952 12.20011,8.53851c1.37003,3.02578 1.38864,8.24547 0.98541,11.54919c-0.40176,3.29172 -0.9563,6.21682 -0.7864,9.61238c0.03171,0.63386 -0.18077,1.4256 0.25524,1.88677c1.4847,1.57034 4.4017,1.47026 5.59829,3.26983c1.52366,2.29146 1.22911,5.19551 1.24287,7.73138v0.78641c0,0 0,2.5 -2.5,2.5c-2.5,0 -2.5,-2.5 -2.5,-2.5v-0.78641c0.00338,-0.51256 0.19473,-4.06882 -0.32994,-4.85114c-1.15071,-1.71579 -4.13624,-1.39603 -5.41142,-3.02143c-0.94589,-1.20569 -1.06058,-2.89375 -1.31758,-4.40449c-1.37034,-8.05567 4.66286,-17.86389 -3.62392,-23.39038c-1.34155,-0.89468 -2.85643,-1.57818 -4.42356,-1.95808c-1.60208,-0.09236 -3.39548,0.48774 -4.80623,-0.27708c-3.39352,-1.83978 -3.11959,-5.69266 -2.881,-8.74179c0.12487,-1.59586 1.26463,-4.48939 0.81935,-6.35856c-0.29063,-1.22 -0.99274,-2.30431 -1.43912,-3.47633c-0.39749,-1.04369 -0.39447,-2.295 -1.09133,-3.16774c-0.49092,-0.61483 -1.42619,-0.67419 -2.17329,-0.92088c-3.8796,-1.28101 -9.05042,0.99792 -11.56012,-3.52429c-1.88692,-3.40002 0.96978,-7.59826 1.29573,-10.922c0.14357,-1.46399 -0.05695,-2.94248 -0.01873,-4.41299c0.00414,-0.15954 0.01673,-0.31363 0.03392,-0.46247c-0.28757,0.6679 -0.90909,1.38966 -2.25236,1.38966zM207.6044,61.58578l0.34138,0.15128c0.02304,-0.22795 0.02344,-0.43926 -0.02474,-0.63532c-0.11269,0.15881 -0.21974,0.31962 -0.31664,0.48404z" fill="#ff8037" stroke="none" stroke-width="0.5"/><path d="M216.02913,62.19417c-2.5,0 -2.5,-2.5 -2.5,-2.5l0.32556,-2.29478c-0.47353,-0.13183 -2.27672,-0.77954 -1.84983,-2.91396c0.3334,-1.66701 1.57367,-1.97372 2.33327,-1.99932c0.01457,-0.53299 0.06899,-1.07518 -0.25911,-1.45092c-0.57818,-0.66214 -1.6739,-0.56273 -2.45035,-0.97486c-1.68311,-0.89338 -3.51488,-1.47325 -5.26142,-2.23521c-2.60233,-1.13533 -6.81722,-4.1356 -8.24179,-6.55939c-1.46768,-2.49713 -1.63844,-5.55774 -2.55543,-8.30525c0,0 -0.79057,-2.37171 1.58114,-3.16228c2.37171,-0.79057 3.16228,1.58114 3.16228,1.58114c0.8141,2.44525 0.92852,5.16059 2.16302,7.4229c2.07242,3.79788 8.35149,4.9466 11.66184,6.93355c1.26093,0.75684 2.91304,1.02981 3.84092,2.17077c0.90291,1.11026 0.91214,2.71589 1.26166,4.10361c0.13756,0.54616 0.32905,1.09568 0.49682,1.64758c5.40927,3.26858 3.9298,10.95571 2.64881,16.07966c-0.37323,1.49291 -1.44732,3.03059 -1.00758,4.50528c0.49398,1.6566 3.45958,0.09202 5.17894,0.2712c2.03557,0.21213 6.48994,1.65011 7.82551,3.14772c2.51383,2.81881 4.15221,9.23958 3.79376,12.94883c-0.22282,2.30573 -1.04074,4.58228 -0.88151,6.89327c0.02177,0.31599 0.0478,0.82451 0.35973,0.8795c1.00792,0.17767 2.03857,-0.18472 3.05785,-0.27708c4.78964,1.22042 9.99551,3.66952 12.20011,8.53851c1.37003,3.02578 1.38864,8.24547 0.98541,11.54919c-0.40176,3.29172 -0.9563,6.21682 -0.7864,9.61239c0.03171,0.63386 -0.18077,1.4256 0.25524,1.88677c1.4847,1.57034 4.40169,1.47026 5.59829,3.26983c1.52366,2.29146 1.22911,5.1955 1.24287,7.73138v0.78641c0,0 0,2.5 -2.5,2.5c-2.5,0 -2.5,-2.5 -2.5,-2.5v-0.78641c0.00338,-0.51256 0.19473,-4.06882 -0.32994,-4.85114c-1.15071,-1.71579 -4.13623,-1.39603 -5.41142,-3.02143c-0.94589,-1.20568 -1.06058,-2.89375 -1.31757,-4.40449c-1.37034,-8.05567 4.66285,-17.86389 -3.62392,-23.39038c-1.34155,-0.89468 -2.85643,-1.57818 -4.42356,-1.95808c-1.60208,-0.09236 -3.39548,0.48774 -4.80623,-0.27708c-3.39352,-1.83978 -3.11959,-5.69265 -2.881,-8.74179c0.12487,-1.59586 1.26463,-4.48939 0.81935,-6.35856c-0.29063,-1.22 -0.99274,-2.30431 -1.43912,-3.47633c-0.39749,-1.04369 -0.39447,-2.295 -1.09133,-3.16774c-0.49092,-0.61483 -1.42619,-0.67419 -2.17329,-0.92088c-3.8796,-1.28101 -9.05042,0.99792 -11.56012,-3.52429c-1.88692,-3.40002 0.96978,-7.59826 1.29573,-10.922c0.14357,-1.46399 -0.05695,-2.94248 -0.01873,-4.41299c0.00414,-0.15954 0.01673,-0.31363 0.03392,-0.46247c-0.28757,0.6679 -0.90909,1.38966 -2.25236,1.38966zM218.10925,59.50811l0.34138,0.15128c0.02304,-0.22795 0.02344,-0.43926 -0.02474,-0.63532c-0.11269,0.15881 -0.21974,0.31962 -0.31664,0.48404z" fill="#ff8037" stroke="none" stroke-width="0.5"/><path d="M186.42719,60.1165c-2.5,0 -2.5,-2.5 -2.5,-2.5l0.32556,-2.29478c-0.47353,-0.13183 -2.27672,-0.77954 -1.84983,-2.91396c0.3334,-1.66701 1.57367,-1.97372 2.33327,-1.99932c0.01457,-0.53299 0.06899,-1.07518 -0.25911,-1.45092c-0.57818,-0.66214 -1.6739,-0.56273 -2.45035,-0.97486c-1.68311,-0.89338 -3.51488,-1.47325 -5.26142,-2.23521c-2.60233,-1.13533 -6.81722,-4.1356 -8.24179,-6.55939c-1.46768,-2.49713 -1.63844,-5.55774 -2.55543,-8.30525c0,0 -0.79057,-2.37171 1.58114,-3.16228c2.37171,-0.79057 3.16228,1.58114 3.16228,1.58114c0.8141,2.44525 0.92852,5.16059 2.16302,7.4229c2.07242,3.79788 8.35149,4.9466 11.66184,6.93355c1.26093,0.75684 2.91304,1.02981 3.84092,2.17077c0.90291,1.11026 0.91214,2.71589 1.26166,4.10361c0.13756,0.54616 0.32905,1.09568 0.49682,1.64758c5.40927,3.26858 3.9298,10.95571 2.64881,16.07966c-0.37323,1.49291 -1.44732,3.03059 -1.00758,4.50528c0.49398,1.6566 3.45958,0.09202 5.17894,0.2712c2.03557,0.21213 6.48994,1.65011 7.82551,3.14772c2.51383,2.81881 4.15221,9.23958 3.79376,12.94883c-0.22282,2.30573 -1.04074,4.58228 -0.88151,6.89327c0.02177,0.31599 0.0478,0.82451 0.35973,0.8795c1.00792,0.17767 2.03857,-0.18472 3.05785,-0.27708c4.78964,1.22042 9.99551,3.66952 12.2001,8.53852c1.37003,3.02578 1.38864,8.24546 0.98541,11.54918c-0.40176,3.29172 -0.9563,6.21682 -0.7864,9.61239c0.03171,0.63386 -0.18077,1.42561 0.25524,1.88677c1.48471,1.57034 4.4017,1.47026 5.59829,3.26983c1.52366,2.29146 1.2291,5.19551 1.24287,7.73138v0.78641c0,0 0,2.5 -2.5,2.5c-2.5,0 -2.5,-2.5 -2.5,-2.5v-0.78641c0.00338,-0.51256 0.19473,-4.06882 -0.32995,-4.85114c-1.15071,-1.71579 -4.13623,-1.39603 -5.41142,-3.02143c-0.94589,-1.20569 -1.06058,-2.89375 -1.31757,-4.40449c-1.37034,-8.05568 4.66285,-17.8639 -3.62392,-23.39038c-1.34155,-0.89469 -2.85643,-1.57818 -4.42356,-1.95808c-1.60208,-0.09236 -3.39548,0.48774 -4.80623,-0.27708c-3.39352,-1.83978 -3.11959,-5.69265 -2.881,-8.74179c0.12487,-1.59586 1.26463,-4.48939 0.81935,-6.35856c-0.29063,-1.22 -0.99274,-2.30431 -1.43912,-3.47633c-0.39749,-1.04369 -0.39447,-2.295 -1.09133,-3.16774c-0.49092,-0.61483 -1.42619,-0.67419 -2.17329,-0.92088c-3.8796,-1.28101 -9.05042,0.99792 -11.56012,-3.52429c-1.88692,-3.40002 0.96978,-7.59826 1.29573,-10.922c0.14357,-1.46399 -0.05695,-2.94248 -0.01873,-4.41299c0.00414,-0.15954 0.01673,-0.31363 0.03392,-0.46247c-0.28757,0.6679 -0.90909,1.38966 -2.25236,1.38966zM188.50731,57.43044l0.34138,0.15128c0.02304,-0.22795 0.02344,-0.43926 -0.02474,-0.63532c-0.11269,0.15881 -0.21974,0.31962 -0.31664,0.48404z" fill="#ff8037" stroke="none" stroke-width="0.5"/><path d="M229.96117,58.82524c-2.5,0 -2.5,-2.5 -2.5,-2.5l0.32556,-2.29478c-0.47353,-0.13183 -2.27672,-0.77954 -1.84983,-2.91396c0.3334,-1.66701 1.57367,-1.97372 2.33327,-1.99932c0.01457,-0.53299 0.06899,-1.07518 -0.25911,-1.45092c-0.57818,-0.66214 -1.6739,-0.56273 -2.45035,-0.97486c-1.68311,-0.89338 -3.51488,-1.47325 -5.26142,-2.23521c-2.60233,-1.13533 -6.81722,-4.1356 -8.24179,-6.55939c-1.46767,-2.49713 -1.63844,-5.55774 -2.55543,-8.30525c0,0 -0.79057,-2.37171 1.58114,-3.16228c2.37171,-0.79057 3.16228,1.58114 3.16228,1.58114c0.8141,2.44525 0.92852,5.16059 2.16302,7.4229c2.07242,3.79788 8.35149,4.9466 11.66184,6.93355c1.26093,0.75684 2.91304,1.02981 3.84092,2.17077c0.90291,1.11026 0.91214,2.71589 1.26166,4.10361c0.13756,0.54616 0.32905,1.09568 0.49682,1.64758c5.40927,3.26858 3.9298,10.95571 2.64881,16.07966c-0.37323,1.49291 -1.44732,3.03059 -1.00758,4.50528c0.49398,1.6566 3.45958,0.09202 5.17894,0.2712c2.03557,0.21213 6.48994,1.65011 7.82551,3.14772c2.51383,2.81881 4.15221,9.23958 3.79376,12.94883c-0.22282,2.30573 -1.04074,4.58228 -0.88151,6.89327c0.02177,0.31599 0.0478,0.82451 0.35973,0.8795c1.00792,0.17767 2.03857,-0.18472 3.05786,-0.27708c4.78963,1.22042 9.9955,3.66952 12.20011,8.53851c1.37003,3.02578 1.38864,8.24547 0.98541,11.54919c-0.40176,3.29172 -0.9563,6.21682 -0.7864,9.61239c0.03171,0.63386 -0.18077,1.4256 0.25524,1.88677c1.4847,1.57034 4.4017,1.47026 5.59829,3.26983c1.52366,2.29146 1.22911,5.1955 1.24287,7.73138v0.78641c0,0 0,2.5 -2.5,2.5c-2.5,0 -2.5,-2.5 -2.5,-2.5v-0.78641c0.00338,-0.51256 0.19473,-4.06882 -0.32994,-4.85114c-1.15071,-1.71579 -4.13624,-1.39603 -5.41142,-3.02143c-0.94589,-1.20569 -1.06058,-2.89375 -1.31758,-4.40449c-1.37034,-8.05568 4.66286,-17.8639 -3.62392,-23.39038c-1.34155,-0.89468 -2.85643,-1.57818 -4.42356,-1.95808c-1.60208,-0.09236 -3.39548,0.48774 -4.80623,-0.27708c-3.39352,-1.83978 -3.11959,-5.69265 -2.881,-8.74179c0.12487,-1.59586 1.26463,-4.48939 0.81935,-6.35856c-0.29063,-1.22 -0.99274,-2.30431 -1.43912,-3.47633c-0.39749,-1.04369 -0.39447,-2.295 -1.09133,-3.16774c-0.49092,-0.61483 -1.42619,-0.67419 -2.17329,-0.92088c-3.8796,-1.28101 -9.05042,0.99792 -11.56012,-3.52429c-1.88692,-3.40002 0.96978,-7.59826 1.29573,-10.922c0.14357,-1.46399 -0.05695,-2.94248 -0.01873,-4.41299c0.00414,-0.15954 0.01673,-0.31363 0.03392,-0.46247c-0.28757,0.6679 -0.90909,1.38966 -2.25236,1.38966zM232.04129,56.13918l0.34138,0.15128c0.02304,-0.22795 0.02344,-0.43926 -0.02474,-0.63532c-0.11269,0.15881 -0.21974,0.31962 -0.31664,0.48404z" fill="#ff8037" stroke="none" stroke-width="0.5"/><path d="M205.07767,60.67961c-2.5,0 -2.5,-2.5 -2.5,-2.5l0.32556,-2.29478c-0.47353,-0.13183 -2.27672,-0.77954 -1.84983,-2.91396c0.3334,-1.66701 1.57367,-1.97372 2.33327,-1.99932c0.01457,-0.53299 0.06899,-1.07518 -0.25911,-1.45092c-0.57818,-0.66214 -1.6739,-0.56273 -2.45035,-0.97486c-1.68311,-0.89338 -3.51488,-1.47325 -5.26142,-2.23521c-2.60233,-1.13533 -6.81722,-4.1356 -8.24179,-6.55939c-1.46767,-2.49713 -1.63844,-5.55774 -2.55543,-8.30525c0,0 -0.79057,-2.37171 1.58114,-3.16228c2.37171,-0.79057 3.16228,1.58114 3.16228,1.58114c0.8141,2.44525 0.92852,5.16059 2.16302,7.4229c2.07242,3.79788 8.35149,4.9466 11.66184,6.93355c1.26093,0.75684 2.91304,1.02981 3.84092,2.17077c0.90291,1.11026 0.91214,2.71589 1.26166,4.10361c0.13756,0.54616 0.32905,1.09568 0.49682,1.64758c5.40927,3.26858 3.9298,10.95571 2.64881,16.07966c-0.37323,1.49291 -1.44732,3.03059 -1.00758,4.50528c0.49398,1.6566 3.45958,0.09202 5.17894,0.2712c2.03557,0.21213 6.48994,1.65011 7.82551,3.14772c2.51383,2.81881 4.15221,9.23958 3.79376,12.94883c-0.22282,2.30573 -1.04074,4.58228 -0.88151,6.89327c0.02177,0.31599 0.0478,0.82451 0.35973,0.8795c1.00792,0.17767 2.03857,-0.18472 3.05785,-0.27708c4.78964,1.22042 9.99551,3.66952 12.20011,8.53851c1.37003,3.02578 1.38864,8.24546 0.98541,11.54918c-0.40176,3.29172 -0.9563,6.21682 -0.7864,9.61239c0.03171,0.63386 -0.18077,1.4256 0.25524,1.88677c1.4847,1.57034 4.4017,1.47026 5.59829,3.26983c1.52366,2.29146 1.22911,5.1955 1.24287,7.73138v0.78641c0,0 0,2.5 -2.5,2.5c-2.5,0 -2.5,-2.5 -2.5,-2.5v-0.78641c0.00338,-0.51256 0.19473,-4.06882 -0.32994,-4.85114c-1.15071,-1.71579 -4.13624,-1.39603 -5.41142,-3.02143c-0.94589,-1.20569 -1.06058,-2.89375 -1.31757,-4.40449c-1.37034,-8.05568 4.66286,-17.8639 -3.62392,-23.39038c-1.34155,-0.89469 -2.85643,-1.57818 -4.42356,-1.95808c-1.60208,-0.09236 -3.39548,0.48774 -4.80623,-0.27708c-3.39352,-1.83978 -3.11959,-5.69265 -2.881,-8.74179c0.12487,-1.59586 1.26463,-4.48939 0.81935,-6.35856c-0.29063,-1.22 -0.99274,-2.30431 -1.43912,-3.47633c-0.39749,-1.04369 -0.39447,-2.295 -1.09133,-3.16774c-0.49092,-0.61483 -1.42619,-0.67419 -2.17329,-0.92088c-3.8796,-1.28101 -9.05042,0.99792 -11.56012,-3.52429c-1.88692,-3.40002 0.96978,-7.59826 1.29573,-10.922c0.14357,-1.46399 -0.05695,-2.94248 -0.01873,-4.41299c0.00414,-0.15954 0.01673,-0.31363 0.03392,-0.46247c-0.28757,0.6679 -0.90909,1.38966 -2.25236,1.38966zM207.1578,57.99355l0.34138,0.15128c0.02304,-0.22795 0.02344,-0.43926 -0.02474,-0.63532c-0.11269,0.15881 -0.21974,0.31962 -0.31664,0.48404z" fill="#ff8037" stroke="none" stroke-width="0.5"/><path d="M193.56311,61.74757c-2.5,0 -2.5,-2.5 -2.5,-2.5l0.32556,-2.29478c-0.47353,-0.13183 -2.27672,-0.77954 -1.84983,-2.91396c0.3334,-1.66701 1.57367,-1.97372 2.33327,-1.99932c0.01457,-0.53299 0.06899,-1.07518 -0.25911,-1.45092c-0.57818,-0.66214 -1.6739,-0.56273 -2.45035,-0.97486c-1.68311,-0.89338 -3.51488,-1.47325 -5.26142,-2.23521c-2.60233,-1.13533 -6.81722,-4.1356 -8.24179,-6.55939c-1.46767,-2.49713 -1.63844,-5.55774 -2.55543,-8.30525c0,0 -0.79057,-2.37171 1.58114,-3.16228c2.37171,-0.79057 3.16228,1.58114 3.16228,1.58114c0.8141,2.44525 0.92852,5.16059 2.16302,7.4229c2.07242,3.79788 8.35149,4.9466 11.66184,6.93355c1.26093,0.75684 2.91304,1.02981 3.84092,2.17077c0.90291,1.11026 0.91214,2.71589 1.26166,4.10361c0.13756,0.54616 0.32905,1.09568 0.49682,1.64758c5.40927,3.26858 3.9298,10.95571 2.64881,16.07966c-0.37323,1.49291 -1.44732,3.03059 -1.00758,4.50528c0.49398,1.6566 3.45958,0.09202 5.17894,0.2712c2.03557,0.21213 6.48994,1.65011 7.82551,3.14772c2.51383,2.81881 4.15221,9.23958 3.79376,12.94883c-0.22282,2.30573 -1.04074,4.58228 -0.88151,6.89327c0.02177,0.31599 0.0478,0.82451 0.35973,0.8795c1.00792,0.17767 2.03857,-0.18472 3.05785,-0.27708c4.78964,1.22042 9.99551,3.66952 12.20011,8.53851c1.37003,3.02578 1.38864,8.24547 0.98541,11.54919c-0.40176,3.29172 -0.9563,6.21682 -0.7864,9.61239c0.03171,0.63386 -0.18077,1.4256 0.25524,1.88677c1.4847,1.57034 4.4017,1.47025 5.59829,3.26983c1.52366,2.29146 1.22911,5.19551 1.24287,7.73138v0.78641c0,0 0,2.5 -2.5,2.5c-2.5,0 -2.5,-2.5 -2.5,-2.5v-0.78641c0.00338,-0.51256 0.19473,-4.06882 -0.32994,-4.85114c-1.15071,-1.71579 -4.13624,-1.39603 -5.41142,-3.02143c-0.94589,-1.20569 -1.06058,-2.89375 -1.31758,-4.40449c-1.37034,-8.05568 4.66286,-17.8639 -3.62392,-23.39038c-1.34155,-0.89469 -2.85643,-1.57818 -4.42356,-1.95808c-1.60208,-0.09236 -3.39548,0.48774 -4.80623,-0.27708c-3.39352,-1.83978 -3.11959,-5.69265 -2.881,-8.74179c0.12487,-1.59586 1.26463,-4.48939 0.81935,-6.35856c-0.29063,-1.22 -0.99274,-2.30431 -1.43912,-3.47633c-0.39749,-1.04369 -0.39447,-2.295 -1.09133,-3.16774c-0.49092,-0.61483 -1.42619,-0.67419 -2.17329,-0.92088c-3.8796,-1.28101 -9.05042,0.99792 -11.56012,-3.52429c-1.88692,-3.40002 0.96978,-7.59826 1.29573,-10.922c0.14357,-1.46399 -0.05695,-2.94248 -0.01873,-4.41299c0.00414,-0.15954 0.01673,-0.31363 0.03392,-0.46247c-0.28757,0.6679 -0.90909,1.38966 -2.25236,1.38966zM195.64323,59.06151l0.34138,0.15128c0.02304,-0.22795 0.02344,-0.43926 -0.02474,-0.63532c-0.11269,0.15881 -0.21974,0.31962 -0.31664,0.48404z" fill="#ff8037" stroke="none" stroke-width="0.5"/><path d="M180.47573,71.46602c-2.5,0 -2.5,-2.5 -2.5,-2.5l0.32556,-2.29478c-0.47353,-0.13183 -2.27672,-0.77954 -1.84983,-2.91396c0.3334,-1.66701 1.57367,-1.97372 2.33327,-1.99932c0.01457,-0.53299 0.06899,-1.07518 -0.25911,-1.45092c-0.57818,-0.66214 -1.6739,-0.56273 -2.45035,-0.97486c-1.68311,-0.89338 -3.51488,-1.47325 -5.26142,-2.23521c-2.60233,-1.13533 -6.81722,-4.1356 -8.24179,-6.55939c-1.46767,-2.49713 -1.63844,-5.55774 -2.55543,-8.30525c0,0 -0.79057,-2.37171 1.58114,-3.16228c2.37171,-0.79057 3.16228,1.58114 3.16228,1.58114c0.8141,2.44525 0.92852,5.16059 2.16302,7.4229c2.07242,3.79788 8.35149,4.9466 11.66184,6.93355c1.26093,0.75684 2.91304,1.02981 3.84092,2.17077c0.90291,1.11026 0.91214,2.71589 1.26166,4.10361c0.13756,0.54616 0.32905,1.09568 0.49682,1.64758c5.40927,3.26858 3.9298,10.95571 2.64881,16.07966c-0.37323,1.49291 -1.44732,3.03059 -1.00758,4.50528c0.49398,1.6566 3.45958,0.09202 5.17894,0.2712c2.03557,0.21213 6.48994,1.65011 7.82551,3.14772c2.51383,2.81881 4.15221,9.23958 3.79376,12.94883c-0.22282,2.30573 -1.04074,4.58228 -0.88151,6.89327c0.02177,0.31599 0.0478,0.82451 0.35973,0.8795c1.00792,0.17767 2.03857,-0.18472 3.05785,-0.27708c4.78964,1.22042 9.99551,3.66952 12.2001,8.53851c1.37003,3.02578 1.38863,8.24547 0.98541,11.54919c-0.40176,3.29172 -0.9563,6.21682 -0.7864,9.61239c0.03171,0.63386 -0.18077,1.4256 0.25524,1.88677c1.48471,1.57034 4.40169,1.47025 5.59829,3.26983c1.52366,2.29146 1.22911,5.19551 1.24287,7.73138v0.78641c0,0 0,2.5 -2.5,2.5c-2.5,0 -2.5,-2.5 -2.5,-2.5v-0.78641c0.00338,-0.51256 0.19473,-4.06882 -0.32995,-4.85114c-1.15071,-1.71579 -4.13623,-1.39603 -5.41142,-3.02143c-0.94589,-1.20569 -1.06058,-2.89375 -1.31757,-4.40449c-1.37034,-8.05568 4.66285,-17.8639 -3.62392,-23.39038c-1.34155,-0.89469 -2.85644,-1.57818 -4.42357,-1.95808c-1.60207,-0.09236 -3.39548,0.48774 -4.80623,-0.27708c-3.39352,-1.83978 -3.11959,-5.69265 -2.881,-8.74179c0.12487,-1.59586 1.26463,-4.48939 0.81935,-6.35856c-0.29063,-1.22 -0.99274,-2.30431 -1.43912,-3.47633c-0.39749,-1.04369 -0.39447,-2.295 -1.09133,-3.16774c-0.49092,-0.61483 -1.42619,-0.67419 -2.17329,-0.92088c-3.8796,-1.28101 -9.05042,0.99792 -11.56012,-3.52429c-1.88692,-3.40002 0.96978,-7.59826 1.29573,-10.922c0.14357,-1.46399 -0.05695,-2.94248 -0.01873,-4.41299c0.00414,-0.15954 0.01673,-0.31363 0.03392,-0.46247c-0.28757,0.6679 -0.90909,1.38966 -2.25236,1.38966zM182.55585,68.77995l0.34138,0.15128c0.02304,-0.22795 0.02344,-0.43926 -0.02474,-0.63532c-0.11269,0.15881 -0.21974,0.31962 -0.31664,0.48404z" fill="#ff8037" stroke="none" stroke-width="0.5"/></g></g></svg>