<svg version="1.1" xmlns="http://www.w3.org/2000/svg" xmlns:xlink="http://www.w3.org/1999/xlink" width="83" height="82" viewBox="0,0,83,82"><g transform="translate(-198.5,-139)"><g data-paper-data="{&quot;isPaintingLayer&quot;:true}" fill-rule="nonzero" stroke-linecap="butt" stroke-linejoin="miter" stroke-miterlimit="10" stroke-dasharray="" stroke-dashoffset="0" style="mix-blend-mode: normal"><path d="M280.5,180c0,22.09139 -18.13247,40 -40.5,40c-22.36753,0 -40.5,-17.90861 -40.5,-40c0,-22.09139 18.13247,-40 40.5,-40c22.36753,0 40.5,17.90861 40.5,40z" fill="#ffe820" stroke="#000000" stroke-width="2"/><path d="M278.03837,167.70943c0.79057,2.37171 -1.58114,3.16228 -1.58114,3.16228l-0.55022,0.13223c-2.7124,1.31291 -1.84571,2.5807 -3.44213,5.13572c-1.24354,1.99024 -4.03637,4.79334 -5.85893,6.2763c-5.00323,4.07099 -14.01209,5.26755 -19.21191,1c-2.32935,-1.91172 -3.54198,-4.9259 -4.69191,-7.59783c0,0 -0.9848,-2.29786 1.31306,-3.28266c2.29786,-0.9848 3.28266,1.31306 3.28266,1.31306c0.74389,1.74394 1.03103,2.64776 2.08896,4.22557c4.72295,7.04386 15.576,0.83513 18.81496,-4.54709c0.91723,-1.52418 1.04603,-3.67636 2.26574,-5.02429c0.77926,-0.86119 1.97253,-1.22666 2.9588,-1.83999l1.44978,-0.53443c0,0 2.37171,-0.79057 3.16228,1.58114z" fill="#000000" stroke="none" stroke-width="0.5"/><path d="M204.81598,165.46162l1.44978,0.53444c0.98627,0.61333 2.17954,0.9788 2.9588,1.83999c1.2197,1.34794 1.34851,3.50012 2.26574,5.02429c3.23896,5.38222 14.092,11.59096 18.81496,4.5471c1.05793,-1.57781 1.34507,-2.48164 2.08896,-4.22557c0,0 0.9848,-2.29787 3.28267,-1.31306c2.29787,0.9848 1.31306,3.28266 1.31306,3.28266c-1.14992,2.67193 -2.36256,5.68611 -4.69191,7.59783c-5.19983,4.26755 -14.20869,3.07099 -19.21191,-1c-1.82256,-1.48297 -4.61539,-4.28607 -5.85893,-6.27631c-1.59642,-2.55501 -0.72973,-3.82281 -3.44213,-5.13572l-0.55022,-0.13223c0,0 -2.37171,-0.79057 -1.58114,-3.16228c0.79057,-2.37171 3.16228,-1.58114 3.16228,-1.58114z" data-paper-data="{&quot;index&quot;:null}" fill="#000000" stroke="none" stroke-width="0.5"/><path d="M264.83333,200.16667c0,2.5 -2.5,2.5 -2.5,2.5l-0.34854,-0.20214c-1.55556,0.66667 -3.05812,1.47392 -4.66667,2c-0.41956,0.13722 -1.10715,-0.20021 -1.31033,0.19168c-0.47072,0.90792 0.33104,2.29961 -0.36821,3.0459c-1.07648,1.14889 -2.75567,1.66475 -4.30545,1.94213c-2.41723,0.43264 -4.81008,-1.02156 -7.24715,-1.32307c-2.15706,-0.26687 -4.41827,0.79294 -6.5166,0.22624c-0.88089,-0.2379 -1.3233,-1.37699 -2.20051,-1.62812c-0.68304,-0.19554 -1.39587,0.26584 -2.0938,0.39876c0,0 -2.48471,0.27608 -2.76079,-2.20863c-0.27608,-2.48471 2.20863,-2.76079 2.20863,-2.76079c1.30207,-0.0893 2.63306,-0.55507 3.9062,-0.26791c0.97493,0.2199 1.51592,1.39553 2.46616,1.70521c0.5292,0.17247 5.33161,-0.45756 5.4834,-0.44043c1.13525,0.12812 2.14993,0.79451 3.26552,1.0408c0.92339,0.20385 1.87695,0.24274 2.82066,0.3028c0.34248,0.0218 0.88958,0.2562 1.02788,-0.05787c0.39886,-0.90578 -0.30409,-2.16894 0.29845,-2.9541c1.27189,-1.65735 6.03957,-2.95828 8.023,-3.80832l2.31813,-0.20214c0,0 2.5,0 2.5,2.5z" fill="#000000" stroke="none" stroke-width="0.5"/><path d="M231.11266,151.78293c1.64626,1.88144 -0.23518,3.5277 -0.23518,3.5277l-2.40106,1.99335c-4.25522,2.11718 -8.14863,4.88895 -12.40751,7.02312c0,0 -2.23607,1.11803 -3.3541,-1.11803c-1.11803,-2.23607 1.11803,-3.3541 1.11803,-3.3541c4.26337,-2.12654 8.15682,-4.88851 12.40751,-7.02312l1.3446,-1.2841c0,0 1.88144,-1.64626 3.5277,0.23518z" fill="#000000" stroke="none" stroke-width="0.5"/><path d="M265.83576,158.0153c-0.60634,2.42536 -3.0317,1.81902 -3.0317,1.81902l-1.18443,-0.30998c-5.23118,-1.90703 -10.85134,-2.72078 -16.29085,-3.88475c0,0 -2.44451,-0.52382 -1.92068,-2.96833c0.52382,-2.44451 2.96833,-1.92068 2.96833,-1.92068c5.67125,1.21692 11.49296,2.09434 16.95192,4.07479l0.6884,0.15823c0,0 2.42536,0.60634 1.81902,3.0317z" fill="#000000" stroke="none" stroke-width="0.5"/></g></g></svg>