<svg version="1.1" xmlns="http://www.w3.org/2000/svg" xmlns:xlink="http://www.w3.org/1999/xlink" width="83" height="83.86999" viewBox="0,0,83,83.86999"><g transform="translate(-198.5,-137.13001)"><g data-paper-data="{&quot;isPaintingLayer&quot;:true}" fill-rule="nonzero" stroke-linecap="butt" stroke-linejoin="miter" stroke-miterlimit="10" stroke-dasharray="" stroke-dashoffset="0" style="mix-blend-mode: normal"><path d="M280.5,180c0,22.09139 -18.13247,40 -40.5,40c-22.36753,0 -40.5,-17.90861 -40.5,-40c0,-22.09139 18.13247,-40 40.5,-40c22.36753,0 40.5,17.90861 40.5,40z" fill="#ffe820" stroke="#000000" stroke-width="2"/><path d="M265.61272,174.06792c0,5.6697 -3.87804,10.2659 -8.66185,10.2659c-4.78381,0 -8.66185,-4.5962 -8.66185,-10.2659c0,-5.6697 3.87804,-10.2659 8.66185,-10.2659c4.78381,0 8.66185,4.5962 8.66185,10.2659z" fill="#000000" stroke="#000000" stroke-width="2"/><path d="M233.85838,175.08815c0,5.6697 -3.87804,10.2659 -8.66185,10.2659c-4.78381,0 -8.66185,-4.59619 -8.66185,-10.26589c0,-5.6697 3.87804,-10.26589 8.66185,-10.26589c4.78381,0 8.66185,4.59619 8.66185,10.2659z" fill="#000000" stroke="#000000" stroke-width="2"/><path d="M224.35792,170.01786c-2.23607,1.11803 -3.3541,-1.11803 -3.3541,-1.11803l-0.07816,-0.19949c-1.50254,-2.25514 -2.88344,-4.56613 -4.27748,-6.88953c0,0 -1.28624,-2.14373 0.85749,-3.42997c2.14373,-1.28624 3.42997,0.85749 3.42997,0.85749c1.35323,2.25539 2.69053,4.50026 4.15027,6.68851l0.39005,0.73692c0,0 1.11803,2.23607 -1.11803,3.3541z" fill="#000000" stroke="none" stroke-width="0.5"/><path d="M220.55967,174.23164c-1.76777,1.76777 -3.53553,0 -3.53553,0l-0.23529,-0.26259c-2.47104,-1.9222 -4.80425,-3.84497 -7.02193,-6.05821c0,0 -1.76777,-1.76777 0,-3.53553c1.76777,-1.76777 3.53553,0 3.53553,0c2.06688,2.07138 4.24808,3.85213 6.5561,5.64699l0.70112,0.67382c0,0 1.76777,1.76777 0,3.53553z" fill="#000000" stroke="none" stroke-width="0.5"/><path d="M273.99728,170.54266c0.9848,2.29786 -1.31306,3.28266 -1.31306,3.28266l-2.17631,0.86412c-1.71676,0.31214 -3.43353,0.62428 -5.15029,0.93642c0,0 -2.45967,0.44721 -2.90689,-2.01246c-0.17702,-0.97362 0.10142,-1.63192 0.50249,-2.07198c-0.36563,0.21372 -2.16026,1.12605 -3.40039,-0.73415c-1.38675,-2.08013 0.69338,-3.46688 0.69338,-3.46688c2.34289,-1.56174 4.70925,-3.06269 7.12363,-4.51158l0.89502,-0.74486c0,0 1.95217,-1.56174 3.51391,0.39043c1.56174,1.95217 -0.39043,3.51391 -0.39043,3.51391l-1.44602,1.12798c-2.00451,1.20249 -3.97434,2.44206 -5.92519,3.72411c0.26023,-0.10009 0.44607,-0.13388 0.44607,-0.13388c1.71676,-0.31214 3.43353,-0.62428 5.15029,-0.93642l1.10114,-0.5405c0,0 2.29786,-0.9848 3.28266,1.31306z" fill="#000000" stroke="none" stroke-width="0.5"/><path d="M237.26713,205.08722c0,0 -1.92055,1.60046 -3.52101,-0.32009c-1.02399,-1.22879 -0.60663,-2.32655 -0.17312,-2.95793c0.25378,-1.11474 1.11622,-1.54263 1.74092,-1.70687c1.64048,-1.61119 3.31036,-3.54518 5.22085,-4.49807c4.29615,-2.14277 9.07758,-1.30449 13.20014,0.49225l0.22965,0.43894l0.13654,-0.13654l2,2c0,0 0,0 0,0c0.42752,0.42752 0.70092,1.00916 0.72971,1.65443c0.38084,0.37027 0.66919,0.93097 0.66919,1.78001c0,2.5 -2.5,2.5 -2.5,2.5h-1c-5.56585,0 -11.06731,0.56539 -16.61616,0.65483c-0.03897,0.0336 -0.07787,0.06663 -0.11671,0.09906z" fill="#000000" stroke="none" stroke-width="0.5"/><path d="M268.61768,150.04045c0.24879,0.18928 0.47376,0.37433 0.66493,0.552c2.47463,2.29989 4.96322,4.58065 1.70524,8.44841c-0.84275,1.00049 -2.64727,0.10288 -3.89156,0.50654c-1.56736,0.50847 -2.3886,2.33255 -3.83945,3.1137c-2.68959,1.44811 -4.63656,1.80185 -7.63155,0.90319c-2.35901,-0.70783 -4.0429,-2.91825 -5.58172,-4.84126c-0.60474,-0.75572 -1.38684,-1.35084 -2.06273,-2.04366c-0.44042,-0.45144 -1.08645,-1.67661 -1.47757,-1.18184c-0.59236,0.74935 0.17129,1.90438 0.32525,2.8471c0,6.36008 0.57609,14.33383 -4.85716,18.71065c-1.23905,0.99813 -2.41852,2.50482 -4.00712,2.59359c-1.71955,0.09609 -3.68217,-0.73008 -4.71799,-2.106c-0.9478,-1.25899 -0.32397,-3.1362 -0.4129,-4.70956c-0.1485,-2.62745 0.42411,-7.83952 -1.83062,-9.80085c-0.41376,-0.35992 -1.06017,-0.29864 -1.55783,-0.52901c-0.53939,-0.24968 -0.95559,-0.781 -1.53717,-0.90368c-0.31688,-0.06685 -0.089,5.2367 -0.07749,5.44234c0.06064,1.08299 0.23254,2.15702 0.32671,3.2376c0.20539,2.35666 0.38162,4.71717 0.67156,7.06492c0,3.43138 0.16298,6.61936 -2.24587,9.42796c-3.53672,4.12363 -10.76383,3.94256 -14.1749,-0.3449c-3.48668,-4.38252 -2.38065,-9.22338 -0.77944,-14.05162c0.57347,-1.72922 3.63345,-7.50848 2.05475,-9.68784c-1.23845,-1.70965 -4.97335,0.21086 -6.41003,0.57044c0,0 -2.42536,0.60634 -3.0317,-1.81902c-0.19739,-0.78955 -0.07349,-1.38633 0.18343,-1.83217c-0.16522,-0.33381 -0.25808,-0.70981 -0.25808,-1.1075c0,-0.61475 0.22189,-1.17768 0.58995,-1.61307l1.65616,-1.98739c3.45997,-4.12579 7.96494,-7.47831 12.64879,-10.3362c0.44729,-1.36594 0.97027,-2.6765 2.19751,-3.11769c1.05126,-0.37792 1.99563,-0.23758 2.84016,0.2375c0.24788,-0.13396 0.49541,-0.26682 0.74244,-0.39862c2.53474,-1.35238 4.99128,-3.1318 7.83779,-3.86418c2.08519,-0.5365 4.30806,-0.18452 6.45878,-0.0832c4.85624,0.22878 8.0022,0.59766 12.45997,2.50955c4.32218,1.63298 7.81292,4.11379 11.57318,6.64836c0.63211,0.19221 1.27566,0.43917 1.93707,0.7641c1.27391,0.62584 2.61721,1.56574 3.50921,2.78127zM234.71804,145.68387c0.02616,0.01327 0.05203,0.02686 0.07763,0.04076c0.17318,-0.03796 0.35309,-0.05796 0.53767,-0.05796c0.03734,0 0.07449,0.00082 0.11144,0.00244c-0.19888,-0.21196 -0.39428,-0.42522 -0.58147,-0.63887l-0.29107,0.58214c0.04884,0.02313 0.09745,0.04695 0.14581,0.0715zM237.42044,174.79044c-0.15672,0.62493 0.76456,-0.97071 1.24212,-1.47859c-0.10773,0.01417 -0.21763,0.02148 -0.32923,0.02148c-0.20832,0 -0.41069,-0.02548 -0.60416,-0.07349c-0.08246,0.52832 -0.18582,1.04048 -0.30874,1.5306zM253.63662,155.28745c-0.1758,-0.0857 -0.34089,-0.17122 -0.4938,-0.25576c0.1495,0.22557 0.29877,0.45022 0.44947,0.67121c0.00699,-0.13901 0.02163,-0.2776 0.04433,-0.41545zM244.43303,150.36654c0.03255,0.20129 0.05836,0.40165 0.07688,0.60043c0.18848,-0.07945 0.38856,-0.14732 0.60082,-0.20275c-0.22726,-0.13063 -0.45324,-0.26308 -0.6777,-0.39768zM241.41198,156.43219c0.13307,0.35937 0.25004,0.73344 0.34641,1.12681c-0.01923,-0.42953 -0.02314,-0.85558 -0.00822,-1.27289c-0.11142,0.05335 -0.2242,0.102 -0.33819,0.14609z" fill="#00ff6b" stroke="none" stroke-width="0.5"/></g></g></svg>