<svg version="1.1" xmlns="http://www.w3.org/2000/svg" xmlns:xlink="http://www.w3.org/1999/xlink" width="83" height="82" viewBox="0,0,83,82"><g transform="translate(-198.5,-139)"><g data-paper-data="{&quot;isPaintingLayer&quot;:true}" fill-rule="nonzero" stroke-linecap="butt" stroke-linejoin="miter" stroke-miterlimit="10" stroke-dasharray="" stroke-dashoffset="0" style="mix-blend-mode: normal"><path d="M280.5,180c0,22.09139 -18.13247,40 -40.5,40c-22.36753,0 -40.5,-17.90861 -40.5,-40c0,-22.09139 18.13247,-40 40.5,-40c22.36753,0 40.5,17.90861 40.5,40z" fill="#ffe820" stroke="#000000" stroke-width="2"/><path d="M280.83333,177.16667c0,2.5 -2.5,2.5 -2.5,2.5h-1.66667c-9.20887,-0.01576 -18.67961,-6.67913 -26.73287,0.08722c0,0 -1.92055,1.60046 -3.52101,-0.32009c-1.60046,-1.92055 0.32009,-3.52101 0.32009,-3.52101c1.76518,-1.46081 2.78674,-2.52059 5.00171,-3.39919c8.32909,-3.30388 16.57521,2.16915 24.93209,2.15308h1.66667c0,0 2.5,0 2.5,2.5z" fill="#000000" stroke="none" stroke-width="0.5"/><path d="M206.94259,174.33333h1.66667c8.35687,0.01608 16.60299,-5.45695 24.93209,-2.15308c2.21497,0.8786 3.23653,1.93838 5.00171,3.39919c0,0 1.92055,1.60046 0.32009,3.52102c-1.60046,1.92056 -3.52102,0.32009 -3.52102,0.32009c-8.05326,-6.76635 -17.524,-0.10298 -26.73287,-0.08722h-1.66667c0,0 -2.5,0 -2.5,-2.5c0,-2.5 2.5,-2.5 2.5,-2.5z" data-paper-data="{&quot;index&quot;:null}" fill="#000000" stroke="none" stroke-width="0.5"/><path d="M248.83333,200.83333c0,2.5 -2.5,2.5 -2.5,2.5l-1.97675,-0.01931c-2.87482,-0.35942 -5.7532,-0.67605 -8.63266,-0.99599c0,0 -2.48471,-0.27608 -2.20863,-2.76079c0.27608,-2.48471 2.76079,-2.20863 2.76079,-2.20863c2.90215,0.32246 5.80318,0.64189 8.70067,1.00401l1.35658,-0.01931c0,0 2.5,0 2.5,2.5z" fill="#000000" stroke="none" stroke-width="0.5"/><path d="" fill="#00ffff" stroke="none" stroke-width="0.5"/><path d="M267,182.9375c0,0.5 -0.5,0.5 -0.5,0.5h-0.25c-4.25868,0 -8.35429,0.01997 -12.49627,-1.01493c0,0 -0.48507,-0.12127 -0.3638,-0.60634c0.12127,-0.48507 0.60634,-0.3638 0.60634,-0.3638c4.05939,1.01542 8.07864,0.98507 12.25373,0.98507h0.25c0,0 0.5,0 0.5,0.5z" fill="#cbcec0" stroke="none" stroke-width="0.5"/><path d="M267.25,179.9375c0,0.5 -0.5,0.5 -0.5,0.5l-0.12873,-0.01493c-0.18673,0.0454 -0.37345,0.09079 -0.56018,0.13618c-3.5242,0 -7.04503,-0.37125 -10.56109,-0.37125c0,0 -0.5,0 -0.5,-0.5c0,-0.5 0.5,-0.5 0.5,-0.5c3.47766,0 6.95557,0.37875 10.43891,0.37875c0.14661,-0.03794 0.29321,-0.07588 0.43982,-0.11382l0.37127,-0.01493c0,0 0.5,0 0.5,0.5z" fill="#cbcec0" stroke="none" stroke-width="0.5"/><path d="M256.5,184.5625c-1.91456,-0.01279 -4.00631,-0.67422 -5.87127,-1.13993c0,0 -0.48507,-0.12127 -0.3638,-0.60634c0.12127,-0.48507 0.60634,-0.3638 0.60634,-0.3638c1.76493,0.44176 3.8189,1.12552 5.62873,1.11007h0.5c0,0 0.19772,0 0.34449,0.12433c3.66958,-0.01029 7.33297,-0.13568 10.96942,-0.12058c0.14661,-0.03794 0.29321,-0.07588 0.43982,-0.11382l0.37127,-0.01493c0,0 0.5,0 0.5,0.5c0,0.5 -0.5,0.5 -0.5,0.5l-0.12873,-0.01493c-0.18673,0.0454 -0.37345,0.09079 -0.56018,0.13618c-3.84044,0.01468 -7.68809,0.12875 -11.56109,0.12875c0,0 -0.19843,0 -0.34528,-0.125z" fill="#cbcec0" stroke="none" stroke-width="0.5"/><path d="M214.375,180.4375c0,-0.5 0.5,-0.5 0.5,-0.5l0.54927,0.00243c0.27056,0.06058 0.5411,0.12116 0.81166,0.18173c0.73432,0.72539 1.90659,0.43774 2.88907,0.44083c2.69786,0.0085 5.33345,-0.98818 8,-1c0,0 0.5,0 0.5,0.5c0,0.5 -0.5,0.5 -0.5,0.5c-2.64934,-0.01431 -5.31418,0.99232 -8,1c-1.10826,0.00316 -2.52694,0.28553 -3.36093,-0.55917c-0.14612,-0.02275 -0.29223,-0.04551 -0.43834,-0.06827l-0.45073,0.00243c0,0 -0.5,0 -0.5,-0.5z" fill="#cbcec0" stroke="none" stroke-width="0.5"/><path d="M210.375,181.5625c0.21601,0 0.33871,0.09332 0.40839,0.19933c1.9845,0.42597 3.81179,1.04835 5.89088,1.0531c3.96346,0.79269 8.30586,-0.68059 11.87877,-2.21201c0,0 0.45958,-0.19696 0.65653,0.26262c0.19696,0.45958 -0.26262,0.65653 -0.26262,0.65653c-3.71184,1.59062 -8.25592,3.11105 -12.37123,2.28799c-2.2181,0.00537 -4.1644,-0.70894 -6.29879,-1.13228l-0.40194,-0.61529c0,0 0,-0.5 0.5,-0.5z" fill="#cbcec0" stroke="none" stroke-width="0.5"/><path d="M214.75,184.9375c0,-0.5 0.5,-0.5 0.5,-0.5c0.58334,0 1.29166,0 1.875,0c3.87077,0 8.51591,-0.31009 12.0264,-2.07221c0,0 0.44721,-0.2236 0.67082,0.22361c0.2236,0.44721 -0.22361,0.67082 -0.22361,0.67082c-3.66305,1.82494 -8.43649,2.17779 -12.4736,2.17779c-0.58334,0 -1.16666,0 -1.75,0h-0.125c0,0 -0.5,0 -0.5,-0.5z" fill="#cbcec0" stroke="none" stroke-width="0.5"/><path d="M272.29527,180.5627c0.08498,-0.07082 0.38413,-0.27791 0.68328,0.02124c0.35355,0.35356 0,0.70711 0,0.70711l-0.47855,0.27144c-2.19414,0 -4.86914,0.04944 -7.02694,0.49029c0,0 -0.49029,0.09806 -0.58835,-0.39223c-0.09806,-0.49029 0.39223,-0.58835 0.39223,-0.58835c2.16749,-0.42551 4.78976,-0.50513 7.01833,-0.50951z" fill="#cbcec0" stroke="none" stroke-width="0.5"/><path d="M262.00942,157.66834c0.44128,-0.5841 1.47749,-1.55331 3.10861,-0.73775c2.23607,1.11803 1.11803,3.3541 1.11803,3.3541l-1.96306,1.97399c-5.3358,1.33395 -10.69575,2.48883 -16.06401,3.68178c0,0 -2.44047,0.54233 -2.98279,-1.89814c-0.54233,-2.44047 1.89814,-2.98279 1.89814,-2.98279c4.97317,-1.10515 9.93916,-2.1766 14.88508,-3.39119z" fill="#000000" stroke="none" stroke-width="0.5"/><path d="M235.35935,161.25058c0.49635,-0.47572 1.27633,-0.84058 2.43122,-0.45562c2.37171,0.79057 1.58114,3.16228 1.58114,3.16228l-3.31138,2.63479c-6.27702,-1.56926 -12.75728,-3.58132 -18.71179,-6.12749c0,0 -2.29786,-0.9848 -1.31306,-3.28266c0.9848,-2.29786 3.28266,-1.31306 3.28266,-1.31306c5.10926,2.19505 10.62202,3.95633 16.04122,5.38177z" fill="#000000" stroke="none" stroke-width="0.5"/></g></g></svg>