<svg version="1.1" xmlns="http://www.w3.org/2000/svg" xmlns:xlink="http://www.w3.org/1999/xlink" width="467.87721" height="213.00511" viewBox="0,0,467.87721,213.00511"><g transform="translate(-6.75,-3.74489)"><g data-paper-data="{&quot;isPaintingLayer&quot;:true}" fill="#1000ff" fill-rule="nonzero" stroke="none" stroke-linecap="butt" stroke-linejoin="miter" stroke-miterlimit="10" stroke-dasharray="" stroke-dashoffset="0" style="mix-blend-mode: normal"><text transform="translate(67,46.38061) scale(0.9877,0.9877)" font-size="40" xml:space="preserve" fill="#1000ff" fill-rule="nonzero" stroke="none" stroke-width="1" stroke-linecap="butt" stroke-linejoin="miter" stroke-miterlimit="10" stroke-dasharray="" stroke-dashoffset="0" font-family="Serif" font-weight="normal" text-anchor="start" style="mix-blend-mode: normal"><tspan x="0" dy="0">Something that </tspan><tspan x="0" dy="46.150000000000006px">TOTALLY not boring</tspan></text><g stroke-width="0.5"><g><path d="M11.5,173.5c0,-1.78215 1.27042,-2.29388 2,-2.44081v-1.55919c0,-9.60659 0.31109,-19.27034 -0.32927,-28.85585c-0.24574,-3.67842 -0.19138,-7.25237 -1.07495,-10.7682c-0.57348,-0.18734 -1.14888,-0.62956 -1.46749,-1.58538c-0.79057,-2.37171 1.58114,-3.16228 1.58114,-3.16228c0.82541,-0.25164 1.74121,-0.30286 2.47624,-0.75492c0.8295,-0.51016 1.20978,-1.61696 2.08258,-2.04887c6.19355,-3.06494 15.45281,-3.56682 21.54607,0.04887c0.90498,0.53701 1.45067,1.53372 2.27064,2.19327c1.03934,0.836 2.44312,1.24772 3.28922,2.27885c3.03684,3.70096 3.6258,8.14343 3.6258,12.65451c0,1.57701 -0.06394,3.1136 -0.37192,4.54228c2.87985,-0.20435 5.76752,-0.06938 8.1626,1.31666c3.81722,2.20903 5.16236,6.65584 6.13824,10.54914c1.59829,6.37646 2.56998,13.24457 -4.33054,16.83771c-2.01295,1.04815 -4.45931,0.84883 -6.69792,1.22193c-1.03975,0.17329 -1.95602,0.85438 -3,1c-5.19149,0.72415 -11.15375,0.03228 -16.40046,0.03228c-5.03126,0 -10.42514,-0.78543 -15.20943,0.87171l-1.79057,0.12829c0,0 -2.5,0 -2.5,-2.5zM31,170c4.93661,0 10.72056,0.74771 15.59954,0.03228c1.04294,-0.15293 1.96025,-0.82671 3,-1c1.76198,-0.29366 3.68198,-0.02568 5.30208,-0.77807c4.38119,-2.03467 2.58962,-7.46685 1.66946,-11.16229c-0.65493,-2.63027 -1.22707,-5.88647 -3.86176,-7.45086c-2.20461,-1.30902 -6.01479,-0.6712 -9.05701,-0.23721c-0.10955,0.07552 -0.22218,0.14979 -0.33798,0.22278c-1.10899,0.69897 -2.47447,0.86644 -3.7117,1.29965l-0.20037,-0.01271l0.00874,0.05241l-4.88551,0.81425c-0.14831,0.02742 -0.30121,0.04176 -0.45746,0.04176c-1.38071,0 -2.5,-1.11929 -2.5,-2.5c0,-0.71894 0.30348,-1.36701 0.78932,-1.82308l1.92741,-1.81769l0.06163,0.06535c0.1967,-0.20245 0.41439,-0.38434 0.65878,-0.54011c1.64485,-1.04844 3.88423,-0.36512 5.82915,-0.51349c0.24554,-0.01873 0.49457,-0.04062 0.74665,-0.06487c0.10147,-0.13016 0.19891,-0.27667 0.29241,-0.44243c2.01386,-3.57034 0.86156,-10.9655 -1.74757,-14.03117c-0.69372,-0.8151 -1.87275,-1.05531 -2.71078,-1.72115c-0.65271,-0.51861 -1.01737,-1.37306 -1.72936,-1.80673c-3.93127,-2.39455 -8.87543,-1.86452 -12.9867,-0.72633c-1.14134,0.31598 -2.41066,0.24024 -3.46722,0.7752c-0.81353,0.4119 -1.13117,1.48928 -1.91742,1.95113c-0.11561,0.06791 -0.23355,0.13082 -0.35344,0.18953c0.88817,3.77358 0.93526,7.53462 1.19877,11.49539c0.64518,9.6976 0.34035,19.46983 0.34035,29.18845v0.68713c4.09841,-0.53197 8.2901,-0.18713 12.5,-0.18713z"/><path d="M101.20943,131.12829c2.37171,-0.79057 3.16228,1.58114 3.16228,1.58114l0.86436,4.9086c-2.11193,1.07065 -5.29005,2.97216 -7.83561,3.34968c-3.32972,0.49382 -6.68244,0.4654 -10,1c-2.08134,0.33539 -3.9146,1.69087 -6,2c-2.58928,0.38382 -5.25784,0.31033 -7.79412,0.95764c0,0 -1.22298,0.30574 -2.14916,-0.38543c0.42269,1.52803 0.79589,3.05247 1.01129,4.56426c0.33616,2.35934 -0.27974,4.78514 0.01936,7.14946c0.54815,4.33293 1.69831,8.4822 1.95972,12.78077c0.05244,0.27542 0.05244,0.46558 0.05244,0.46558l-0.02745,0.00549c0.01492,0.3305 0.0243,0.66196 0.02745,0.99451l-2.5,-0.5l-2.5,0.5c0.05671,-4.56682 -1.42964,-9.17081 -1.98783,-13.75366c-0.27609,-2.26677 0.34711,-4.59066 0.01936,-6.85054c-0.57126,-3.93901 -2.22199,-7.98 -2.98913,-11.9373c-1.15568,-5.96159 -2.00869,-12.04975 -3.00839,-18.04751c0,0 -0.411,-2.46598 2.05499,-2.87698c2.17872,-0.36312 2.75334,1.51949 2.85765,1.96304c4.33965,-0.07104 7.97079,-1.35965 12.24927,-1.97849c1.9746,-0.28561 3.9276,-0.71065 5.90362,-0.98628c2.31096,-0.32235 4.70075,0.39736 7,0c2.12949,-0.36802 4.2395,-1.01177 6.40046,-1.03228h1c0,0 2.5,0 2.5,2.5c0,2.5 -2.5,2.5 -2.5,2.5h-1c-1.89404,-0.02352 -3.72953,0.66612 -5.59954,0.96772c-2.30357,0.37152 -4.69135,-0.33853 -7,0c-6.05269,0.88753 -11.92867,2.75825 -18.14689,3.00528c0.68964,4.36765 1.36615,8.7522 2.20403,13.0685c0.29283,1.50849 0.71243,3.02814 1.15197,4.55002c0.43351,-1.17922 1.7841,-1.51687 1.7841,-1.51687c2.67775,-0.65742 5.47401,-0.66898 8.20588,-1.04236c2.08877,-0.28549 3.92216,-1.64362 6,-2c0.98561,-0.16905 2.01361,0.1644 3,0c1.03975,-0.17329 1.9565,-0.85093 3,-1c1.31993,-0.18856 2.67896,0.18067 4,0c1.392,-0.19037 2.77778,-0.87659 4.16439,-0.65032l-1.13564,-1.0914c0,0 -0.79057,-2.37171 1.58114,-3.16228z"/><path d="M157.5,110.5c0,2.5 -2.5,2.5 -2.5,2.5l0.38675,-0.41987c-1.22076,0.77087 -2.29609,1.8457 -3.66229,2.3126c-1.04873,0.35841 -2.2305,-0.10542 -3.324,0.07499c-3.07139,0.50672 -5.91673,2.47253 -9,3c-1.01779,0.17412 -2.07558,-0.13269 -3.0977,0.01388c-5.05426,0.72479 -10.25917,2.05824 -15.28618,3.33495c0.22813,1.98218 0.31017,3.99016 0.47491,5.97725c0.361,4.35447 1.46311,8.60947 1.98979,12.90074c0.52025,4.23885 -0.55179,8.67817 -0.01355,12.905c0.13315,1.04565 0.85438,1.95602 1,3c0.3684,2.6411 -0.38689,5.36155 0,8c0.31353,2.13819 1.01177,4.2395 1.03228,6.40046v3c0,0 0,2.5 -2.5,2.5c-2.5,0 -2.5,-2.5 -2.5,-2.5v-3c0.02352,-1.89404 -0.70603,-3.72352 -0.96772,-5.59954c-0.3684,-2.6411 0.38689,-5.36155 0,-8c-0.15293,-1.04294 -0.87144,-1.95378 -1,-3c-0.5286,-4.30166 0.53338,-8.80472 -0.01355,-13.095c-0.55503,-4.35381 -1.64497,-8.67851 -2.01021,-13.09926c-0.18419,-2.2293 -0.21549,-4.49386 -0.55317,-6.70173c-0.15821,-0.23949 -0.28987,-0.53479 -0.3807,-0.89813c-0.1217,-0.48679 -0.12127,-0.9003 -0.04283,-1.25033c-0.07841,-0.63537 -0.0853,-2.29457 1.86185,-2.78136c1.04808,-0.26202 1.75647,0.0421 2.22305,0.47199c8.23471,-1.86241 16.65007,-2.81308 24.59272,-5.41834c3.40957,-1.11837 5.53632,-0.63861 8.40382,-2.70842l2.38675,-0.41987c0,0 2.5,0 2.5,2.5z"/><path d="M155.23607,137.38197c1.11803,2.23607 -1.11803,3.3541 -1.11803,3.3541l-3.11803,1.26393c-3.42407,-0.04252 -5.16704,1.0559 -8.36113,2.25299c-5.50295,2.06241 -10.63246,2.736 -14.87111,7.01478c0,0 -1.76777,1.76777 -3.53553,0c-1.76777,-1.76777 0,-3.53553 0,-3.53553c4.89725,-4.85865 10.36286,-5.80129 16.61573,-8.1475c3.70913,-1.39175 6.12504,-2.5465 10.15204,-2.58473l0.88197,-0.73607c0,0 2.23607,-1.11803 3.3541,1.11803z"/><path d="M203.88197,162.26393c2.23607,-1.11803 3.3541,1.11803 3.3541,1.11803l0.5317,1.35027c4.68683,4.71545 9.60114,7.33183 15.98786,9.12973c1.62388,0.45713 4.46132,2.04296 5.04019,0.45839c0.21094,-0.57742 -0.2706,-1.20613 -0.29581,-1.82036c-0.06288,-1.53193 0.21633,-3.07741 0.03228,-4.59954c-0.6946,-5.74465 -4.68005,-8.75934 -8.74889,-12.21646c-4.23072,-1.33514 -9.99157,-2.41384 -13.4379,-5.30981c-1.1237,-0.94425 -1.76384,-2.35412 -2.50777,-3.61938c-2.54667,-4.33134 -4.39967,-9.85488 -5.45354,-14.76872c-0.39529,-1.84312 -0.95957,-3.70242 -0.88219,-5.58586c0.1306,-3.17901 1.35869,-6.76034 4.5413,-8.20994c0.55736,-0.25386 7.41367,-0.1908 7.95671,-0.1903c5.52443,0.00505 10.97029,1.12737 16.411,2.03402c0,0 2.46598,0.411 2.05499,2.87698c-0.411,2.46598 -2.87698,2.05499 -2.87698,2.05499c-5.15939,-0.86003 -10.34972,-1.97103 -15.589,-1.96598c-2.01543,0.00194 -4.09227,-0.69575 -6.04329,-0.1903c-1.31043,0.3395 -1.47467,2.43646 -1.4587,3.79006c0.02497,2.1164 1.26202,6.129 1.88899,8.15712c1.08706,3.51643 2.31296,9.43777 5.26751,11.86892c3.05795,2.51624 8.88506,3.41547 12.5621,4.69019c2.22514,1.82456 4.7734,3.32556 6.64294,5.51305c3.76193,4.4017 4.79396,10.09061 4.64045,15.67095c-0.10776,3.91726 0.40629,6.41839 -5.07332,7.46332c-1.96957,0.37558 -3.92828,-0.80737 -5.88373,-1.25064c-7.25977,-1.6457 -13.0935,-5.2559 -18.31072,-10.44491l-1.4683,-2.64973c0,0 -1.11803,-2.23607 1.11803,-3.3541z"/><path d="M289.23223,185.26777c-1.76777,-1.76777 0,-3.53553 0,-3.53553l0.39606,-0.0228c0.60086,-1.80258 1.1857,-3.58299 1.73031,-5.3794c-4.45443,0.07991 -9.08555,-0.33003 -13.3586,-0.33003c0,0 -1.76989,0 -2.33129,-1.48918c-0.74964,0.18684 -1.50362,0.35025 -2.26825,0.4569c-3.10346,0.4329 -6.26695,0.03228 -9.40046,0.03228c-5.5,0 -11,0 -16.5,0v1.5c0,0 0,2.5 -2.5,2.5c-2.5,0 -2.5,-2.5 -2.5,-2.5v-3c0,-10.93524 0.42428,-21.97637 0.00184,-32.90406c-0.23419,-6.05808 -0.99965,-12.02034 -1.00184,-18.09594c0,0 0,-2.5 2.5,-2.5c2.5,0 2.5,2.5 2.5,2.5c-0.00032,0.84786 0.01471,1.69352 0.0414,2.53756c4.27008,-1.07593 8.72867,-2.55536 13.11042,-3.0055c4.83981,-0.4972 8.96197,-0.77325 13.74743,-1.95881l1.60075,-0.07325c0,0 2.5,0 2.5,2.5c0,2.5 -2.5,2.5 -2.5,2.5l-0.39925,-0.07325c-4.98392,1.23289 -9.4053,1.58071 -14.44677,2.08003c-4.18006,0.41401 -8.48163,1.90207 -12.54765,2.91858c0,0 -0.34181,0.08545 -0.80088,0.06388c0.24085,3.46665 0.55784,6.92481 0.6927,10.41482c0.12774,3.30567 0.17881,6.6215 0.18778,9.94159c0.64561,-0.34565 1.31406,-0.34565 1.31406,-0.34565c5.62579,0.01823 10.2087,-2.0829 15.59954,-2.96772c1.97359,-0.32393 4.02921,0.34059 6,0c1.30831,-0.2261 2.60926,-0.55628 3.9192,-0.78206c0.07701,-0.633 0.47053,-2.25022 2.48126,-2.25022c2.5,0 2.5,2.5 2.5,2.5l-2.5,4.5c-1.89404,-0.02352 -3.72953,0.66612 -5.59954,0.96772c-1.97448,0.31845 -4.02824,-0.33493 -6,0c-5.646,0.95906 -10.4979,3.01537 -16.40046,3.03228c0,0 -0.67479,0 -1.32322,-0.35058c-0.03229,5.11991 -0.12912,10.24386 -0.16404,15.35023c7.16231,-0.00319 14.32508,-0.02654 21.48726,0.00035c2.86122,0.01074 5.72932,-1.3408 8.23223,-0.26777l-0.73223,-2.23223c0,0 0,-2.5 2.5,-2.5c2.5,0 2.5,2.5 2.5,2.5l-0.45268,3.56572c3.76969,0.14278 7.74673,0.45344 11.4953,0.25912c0.2398,-4.73026 2.23128,-8.46571 4.16578,-12.82413c1.43772,-3.23917 2.77483,-6.51565 4.12215,-9.78083c0.01609,-0.71714 0.013,-1.43078 -0.01865,-2.13925c-0.38395,-1.0828 -0.7685,-2.15853 -1.15936,-3.22073c-1.04217,-2.83222 -1.38165,-5.94906 -2.81475,-8.60496c-1.17767,-2.18254 -2.99512,-3.96392 -4.38435,-6.01614c-2.79329,0.15866 -5.60607,0.26121 -8.45344,0.26121c0,0 -2.5,0 -2.5,-2.5c0,-2.5 2.5,-2.5 2.5,-2.5c1.93187,0 3.8477,-0.04724 5.75231,-0.1272c-2.07474,-4.04245 -3.96577,-8.20956 -5.98838,-12.25476c0,0 -1.11803,-2.23607 1.11803,-3.3541c2.23607,-1.11803 3.3541,1.11803 3.3541,1.11803c2.34781,4.69562 4.52679,9.542 7.00727,14.18069c1.09236,-0.07502 2.18252,-0.1563 3.27142,-0.24102c0.04906,-0.74804 0.38985,-2.04767 2.13169,-2.29651c2.01615,-0.28802 2.62448,1.30104 2.78073,1.90001c2.55899,-0.20884 5.11877,-0.4133 7.69152,-0.57668c1.26926,-5.55624 2.16102,-11.27507 3.45595,-16.4548c0,0 0.60634,-2.42536 3.0317,-1.81902c2.42536,0.60634 1.81902,3.0317 1.81902,3.0317c-1.1931,4.7724 -2.07985,9.90996 -3.19257,14.9829c1.58036,-0.05673 3.16852,-0.08924 4.76722,-0.08924h3c0,0 2.5,0 2.5,2.5c0,2.5 -2.5,2.5 -2.5,2.5h-3c-2.00708,0 -3.9981,0.05135 -5.97841,0.1376c-0.971,3.65567 -2.15948,7.1992 -3.7758,10.46078c-0.53366,1.07687 -1.4599,1.92634 -2,3c-1.08007,2.14705 -2.01481,4.38974 -2.89115,6.66955c1.46757,4.15285 2.99139,8.34235 4.90646,12.16555c1.70732,3.40846 3.86048,6.5207 5.72442,9.79564c2.28779,-0.15693 4.5894,-0.22912 7.01449,-0.22912l0.88197,-0.73607c0,0 2.23607,-1.11803 3.3541,1.11803c1.11803,2.23607 -1.11803,3.3541 -1.11803,3.3541l-3.11803,1.26393c-1.50594,0 -3.11222,-0.09645 -4.71693,-0.15104c0.31277,0.76002 0.59643,1.53738 0.84355,2.33672c0.54705,0.51552 1.09409,1.03104 1.64114,1.54656l-1,4.53553c0,0 -1.76777,1.76777 -3.53553,0c-0.98284,-0.98284 -0.8728,-1.96568 -0.58131,-2.64472c-0.25918,-0.26957 -0.51836,-0.53915 -0.77755,-0.80872c-0.58363,-1.65636 -1.28888,-3.2271 -2.06498,-4.75008c-1.17983,0.23999 -2.30837,0.75044 -3.50293,0.91702c-1.24334,0.17338 -2.52048,0.14941 -3.80626,0.07095c0.00054,0.14871 0.00081,0.29796 0.00081,0.44778v3c0,0 0,2.5 -2.5,2.5c-2.5,0 -2.5,-2.5 -2.5,-2.5v-3c0,-0.23686 0.0027,-0.47573 0.0075,-0.71627c-0.71142,0.01156 -1.41525,0.06443 -2.10704,0.18399c-0.95158,0.16445 -1.80129,0.74466 -2.73985,0.9528c-0.69316,2.47478 -1.4643,4.89626 -2.2889,7.37005l-1.60394,1.9772c0,0 -1.76777,1.76777 -3.53553,0zM306.75421,135.40162c1.25661,-2.48876 2.23906,-5.17658 3.05563,-7.96613c-1.9907,0.13668 -3.97524,0.29428 -5.95919,0.45571c0.13459,4.10598 -0.05734,8.27916 0.61706,12.20834c0.00415,0.02417 0.00855,0.04828 0.01321,0.07232c0.72618,-1.60564 1.47931,-3.19775 2.27329,-4.77024zM298.59954,170.03228c1.0184,-0.16425 2.05664,-0.19505 3.10347,-0.16637c0.03316,-1.38588 0.00664,-2.75786 -0.18429,-4.06045c-0.18488,-1.26132 -0.72383,-2.45305 -0.95243,-3.70537c-1.27219,2.76777 -2.4617,5.27605 -2.90369,8.20382c0.30538,-0.11898 0.61522,-0.21974 0.93693,-0.27163zM306.73891,161.56652c-0.52244,-1.04657 -1.01677,-2.11813 -1.48936,-3.20744c0.02452,0.95331 0.09454,1.89957 0.23172,2.83546c0.45342,3.09341 0.7402,5.98008 0.89013,8.94976c1.12153,0.0457 2.23384,0.0341 3.32314,-0.12557c0.58213,-0.08533 1.15819,-0.16479 1.72979,-0.23858c-1.59225,-2.69794 -3.2595,-5.35718 -4.68543,-8.21362zM298.90454,128.29163c-0.18525,0.01454 -0.37054,0.029 -0.55586,0.04335c0.19407,0.24062 0.38918,0.48057 0.58312,0.72123c-0.00788,-0.25502 -0.01688,-0.5099 -0.02726,-0.76458z"/><path d="M355.66798,173.50012c-2.31223,-3.48032 -4.69069,-7.47958 -8.00614,-10.1058c-2.65996,-2.107 -5.94082,-3.76396 -9.1756,-5.16393c0.43557,3.16045 0.23033,6.59661 0.09693,9.91212c0.08662,1.13259 0.17681,2.2656 -0.08317,3.35749v3c0,1.38071 -1.11929,2.5 -2.5,2.5c-1.38071,0 -2.5,-1.11929 -2.5,-2.5v-3c-0.68967,-1.51728 0,-3.33333 0,-5v-3c0,0 0,-0.57125 0.27307,-1.16762c-0.01613,-1.20368 -0.08729,-2.38728 -0.25434,-3.52692c-0.08484,-0.57884 -0.24426,-1.14302 -0.41402,-1.70513l-2.31414,0.77138c0,0 -2.37171,0.79057 -3.16228,-1.58114c-0.79057,-2.37171 1.58114,-3.16228 1.58114,-3.16228l3,-1c0.03217,-0.0104 0.06429,-0.02069 0.09638,-0.03088c-0.08204,-2.85496 0.19419,-5.852 0.19419,-8.59741c0,-6 0,-12 0,-18c0,0 0,-2.5 2.5,-2.5c2.5,0 2.5,2.5 2.5,2.5c0,6 0,12 0,18c0,2.38533 -0.25123,5.01112 -0.23316,7.52985c1.41438,-0.23837 2.8319,-0.49731 4.33271,-0.99757c2.83154,0 6.55693,-0.51048 9.16871,-1.70778c3.19817,-1.46612 5.00803,-7.63062 5.83145,-10.52347c0.5916,-2.07845 1.73493,-5.33614 1.00757,-7.57657c-1.38984,-4.28099 -6.29067,-5.74689 -9.70565,-7.47867c-0.95551,-0.48455 -1.61683,-1.4936 -2.62608,-1.85306c-2.36446,-0.84214 -6.22365,0.19572 -8.48497,0.97898c0,0 -2.37171,0.79057 -3.16228,-1.58114c-0.79057,-2.37171 1.58114,-3.16228 1.58114,-3.16228c3.30155,-1.06738 8.04918,-2.12166 11.51503,-1.02102c1.2705,0.40347 2.17863,1.5568 3.37392,2.14694c4.82493,2.38217 10.34747,4.76788 12.29435,10.52133c1.07212,3.16835 -0.13178,7.42065 -0.99243,10.42343c-1.25313,4.37213 -3.69878,11.11923 -8.16855,13.47653c-2.65066,1.39792 -6.75176,2.15254 -9.93676,2.27456c2.68256,1.3011 5.28746,2.79422 7.52998,4.57197c3.88107,3.0767 6.64283,7.67017 9.33731,11.72316l0.02845,0.15945l0.04534,-0.02267l1.97751,3.95502c0.18291,0.34741 0.28642,0.74312 0.28642,1.16302c0,1.38071 -1.11929,2.5 -2.5,2.5c-0.69036,0 -1.31536,-0.27982 -1.76777,-0.73223l-2,-2c0,0 -1.28978,-1.28978 -0.56426,-2.76765z"/><path d="M408.88197,168.26393c2.23607,-1.11803 3.3541,1.11803 3.3541,1.11803l0.5317,1.35027l2,2c0.45241,0.45241 0.73223,1.07741 0.73223,1.76777c0,1.38071 -1.11929,2.5 -2.5,2.5h-3c-2.68095,0 -5.96145,-0.4882 -8.59954,-0.03228c-1.0387,0.17951 -1.95602,0.85438 -3,1c-2.6411,0.3684 -5.36155,-0.38689 -8,0c-1.00956,0.14804 -1.90057,0.78922 -2.90046,0.98235v0.54993c0,0 0,2.5 -2.5,2.5c-2.5,0 -2.5,-2.5 -2.5,-2.5v-0.09186c-5.14761,0.16467 -10.59968,-0.40814 -15.5,-0.40814c0,0 -2.5,0 -2.5,-2.5c0,-2.5 2.5,-2.5 2.5,-2.5c4.66667,0 9.33333,0 14,0c0.24971,0 0.49991,0.00627 0.7504,0.01636c-0.08232,-0.37109 -0.15794,-0.74281 -0.21812,-1.11591c-0.58344,-3.61753 0.4488,-7.46898 -0.01355,-11.095c-1.56302,-12.25822 -3.23366,-24.63253 -4.9936,-36.9519c0,0 -0.03137,-0.21961 -0.01001,-0.53733c-3.8707,-0.05321 -7.78713,-0.31622 -11.51512,-0.31622c0,0 -2.5,0 -2.5,-2.5c0,-2.5 2.5,-2.5 2.5,-2.5c6.05142,0 12.69716,0.78356 18.69454,0.01873c1.36333,-0.17386 2.63621,-0.82982 4,-1c2.30714,-0.2879 4.69928,-0.25121 6.905,-0.98645l3.40046,-0.03228c0,0 2.5,0 2.5,2.5c0,2.5 -2.5,2.5 -2.5,2.5l-2.59954,-0.03228c-2.26641,0.75547 -4.7245,0.71675 -7.095,1.01355c-1.36372,0.17075 -2.63585,0.83268 -4,1c-0.92786,0.11381 -1.86866,0.19411 -2.8187,0.24835c1.76004,12.32169 3.4893,24.69749 4.99451,36.96492c0.43453,3.54144 -0.61911,7.40105 -0.01355,10.905c0.10859,0.62833 0.24118,1.25496 0.37469,1.88171c0.94086,-0.23133 1.79523,-0.8148 2.75714,-0.94897c2.6411,-0.3684 5.36155,0.38689 8,0c1.04294,-0.15293 1.95936,-0.83216 3,-1c2.27694,-0.36723 4.8972,-0.18305 7.34804,-0.08282l-0.18366,-0.33143c0,0 -1.11803,-2.23607 1.11803,-3.3541z"/></g><path d="M439.5,166.5c0,2.31621 -2.14593,2.48649 -2.46145,2.49901c-1.22319,1.2255 -3.48893,3.48575 -3.72422,3.62762c-1.06683,0.64325 -2.34581,0.8397 -3.52376,1.24508c-4.44833,1.53084 -9.88809,3.91858 -14.30805,0.61506c-1.11402,-0.83262 -1.53149,-2.32841 -2.41587,-3.40179c-1.05053,-1.27504 -2.2509,-2.41884 -3.37634,-3.62826c-0.02925,-0.60823 -0.0499,-1.20684 -0.06028,-1.79702c-0.40331,-0.25146 -0.77028,-0.67477 -1.00173,-1.36912c-0.56956,-1.70867 0.5022,-2.59668 1.14597,-2.95964c0.34765,-3.71383 1.34105,-7.18476 3.47437,-10.7692c2.35291,-3.9534 2.67825,-6.31415 7.71199,-6.53858c3.59055,-0.16008 10.7099,1.60746 12.34907,5.52014c1.57302,3.75477 -0.79417,9.03341 -3.99537,11.08334c-4.08156,2.61368 -10.00641,3.28493 -14.96676,4.51547c-0.01286,0.13433 -0.02547,0.26808 -0.03787,0.40119c1.61025,1.45563 2.59362,3.51866 4.20779,4.96994c1.6964,1.52523 5.05747,0.1698 6.69195,-0.38494c1.81516,-0.61606 3.82938,-0.77402 5.47624,-1.75492c1.45566,-0.86702 2.34851,-2.44309 3.54656,-3.64114l2.76777,-0.73223c0,0 2.5,0 2.5,2.5zM415.07936,159.64793c3.82243,-0.88659 8.25976,-1.50022 11.60631,-3.27455c1.31921,-0.69944 2.49604,-3.48127 2.00463,-4.91666c-0.54203,-1.58324 -6.82881,-2.3919 -7.45673,-2.44102c-0.57895,-0.04529 -1.29382,0.01612 -1.68404,0.44619c-2.52828,2.78644 -3.7718,6.47086 -4.47017,10.18605z"/><path d="M469.76777,124.26777c-1.76777,1.76777 -3.53553,0 -3.53553,0l-1,-1c-1.19805,-1.19805 -2.08151,-2.79008 -3.54656,-3.64114c-0.91146,-0.52948 -2.10249,-0.44721 -3,-1c-0.29177,-0.17971 -0.55651,-0.39432 -0.80646,-0.62804c-1.64783,-0.03794 -3.40836,-0.82441 -4.92251,-0.18889c-0.6533,0.2742 -0.81847,1.18106 -1.37174,1.62366c-0.76904,0.61521 -1.99424,0.68793 -2.54143,1.50677c-0.6152,0.9206 -0.36023,2.18839 -0.64324,3.25885c-0.2435,0.921 -0.78386,1.76052 -0.93258,2.70149c-0.52745,3.33722 1.08224,5.80863 1.93258,8.90058c0.31404,1.14188 0.19049,2.43736 0.7752,3.46722c1.28673,2.26636 3.77572,3.59523 5.59227,5.46398c0.50255,0.51699 0.81276,1.28284 1.46398,1.59227c2.65287,1.2605 5.7824,1.52391 8.23003,3.14739c2.79532,1.8541 4.9935,5.23006 6.78401,7.92973c1.51614,4.45422 2.42546,7.22088 2.25421,12.09838c-0.05065,1.4426 0.50505,3.1689 -0.37337,4.31433c-1.98949,2.59421 -6.5856,3.3787 -9.52029,4.11103c-6.77514,1.69068 -16.38858,2.93637 -20.73297,-4.11103c-0.65372,-1.06045 -0.83005,-2.34917 -1.24508,-3.52376l3.37171,-3.29057c0,0 2.5,0 2.5,2.5c0,0.49614 -0.09846,0.89382 -0.2563,1.21257c2.94973,4.92599 9.76302,3.71165 15.14997,2.36207c0.09278,-0.02324 5.9926,-1.34262 6.47971,-1.88897c0.38299,-0.42957 -0.34219,-1.11101 -0.37337,-1.68567c-0.22658,-4.17519 -0.49266,-6.04196 -1.74579,-9.90162c-1.36293,-2.0299 -3.1258,-4.66726 -5.21599,-6.07027c-2.2908,-1.53768 -5.32049,-1.58287 -7.76997,-2.85261c-1.03487,-0.53644 -1.70218,-1.59321 -2.53602,-2.40773c-0.54113,-0.52859 -6.20455,-6.18212 -6.40773,-6.53602c-0.77928,-1.35732 -0.78176,-3.03168 -1.2248,-4.53278c-1.59168,-5.39292 -2.69634,-8.7721 -1,-14.39794c0.47455,-1.57383 0.44593,-3.37275 1.35676,-4.74115c0.78747,-1.18307 2.34882,-1.60541 3.45857,-2.49323c0.92227,-0.73783 1.52781,-1.94742 2.62826,-2.37634c0.41614,-0.1622 3.0105,-0.19177 4.95043,-0.19411c0.07117,-0.08784 0.15046,-0.1759 0.23852,-0.26396c1.76777,-1.76777 3.53553,0 3.53553,0c1.20203,1.27554 3.05423,1.72199 4.54656,2.64114c0.31446,0.19368 3.99363,3.89905 4.45344,4.35886l1,1c0,0 1.76777,1.76777 0,3.53553z"/></g><text transform="translate(7,203.5) scale(0.5,0.5)" font-size="40" xml:space="preserve" fill="#1000ff" fill-rule="nonzero" stroke="none" stroke-width="1" stroke-linecap="butt" stroke-linejoin="miter" stroke-miterlimit="10" stroke-dasharray="" stroke-dashoffset="0" font-family="Serif" font-weight="normal" text-anchor="start" style="mix-blend-mode: normal"><tspan x="0" dy="0">VERY GOOD!!!!</tspan></text><text transform="translate(318,210.5) scale(0.5,0.5)" font-size="40" xml:space="preserve" fill="#1000ff" fill-rule="nonzero" stroke="none" stroke-width="1" stroke-linecap="butt" stroke-linejoin="miter" stroke-miterlimit="10" stroke-dasharray="" stroke-dashoffset="0" font-family="Serif" font-weight="normal" text-anchor="start" style="mix-blend-mode: normal"><tspan x="0" dy="0">AND FUNNY!!!!</tspan></text></g></g></svg>