<svg version="1.1" xmlns="http://www.w3.org/2000/svg" xmlns:xlink="http://www.w3.org/1999/xlink" width="83" height="82" viewBox="0,0,83,82"><g transform="translate(-198.5,-139)"><g data-paper-data="{&quot;isPaintingLayer&quot;:true}" fill-rule="nonzero" stroke-linecap="butt" stroke-linejoin="miter" stroke-miterlimit="10" stroke-dasharray="" stroke-dashoffset="0" style="mix-blend-mode: normal"><path d="M280.5,180c0,22.09139 -18.13247,40 -40.5,40c-22.36753,0 -40.5,-17.90861 -40.5,-40c0,-22.09139 18.13247,-40 40.5,-40c22.36753,0 40.5,17.90861 40.5,40z" fill="#ffe820" stroke="#000000" stroke-width="2"/><path d="M265.61272,174.06792c0,5.6697 -3.87804,10.2659 -8.66185,10.2659c-4.78381,0 -8.66185,-4.5962 -8.66185,-10.2659c0,-5.6697 3.87804,-10.2659 8.66185,-10.2659c4.78381,0 8.66185,4.5962 8.66185,10.2659z" fill="#000000" stroke="#000000" stroke-width="2"/><path d="M233.85838,175.08815c0,5.6697 -3.87804,10.2659 -8.66185,10.2659c-4.78381,0 -8.66185,-4.59619 -8.66185,-10.26589c0,-5.6697 3.87804,-10.26589 8.66185,-10.26589c4.78381,0 8.66185,4.59619 8.66185,10.2659z" fill="#000000" stroke="#000000" stroke-width="2"/><path d="M224.35792,170.01786c-2.23607,1.11803 -3.3541,-1.11803 -3.3541,-1.11803l-0.07816,-0.19949c-1.50254,-2.25514 -2.88344,-4.56613 -4.27748,-6.88953c0,0 -1.28624,-2.14373 0.85749,-3.42997c2.14373,-1.28624 3.42997,0.85749 3.42997,0.85749c1.35323,2.25539 2.69053,4.50026 4.15027,6.68851l0.39005,0.73692c0,0 1.11803,2.23607 -1.11803,3.3541z" fill="#000000" stroke="none" stroke-width="0.5"/><path d="M220.55967,174.23164c-1.76777,1.76777 -3.53553,0 -3.53553,0l-0.23529,-0.26259c-2.47104,-1.9222 -4.80425,-3.84497 -7.02193,-6.05821c0,0 -1.76777,-1.76777 0,-3.53553c1.76777,-1.76777 3.53553,0 3.53553,0c2.06688,2.07138 4.24808,3.85213 6.5561,5.64699l0.70112,0.67382c0,0 1.76777,1.76777 0,3.53553z" fill="#000000" stroke="none" stroke-width="0.5"/><path d="M273.99728,170.54266c0.9848,2.29786 -1.31306,3.28266 -1.31306,3.28266l-2.17631,0.86412c-1.71676,0.31214 -3.43353,0.62428 -5.15029,0.93642c0,0 -2.45967,0.44721 -2.90689,-2.01246c-0.17702,-0.97362 0.10142,-1.63192 0.50249,-2.07198c-0.36563,0.21372 -2.16026,1.12605 -3.40039,-0.73415c-1.38675,-2.08013 0.69338,-3.46688 0.69338,-3.46688c2.34289,-1.56174 4.70925,-3.06269 7.12363,-4.51158l0.89502,-0.74486c0,0 1.95217,-1.56174 3.51391,0.39043c1.56174,1.95217 -0.39043,3.51391 -0.39043,3.51391l-1.44602,1.12798c-2.00451,1.20249 -3.97434,2.44206 -5.92519,3.72411c0.26023,-0.10009 0.44607,-0.13388 0.44607,-0.13388c1.71676,-0.31214 3.43353,-0.62428 5.15029,-0.93642l1.10114,-0.5405c0,0 2.29786,-0.9848 3.28266,1.31306z" fill="#000000" stroke="none" stroke-width="0.5"/><path d="M249.22543,190.56503c2.5,0 2.5,2.5 2.5,2.5l-0.01027,2.56738c-0.13304,1.44867 -0.34762,5.08902 -1.05397,6.21957c-2.46105,3.93903 -9.38225,5.64052 -13.16183,2.86508c-3.42627,-2.51599 -3.72025,-5.41134 -4.73209,-9.12141c0,0 -0.65779,-2.41191 1.75412,-3.0697c2.41191,-0.65779 3.0697,1.75412 3.0697,1.75412c0.6494,2.38112 0.68737,4.70138 2.75924,6.32945c1.43367,1.12657 5.16362,0.16089 6.0347,-1.34879c0.68236,-1.1826 0.22841,-2.72114 0.35065,-4.081l-0.01027,-2.1147c0,0 0,-2.5 2.5,-2.5z" fill="#000000" stroke="none" stroke-width="0.5"/><path d="M267.15607,194.51445c0,3.03836 -2.56789,5.50145 -5.73555,5.50145c-3.16766,0 -5.73555,-2.46308 -5.73555,-5.50145c0,-3.03836 2.56789,-5.50145 5.73555,-5.50145c3.16766,0 5.73555,2.46308 5.73555,5.50145z" fill="#ff94f1" stroke="none" stroke-width="NaN"/><path d="M230.01734,195.53468c0,3.03836 -2.56789,5.50145 -5.73555,5.50145c-3.16766,0 -5.73555,-2.46308 -5.73555,-5.50145c0,-3.03836 2.56789,-5.50145 5.73555,-5.50145c3.16766,0 5.73555,2.46308 5.73555,5.50145z" fill="#ff94f1" stroke="none" stroke-width="NaN"/></g></g></svg>