<svg version="1.1" xmlns="http://www.w3.org/2000/svg" xmlns:xlink="http://www.w3.org/1999/xlink" width="114.76518" height="107.19697" viewBox="0,0,114.76518,107.19697"><g transform="translate(-177.87861,-134.21672)"><g data-paper-data="{&quot;isPaintingLayer&quot;:true}" fill-rule="nonzero" stroke-linecap="butt" stroke-linejoin="miter" stroke-miterlimit="10" stroke-dasharray="" stroke-dashoffset="0" style="mix-blend-mode: normal"><path d="M280.5,180c0,22.09139 -18.13247,40 -40.5,40c-22.36753,0 -40.5,-17.90861 -40.5,-40c0,-22.09139 18.13247,-40 40.5,-40c22.36753,0 40.5,17.90861 40.5,40z" fill="#ffe820" stroke="#000000" stroke-width="2"/><path d="M274.25454,170.52245c0.03267,-0.47023 0.30045,-2.39745 2.49546,-2.39745c2.5,0 2.5,2.5 2.5,2.5l-0.10543,0.96837c-0.56078,1.83557 -1.19247,4.733 -2.8273,5.97936c-3.42551,2.61154 -8.36872,1.18277 -10.66971,-2.09505c-2.06204,-2.93744 -0.97858,-6.47654 -4.77415,-8.37091c-1.64506,-0.82105 -6.38373,-1.43458 -8.04048,-0.36675c-2.84232,1.83197 -3.33037,6.92618 -3.5932,9.86132c0,0 -0.22634,2.48973 -2.71607,2.26339c-2.48973,-0.22634 -2.26339,-2.71607 -2.26339,-2.71607c0.41729,-4.52847 1.5653,-10.96094 5.9068,-13.63868c4.29279,-2.64769 12.06484,-1.22447 15.5257,2.02531c2.73578,2.56892 2.59613,2.83491 3.69064,6.33515c0.45068,1.44126 0.05697,2.07616 1.47223,2.76233c2.52994,1.22661 2.91885,-1.28088 3.3989,-3.11032z" fill="#000000" stroke="none" stroke-width="0.5"/><path d="M211.14927,174.13278c1.41526,-0.68617 1.02155,-1.32108 1.47223,-2.76234c1.09451,-3.50024 0.95486,-3.76623 3.69064,-6.33515c3.46086,-3.24979 11.23291,-4.673 15.5257,-2.02531c4.34151,2.67774 5.48951,9.11021 5.9068,13.63868c0,0 0.22634,2.48973 -2.2634,2.71607c-2.48973,0.22634 -2.71607,-2.2634 -2.71607,-2.2634c-0.26282,-2.93514 -0.75088,-8.02935 -3.5932,-9.86132c-1.65675,-1.06784 -6.39541,-0.4543 -8.04047,0.36676c-3.79557,1.89437 -2.71211,5.43347 -4.77416,8.37091c-2.30099,3.27782 -7.24419,4.7066 -10.66971,2.09506c-1.63483,-1.24636 -2.26652,-4.1438 -2.82729,-5.97937l-0.10544,-0.96837c0,0 0,-2.5 2.5,-2.5c2.19501,0 2.46279,1.92723 2.49546,2.39746c0.48005,1.82944 0.86896,4.33693 3.3989,3.11032z" data-paper-data="{&quot;index&quot;:null}" fill="#000000" stroke="none" stroke-width="0.5"/><path d="M248.22392,190.39029c2.48471,-0.27608 2.76079,2.20863 2.76079,2.20863l0.00136,3.64411c-0.44379,0.88712 -2.33268,4.81583 -2.9683,5.39973c-3.00156,2.75735 -7.68055,2.64895 -10.57352,-0.28882c-0.93231,-0.94675 -2.22183,-4.44449 -2.76544,-5.80047c0,0 -0.92848,-2.32119 1.39272,-3.24967c2.32119,-0.92848 3.24967,1.39272 3.24967,1.39272c0.45804,1.14789 2.62573,7.54437 5.16104,4.41071c0.95941,-1.18583 1.34984,-2.73581 2.0317,-4.10027l-0.49864,-0.85589c0,0 -0.27608,-2.48471 2.20863,-2.76079z" fill="#000000" stroke="none" stroke-width="0.5"/><path d="M222.4422,157.02457c-0.08137,0 -0.16228,-0.00194 -0.2427,-0.00579c-0.40566,0.24311 -0.84866,0.43033 -1.31834,0.55104c-0.82159,0.65725 -1.85504,1.06071 -2.98155,1.09157c-0.68816,0.55142 -1.47581,1.01729 -2.08321,1.65101c-1.4465,1.5092 -2.68601,3.47136 -3.36362,5.45671c-0.07856,0.23017 -0.13265,0.45295 -0.16487,0.66923c0.05135,0.09472 0.10475,0.18825 0.1603,0.28048c1.90426,3.16155 3.70223,4.78525 4.97959,8.37719c-0.16332,2.53925 -0.1825,6.50989 -1.53641,8.95844c-0.03887,0.21535 -0.09154,0.42591 -0.15705,0.63073c-0.25061,0.78353 -0.68918,1.48335 -1.26268,2.04574c1.58843,2.19282 6.32223,8.60134 5.49238,11.92074c-0.60053,2.40213 -5.25753,7.15334 -5.02107,8.40788c0.43521,2.30895 2.06437,4.40933 3.63492,6.66981c0.19958,0.0627 0.39525,0.13316 0.57859,0.22633c2.15269,1.0941 4.27246,2.72655 6.6785,3.29402c4.15378,0.97968 8.99879,0.39915 13.22861,0.39915c5.43184,0 11.24299,0.10097 16.43398,-1.606c3.29049,-2.3388 6.89634,-4.89986 10.36958,-6.93208c1.41464,-0.82772 3.07854,-1.28744 4.58363,-1.91391c-0.53578,-0.52747 -1.05728,-1.07525 -1.61921,-1.56552c-0.44878,-1.50856 -1.60778,-2.97364 -1.34634,-4.52568c0.83327,-4.94669 6.94438,-8.91259 8.17857,-13.81015c0.1036,-0.41112 -0.69545,-0.50277 -0.96086,-0.83339c-0.76204,-0.94927 -1.64982,-1.85543 -2.1042,-2.98476c-0.57225,-1.42229 -0.95021,-2.97566 -0.91057,-4.50824c0.04289,-1.65849 1.67614,-2.96539 1.86795,-4.61331c0.29178,-2.50684 -5.38393,-6.83609 -6.0585,-9.28917c-0.17469,-0.63527 0.1238,-1.27216 0.37751,-1.9177c-1.7693,-0.12218 -3.48169,-0.37215 -4.8121,-0.4333c-12.9871,-0.59697 -25.51511,-3.5217 -38.17252,-6.33049c-0.72363,0.40717 -1.55885,0.63942 -2.44831,0.63942zM215.56179,138.41206c4.94606,-4.69891 9.1711,-5.1648 15.17211,-2.81114c1.94452,-0.05868 3.96594,0.11151 5.7545,0.11151c1.19272,0 2.36971,0.03588 3.53328,0.10685c0.01226,-0.00335 0.02423,-0.00643 0.03591,-0.00923c4.54635,-1.09197 7.63213,0.40612 11.59302,1.76513c1.04194,0.3575 2.76013,0.91745 4.5727,1.64533c1.72513,0.6211 3.44467,1.32073 5.16785,2.09571c3.58373,1.61174 7.19482,3.03145 9.95022,5.92764c0.45229,0.10148 0.85401,0.18955 1.18173,0.24892c5.60167,1.01474 9.96604,1.23984 12.8201,6.94798c1.66944,3.33889 0.52295,7.25881 0.625,10.74804c0.05745,1.96425 1.41485,3.15773 1.76777,4.64185c0.04857,0.20424 0.10955,0.55638 0.16992,0.98342c0.17637,0.28035 0.32548,0.57492 0.43904,0.8858c1.04374,0.42652 2.19857,0.72618 2.88528,1.56828c0.96899,1.18827 1.22849,2.86535 1.36534,4.3925c0.29976,3.34518 -0.83755,4.30611 -2.29798,6.921c-0.17201,0.30798 -0.34601,0.61971 -0.52122,0.93482c1.14267,0.95447 2.08665,2.08843 2.38436,3.80208c0.47923,2.75848 -4.88498,4.47309 -5.98916,6.50094c-0.62674,1.15102 2.19195,1.96707 2.17183,3.27751c-0.03251,2.11659 -1.46502,3.97213 -2.19753,5.9582c-0.24436,0.53948 -0.56947,1.05594 -0.85858,1.58266c0.14446,0.74416 0.25287,1.47192 0.28583,2.17425c0.01812,0.386 0.01315,0.76028 -0.01297,1.12388c0.82359,0.52451 2.00458,0.89593 2.78773,1.38286l2.31583,0.84212c0.98859,0.33349 1.70042,1.26832 1.70042,2.3694c0,1.04725 -0.64392,1.9441 -1.55744,2.31622c0.19208,0.30589 0.3308,0.69878 0.37665,1.2031c0.05941,0.65352 -0.06831,1.15109 -0.28902,1.52956c0.04264,0.18297 0.06518,0.37366 0.06518,0.56961h0.00006c0,0.69036 -0.27982,1.31536 -0.73223,1.76777l-1.75023,1.75023c-3.45938,4.91263 4.92334,9.9619 0.65413,15.49577c-0.92315,1.19661 -2.90902,0.82096 -4.36574,1.2235c-4.779,1.32063 -9.64846,0.99105 -14.56605,0.99105h-1.17052c-15.83994,0 -31.33753,-0.4708 -47.1171,-1.69184c-8.09692,-0.29951 -16.37772,-0.60267 -24.32532,-2.34027c-0.35542,-0.0777 -4.02362,-0.9981 -6.4149,-1.73998c-3.73909,1.72369 -9.53943,1.02629 -11.73155,-3.35797c-0.86298,-1.72596 -1.14901,-5.89969 0.18237,-7.16792c0.54973,-0.52365 1.42168,-0.80072 2.03798,-1.24891c-1.80823,-0.7529 -3.07946,-2.53692 -3.07946,-4.61785c0,-0.59264 0.10311,-1.16119 0.29236,-1.6887c-0.62468,-0.83452 -0.99467,-1.87074 -0.99467,-2.99338c0,-2.4296 1.7329,-4.45445 4.03015,-4.906c-0.0332,-0.23272 -0.05038,-0.4706 -0.05038,-0.71249c0,-1.19459 0.41893,-2.29134 1.1179,-3.15133c-0.26731,-0.61219 -0.41559,-1.28825 -0.41559,-1.99895c0,-2.76142 2.23858,-5 5,-5c0.16212,0 0.32244,0.00772 0.48062,0.0228c0.14122,-0.33627 0.28341,-0.6722 0.42614,-1.00794c-1.26011,-2.31135 0.9067,-3.75753 0.64815,-5.71024c-0.37497,-2.83196 -2.57975,-5.5981 -1.91456,-8.87475c0.08114,-0.39969 0.28392,-1.12984 0.57348,-1.90799c-1.10665,-1.55411 -2.27963,-3.44518 -2.42416,-4.38776c-0.88058,-5.74287 3.77986,-7.73771 7.89502,-10.36129c0.93963,-0.59905 1.96821,-1.04679 2.93086,-1.60811c0.14728,-0.08588 0.36811,-0.14843 0.54461,-0.23263c0.0874,-0.09257 0.18987,-0.19233 0.28233,-0.29719c0.00118,-0.0167 0.00067,-0.0341 -0.00167,-0.05225c-0.05847,-0.45296 -0.74913,-0.54762 -1.0187,-0.9163c-0.79536,-1.08781 -1.81238,-2.11787 -2.15304,-3.42166c-0.20894,-0.79968 -0.30778,-1.67065 -0.30022,-2.56754c-0.84045,-1.65468 -1.28015,-3.36172 -0.53303,-5.01346c0.67474,-1.49172 1.99525,-2.15736 3.42112,-2.58166c0.5306,-0.54843 1.13149,-1.01467 1.80035,-1.36994c0.54365,-0.28877 1.08748,-0.53118 1.63276,-0.73718c1.72049,-4.70938 7.46616,-5.39654 12.9967,-5.30913c0.19942,-1.05379 0.72952,-1.99062 1.47831,-2.69854c0.37115,-0.45762 0.78976,-0.89277 1.23602,-1.31673zM214.47153,186.7307c0.00002,0.00004 0.00004,-0.00002 0.00007,-0.00007c-0.00002,0.00002 -0.00005,0.00004 -0.00007,0.00007zM285.88439,181.21243c-0.37979,0 -0.73979,-0.08469 -1.06217,-0.23621c0.0225,0.13119 0.05692,0.23871 0.1049,0.31678c0.24749,0.4027 0.53992,0.7654 0.86309,1.1008c0.05459,-0.09636 0.10905,-0.19233 0.16336,-0.28789c0.08479,-0.14919 0.3104,-0.50885 0.57989,-0.97856c-0.20699,0.0555 -0.42458,0.08509 -0.64908,0.08509zM287.56165,176.66539c-0.19505,-0.14528 -0.42578,-0.20991 -0.6712,-0.24228c0.39793,0.17512 0.74153,0.45096 0.99854,0.79522c-0.04562,-0.23033 -0.14927,-0.4203 -0.32734,-0.55294zM276.67771,215.78692c0.02881,0.0925 0.0645,0.1822 0.10583,0.26959c0.01654,-0.1973 0.05932,-0.38358 0.11682,-0.555c-0.15486,0.06685 -0.26543,0.14803 -0.22265,0.28541zM277.0774,201.76948c0.54601,-0.04851 1.1081,-0.28574 1.63803,-0.14553c0.15912,0.0421 0.32565,0.07917 0.49676,0.11376c-0.03602,-0.5318 -0.06057,-1.07035 -0.06957,-1.60003c-0.81026,0.7058 -1.55331,1.28887 -2.06522,1.6318zM269.33815,217.8078c0,-0.00047 0,-0.00093 0,-0.0014c-0.17964,0.10647 -0.35653,0.21108 -0.53008,0.31381l0.22083,-0.00316c0,0 0.13058,0 0.33205,0.02984c-0.01504,-0.11089 -0.0228,-0.22408 -0.0228,-0.33909zM278.93877,194.50579c-0.1539,-0.37937 -0.74659,-0.39095 -1.253,-0.44918c-0.08281,0.14085 -0.16602,0.281 -0.24944,0.42026c0.54328,-0.12695 1.68976,0.49065 1.50244,0.02891zM276.88172,180.80902c0.04603,-0.33218 0.11647,-0.66627 0.19484,-0.99872c-0.16156,-0.12307 -0.29562,-0.26317 -0.40687,-0.41092c-0.03693,0.51229 0.04664,0.9773 0.21203,1.40964zM242.0909,149.51044c-0.40334,-0.19142 -0.82165,-0.36211 -1.26086,-0.50467c-0.24119,-0.07828 -0.48243,-0.15721 -0.72385,-0.236c0.66535,0.2783 1.32217,0.51907 1.98471,0.74067zM202.12727,160.00347c-0.52862,-0.75523 -1.83613,-1.72493 -2.93202,-2.71084c0.2799,0.67073 0.5557,1.34348 0.87778,1.9943c0.52144,1.05366 1.45063,1.96824 1.9021,3.03281c-0.10289,-0.84164 -0.07602,-1.50511 0.19072,-2.26051c-0.01281,-0.01872 -0.02567,-0.0373 -0.03858,-0.05575zM212.61551,151.7463c0.07179,-0.36629 -0.85584,-0.09063 -1.10381,0.18836c-0.31177,0.35077 -0.59848,0.75231 -0.7822,1.18826c0.48313,-0.15587 0.97172,-0.31026 1.46265,-0.47192c0.19969,-0.27673 0.35788,-0.5706 0.42336,-0.9047zM200.15456,211.09041c0.06691,-0.07495 0.1338,-0.14909 0.20027,-0.22242c0.00214,-0.07239 0.00583,-0.14439 0.01102,-0.21597c-0.16595,0.04007 -0.33175,0.0787 -0.4969,0.11479c0.09156,0.11071 0.18687,0.21857 0.2856,0.3236zM192.27155,201.92178c-0.0104,0.025 -0.02081,0.04999 -0.03121,0.075c0.00689,0.01825 0.01367,0.03656 0.02035,0.05491c0.00348,-0.0433 0.0071,-0.0866 0.01086,-0.12991zM199.56946,186.6463c0.03602,0.1773 0.06384,0.35922 0.08288,0.5461c0.00526,0.05164 0.00882,0.10308 0.01077,0.15433c0.2361,0.13156 0.42673,0.28275 0.57993,0.44567c0.0279,-0.01892 0.05646,-0.03732 0.08571,-0.05515c-0.24921,-0.35136 -0.5072,-0.7068 -0.75929,-1.09095zM210.19154,175.8007c0.01552,0.80112 0.0321,1.63079 -0.07049,2.43167c0.01413,-0.00242 0.02827,-0.00478 0.04244,-0.00708c0.64129,-0.78913 1.20626,-1.59648 1.64953,-2.41796c0.54008,-1.00089 -1.20918,-1.89881 -1.89533,-2.8362c0.15031,0.93781 0.25545,1.87976 0.27385,2.82958zM202.99173,201.44892c0.04775,0.06685 0.09729,0.13248 0.14847,0.19698c0.1128,-0.46922 0.21365,-0.93699 0.28511,-1.40468c-0.1245,0.08506 -0.25318,0.17363 -0.3862,0.26637c-0.02404,0.33038 -0.04685,0.63741 -0.06788,0.91235c0.00676,0.00965 0.01359,0.0193 0.0205,0.02898zM202.52926,165.34017c-0.03581,-0.12913 -0.06649,-0.25854 -0.09023,-0.38828c-0.06507,-0.35563 -0.12741,-0.68227 -0.1849,-0.98512c-0.00857,0.61637 -0.11321,1.18155 -0.29298,1.70618c0.19599,-0.1147 0.38618,-0.22593 0.56811,-0.33278zM272.87676,201.68703c0.27942,-0.54112 0.55629,-1.08369 0.83737,-1.62386c-0.37325,0.52922 -0.70719,1.08129 -0.83737,1.62386zM216.43353,234.49925c-1.27168,-0.17005 -3.54071,-0.25308 -6.04283,-0.28759c2.03003,0.13105 4.05378,0.21688 6.04283,0.28759z" fill="#ff8037" stroke="none" stroke-width="0.5"/></g></g></svg>