<svg version="1.1" xmlns="http://www.w3.org/2000/svg" xmlns:xlink="http://www.w3.org/1999/xlink" width="154.60807" height="166.45979" viewBox="0,0,154.60807,166.45979"><g transform="translate(-171.52752,-54.54021)"><g data-paper-data="{&quot;isPaintingLayer&quot;:true}" fill-rule="nonzero" stroke-linecap="butt" stroke-linejoin="miter" stroke-miterlimit="10" stroke-dasharray="" stroke-dashoffset="0" style="mix-blend-mode: normal"><path d="M280.5,180c0,22.09139 -18.13247,40 -40.5,40c-22.36753,0 -40.5,-17.90861 -40.5,-40c0,-22.09139 18.13247,-40 40.5,-40c22.36753,0 40.5,17.90861 40.5,40z" fill="#ffe820" stroke="#000000" stroke-width="2"/><path d="M212.1097,178.09648c-0.71321,0.50943 -1.42642,1.01887 -2.13962,1.5283c0,0 -2.03433,1.4531 -3.48743,-0.58124c-1.4531,-2.03433 0.58124,-3.48743 0.58124,-3.48743c0.71321,-0.50943 1.42642,-1.01887 2.13962,-1.5283l1.29418,-0.6675c-0.09337,-0.58683 -0.14388,-1.24585 -0.1703,-1.91363c-0.82892,0.25562 -1.64988,0.53743 -2.4609,0.84308l-2.30077,0.43082c0,0 -2.46598,0.411 -2.87698,-2.05499c-0.411,-2.46598 2.05499,-2.87698 2.05499,-2.87698l1.36715,-0.1805c1.68886,-0.63049 3.41382,-1.17296 5.16204,-1.61284c0,0 0.66655,-0.16664 1.38815,0.02424l0.454,-0.40454c0,0 2.5,0 2.5,2.5c0,0.52 -0.10816,0.93185 -0.27949,1.25802c0.20621,4.48036 1.68731,7.05593 6.46994,8.58144c1.5458,0.49306 3.9751,1.14902 5.4651,0.03285c2.61656,-1.96008 2.68582,-6.02233 2.91535,-8.85728c0,0 0.20761,-2.49136 2.69898,-2.28375c2.49136,0.20761 2.28375,2.69898 2.28375,2.69898c-0.37984,4.44496 -0.95923,9.6933 -5.03182,12.53895c-5.28845,3.69521 -13.4256,0.64507 -17.43759,-4.26903z" fill="#000000" stroke="none" stroke-width="0.5"/><path d="M275.55305,178.70849c-1.11803,2.23607 -3.3541,1.11803 -3.3541,1.11803c-1.25363,-0.62682 -3.23031,-1.61515 -4.81797,-2.40898c-4.11927,4.67034 -11.94981,7.45042 -17.08958,3.8591c-4.07259,-2.84565 -4.65198,-8.09398 -5.03182,-12.53894c0,0 -0.20761,-2.49137 2.28375,-2.69898c2.49137,-0.20762 2.69898,2.28376 2.69898,2.28376c0.22953,2.83495 0.2988,6.8972 2.91535,8.85728c1.49,1.11617 3.91931,0.46022 5.4651,-0.03284c4.78262,-1.52551 6.26373,-4.10108 6.46994,-8.58144c-0.17133,-0.32618 -0.27949,-0.73802 -0.27949,-1.25803c0,-2.5 2.5,-2.5 2.5,-2.5l0.26211,0.23355c0.71349,-0.11654 1.33601,0.09096 1.33601,0.09096c1.65175,0.55179 3.32219,1.05357 5.012,1.47465l0.92196,-0.07464c0,0 2.5,0 2.5,2.5c0,2.5 -2.5,2.5 -2.5,2.5l-2.13464,-0.07464c-0.876,-0.21966 -1.74736,-0.45858 -2.61412,-0.71341c-0.03608,0.82973 -0.111,1.64075 -0.26094,2.31077c1.1256,0.5628 2.25119,1.1256 3.37679,1.68839l1.22264,0.61132c0,0 2.23607,1.11803 1.11803,3.3541z" fill="#000000" stroke="none" stroke-width="0.5"/><path d="M243.72264,197.15272c0,2.5 -2.5,2.5 -2.5,2.5c-1.93585,0 -5.70566,0 -7.64151,0c0,0 -2.5,0 -2.5,-2.5c0,-2.5 2.5,-2.5 2.5,-2.5c1.93585,0 3.8717,0 5.80755,0h1.83396c0,0 2.5,0 2.5,2.5z" fill="#000000" stroke="none" stroke-width="0.5"/><path d="M189.79455,141.75108c0.34737,0.38573 0.68169,0.76665 0.9942,1.1434c0.37427,0.4512 0.71603,0.91114 1.03228,1.37833c-0.48817,-1.16165 -1.00352,-2.30193 -1.55891,-3.40841c-0.00405,-0.00806 -0.00809,-0.01612 -0.01214,-0.02418zM183.68004,97.68155c-1.39226,-3.48119 -3.45332,-6.4338 -5.33733,-9.66819c-0.46308,-0.79499 -0.91412,-1.59818 -1.41733,-2.36839c-0.07911,-0.12109 -0.16922,-0.23596 -0.26412,-0.348c0.16228,1.03204 0.28404,2.07112 0.43961,3.10433c0.26204,2.09659 0.5339,4.19197 0.8128,6.28648c0.23272,0.15984 0.43702,0.35804 0.60379,0.58549l1.48254,1.97672c2.2803,3.04841 4.16911,6.33098 5.84298,9.73538c0.0027,-0.00459 0.00541,-0.00917 0.00813,-0.01374c-0.2634,-1.84529 -0.5175,-3.69032 -0.76305,-5.53345c-0.44321,-1.2617 -0.91122,-2.51446 -1.40802,-3.75665zM184.24579,134.65162c0.49964,1.06572 1.19373,2.08601 1.97385,3.06894l0.5443,-1.08859c0,0 0.30281,-0.60562 0.90843,-1.02891c-2.03364,-4.20643 -3.99767,-8.43223 -5.95348,-12.66906c0.40358,4.02843 0.8831,8.2114 2.52691,11.71763zM183.7299,142.70039c-1.53209,-1.80875 -2.96642,-3.68132 -3.97569,-5.85201c-2.56165,-5.50943 -2.69611,-12.15358 -3.52428,-18.07041c-0.55006,-3.92987 -1.11159,-7.85857 -1.66641,-11.78823c-0.41232,-1.39303 -0.65724,-2.83089 -0.608,-4.33242c-0.63256,-4.54185 -1.24726,-9.08603 -1.81605,-13.63585c-0.33814,-3.18965 -2.17804,-8.87755 2.78614,-10.7046c0.55582,-0.20457 1.11234,-0.09773 1.6584,0.16703c-0.28645,-1.13039 -0.46199,-2.29989 -0.49064,-3.519l-0.89352,-2.23379c-0.12865,-0.30123 -0.19986,-0.63286 -0.19986,-0.98112c0,-1.38071 1.11929,-2.5 2.5,-2.5c0.92661,0 1.73548,0.50412 2.16731,1.25305l1.47643,2.46071l-0.06465,0.03879l0.14682,0.10932c0.2651,0.61622 0.52265,1.23591 0.77409,1.85842v-1.22029c0,-1.38071 1.11929,-2.5 2.5,-2.5c0.77682,0 1.4709,0.35431 1.92943,0.91014c-0.7602,-2.30547 -1.41229,-4.61599 -1.88088,-6.91985c0,0 -0.49029,-2.45145 1.96116,-2.94174c0.94417,-0.18883 1.59743,0.05871 2.0438,0.4345c0.23814,-1.13266 1.24301,-1.98305 2.44649,-1.98305c0.82831,0 1.56254,0.40283 2.01746,1.02328l1.39758,1.86344c3.06161,2.99623 6.36124,5.60701 9.73947,8.23908c1.285,1.28298 2.72487,2.40293 4.07235,3.61997c-0.78312,-3.23793 -1.52387,-6.48601 -2.17831,-9.75549c0,0 -0.49029,-2.45145 1.96116,-2.94174c2.45145,-0.49029 2.94174,1.96116 2.94174,1.96116c1.04174,5.21317 2.30429,10.3723 3.60875,15.52273c-0.03741,-2.28764 -0.1752,-4.56738 -0.55168,-6.82624l0.08913,-0.2062h-0.09765v-2.5c0,-1.38071 1.11929,-2.5 2.5,-2.5c1.22888,0 2.25067,0.88665 2.46053,2.05512l0.21852,1.09262c0.32841,0.29788 0.57726,0.68189 0.71088,1.11638l0.98177,2.94531l-0.10515,0.03505c0.07021,0.11616 0.13737,0.23444 0.20117,0.35506c0.24671,0.46647 0.18418,1.00015 0.08257,1.54666c0.13448,1.30826 0.42412,2.49563 0.80471,3.62948c1.26292,2.38215 3.37987,6.19221 3.47602,6.36554c1.17845,2.12453 2.43676,4.2478 3.71916,6.37718c-1.91501,-7.03862 -3.53257,-14.43037 -4.28074,-21.77487l-0.14114,0.04705l-0.98155,-2.94464c-0.09499,-0.2642 -0.14675,-0.54902 -0.14675,-0.84593c0,-1.38071 1.11929,-2.5 2.5,-2.5c0.43134,0 0.83716,0.10924 1.19132,0.30156l2.53151,1.30843l-0.08659,0.16752l0.51886,0.11608c1.42443,1.72902 3.12643,3.52456 4.78767,5.40108c0.01333,-0.10581 0.03218,-0.21135 0.05733,-0.3166c0.02593,-0.10852 0.05418,-0.21621 0.0846,-0.32312l-0.05957,-0.00851l0.4948,-3.46361c0.15585,-1.23096 1.2068,-2.18283 2.48007,-2.18283c1.22888,0 2.25067,0.88665 2.46053,2.05512l0.49092,2.45459c0.68272,3.49258 0.4832,6.88616 -0.05542,10.25053c0.02527,0.11013 0.05099,0.22016 0.07715,0.3301c0.15895,0.39559 0.30068,0.79466 0.42318,1.1973c0.23333,0.7669 0.41813,1.55876 0.56395,2.3694c0.16965,0.54918 0.34518,1.09662 0.52408,1.6426c0.01282,-0.12947 0.02564,-0.25895 0.03848,-0.38842c0.47068,-4.74794 -0.30861,-10.10097 0.51089,-14.73759l0.01559,-4.99898c0.00367,-1.37758 1.12155,-2.49319 2.49999,-2.49319c1.17258,0 2.15661,0.80727 2.42664,1.89636l1.29774,4.77246c0.22178,0.81558 0.44053,1.63293 0.65706,2.45167c1.57632,-3.92439 3.13874,-7.85384 4.83861,-11.69478c0.00722,-0.05698 0.01444,-0.11396 0.02166,-0.17093l0.01289,-0.10172l-0.20894,-0.03563l0.8334,-4.88771c0.18265,-1.20083 1.2196,-2.12094 2.47145,-2.12094c1.38071,0 2.5,1.11929 2.5,2.5c0,0.1201 -0.00847,0.23822 -0.02484,0.3538l-0.62364,4.92085c-0.2377,1.87557 -0.47532,3.75116 -0.71291,5.62675c0.296,-0.12344 0.62081,-0.1916 0.96154,-0.1916c0.92661,0 1.73548,0.50412 2.16731,1.25305l1.30425,2.17375c0.54368,0.43162 1.15959,0.79556 1.7003,1.22997c1.7785,-0.458 4.09288,-0.80855 5.42474,0.41945c2.1556,1.98751 2.61079,11.89954 2.89781,14.77414c0.00306,3.69449 0.1859,7.47228 0.00246,11.20028c0.16253,-0.03321 0.3308,-0.05065 0.50314,-0.05065c0.33059,0 0.6462,0.06417 0.93504,0.18073c1.18848,-3.14633 2.37693,-6.29267 3.56891,-9.43766c0.61507,-1.62283 0.83297,-3.46012 1.84912,-4.867c0.04055,-0.05614 0.08157,-0.11189 0.12303,-0.16725l-0.02663,-0.01549l2.48982,-4.28102c0.42717,-0.76611 1.24558,-1.28427 2.18501,-1.28427c0.90885,0 1.70443,0.48497 2.14206,1.21025l0.6476,-1.27011c0.40457,-0.83571 1.26073,-1.41206 2.2515,-1.41206c1.34183,0 2.43675,1.05713 2.49736,2.38399l0.12227,2.31851c0.02388,-0.00067 0.04784,-0.00101 0.07187,-0.00101c1.38071,0 2.5,1.11929 2.5,2.5c0,0.26156 -0.04017,0.51374 -0.11467,0.7507l-1.37418,4.74726c-0.16074,2.21422 -2.42598,6.59375 -3.17322,8.23119c-0.02825,0.06191 -0.05651,0.12382 -0.08476,0.18574c3.03186,-4.16524 6.1354,-8.27558 9.22515,-12.39979c0.67454,-0.90038 5.33913,-7.24536 6.23698,-7.96451c0.00299,-0.0024 0.00598,-0.00479 0.00897,-0.00718l-0.00178,-0.00149l2.48778,-2.98533c0.4585,-0.55817 1.15406,-0.91421 1.93278,-0.91421c1.38071,0 2.5,1.11929 2.5,2.5c0,0.53545 -0.16833,1.03158 -0.45497,1.43836c-6.83939,9.99624 -15.56351,22.74715 -22.4029,32.74338c-0.03501,0.17863 -0.07447,0.35778 -0.11774,0.53709c0.46583,0.20951 0.85589,0.55751 1.11776,0.99157c1.55653,-2.37135 3.23608,-4.74832 5.24684,-6.49742c4.50197,-5.88903 9.39012,-11.43981 15.2839,-16.20779c2.31402,-1.87201 8.85109,-7.50077 12.51044,-3.3745c0.93478,1.05406 -1.43453,6.90693 -2.76773,10.05212l0.40199,-0.42393c0.45579,-0.48269 1.10172,-0.78393 1.818,-0.78393c1.38071,0 2.5,1.11929 2.5,2.5c0,0.64032 -0.24073,1.22441 -0.63662,1.66671c-1.26111,1.42239 -5.49979,6.20313 -7.06771,7.97155l3.41336,-2.98669c0.44092,-0.38989 1.02051,-0.62653 1.65538,-0.62653c1.38071,0 2.5,1.11929 2.5,2.5c0,0.57191 -0.19204,1.09897 -0.51515,1.5202l-1.43025,1.90699c-4.56686,7.5188 -9.00216,15.39719 -14.64705,22.18874c-4.01937,4.83584 -9.08585,9.09789 -13.53318,13.54523c-4.14903,4.14903 -8.63807,10.47076 -13.89822,13.21552l-3.91474,3.07587c-0.42783,0.34257 -0.97069,0.54745 -1.56141,0.54745c-1.38071,0 -2.5,-1.11929 -2.5,-2.5c0,-0.40293 0.09532,-0.78359 0.26464,-1.12067l-1.08867,0.97572c-0.44339,0.40084 -1.03118,0.64495 -1.67597,0.64495c-1.38071,0 -2.5,-1.11929 -2.5,-2.5c0,-0.57191 0.19204,-1.09897 0.51515,-1.5202l1.48485,-1.9798c0.06859,-0.15535 0.37085,-0.08757 0.64709,0.01103l0.02242,-0.02009c-0.89221,-0.2638 -2.26682,-0.17349 -2.10791,-0.93942c0.1407,-0.67817 0.5699,-1.49993 1.15771,-2.37787c-2.52118,1.58292 -6.55288,4.11397 -6.55897,4.11629c-0.0262,0.00998 -0.05242,0.01989 -0.07867,0.02972l0.00594,0.01102l-4.36098,2.34822c-0.36238,0.20444 -0.78088,0.3211 -1.22662,0.3211c-1.38071,0 -2.5,-1.11929 -2.5,-2.5c0,-0.58807 0.20305,-1.12872 0.54286,-1.55566l2.53744,-3.25056c-0.1521,-0.00002 -0.30934,-0.00391 -0.47188,-0.01182c-0.25988,-0.01264 -0.51326,-0.05276 -0.76093,-0.11557c-1.06567,2.63034 -2.18238,5.2345 -3.37074,7.80022l-1.68506,3.63404c-0.38593,0.88261 -1.26679,1.49935 -2.29169,1.49935c-1.38071,0 -2.5,-1.11929 -2.5,-2.5v-2.5h0.01402c-0.00444,-0.02518 -0.00873,-0.0504 -0.01287,-0.07565c-0.21777,-1.3272 0.03945,-2.67874 0.20541,-4.02559c-0.22405,0.06589 -0.46117,0.10124 -0.70656,0.10124c-0.56555,0 -1.08723,-0.18779 -1.5061,-0.50442l-2.10788,-1.55603l0.03785,-0.05128c-0.14808,-0.24464 -0.28627,-0.57048 -0.42387,-0.90123v0.51296c0,1.38071 -1.11929,2.5 -2.5,2.5c-0.80896,0 -1.52817,-0.38422 -1.98511,-0.98014l-2.58304,-3.30396c-0.10197,-0.1305 -0.20708,-0.25906 -0.31436,-0.38628c-0.44244,0.70312 -1.2254,1.17038 -2.11749,1.17038c-0.99801,0 -1.85943,-0.58479 -2.26029,-1.43041l-1.41197,-2.82393c-0.4371,-0.62686 -0.9114,-1.23044 -1.34789,-1.85768c-0.00834,0.0382 -0.0186,0.07643 -0.03091,0.11468c-0.05166,0.16062 -0.11018,0.31781 -0.17479,0.47197l0.0237,0.01016l-1.4773,3.44704c-0.13385,0.33301 -0.3373,0.63055 -0.59234,0.87462c0.19073,0.30123 0.3461,0.62148 0.45119,0.96873c0.04589,0.15164 0.08686,0.30407 0.12335,0.45722l0.06894,-0.02298l1.48155,4.44464c0.09499,0.2642 0.14675,0.54902 0.14675,0.84593c0,1.38071 -1.11929,2.5 -2.5,2.5c-1.04909,0 -1.94725,-0.64619 -2.31818,-1.56226l-0.99017,-2.29447l0.02398,-0.01035l-0.04504,-0.03993c-0.36331,-0.95391 -0.72227,-1.90996 -1.07853,-2.86737c-1,-0.77356 -1.92854,-1.68488 -2.80972,-2.66701l-0.89242,2.67727c-0.31417,1.02156 -1.26534,1.76412 -2.38994,1.76412c-0.31262,0 -0.61183,-0.05738 -0.88769,-0.16218c-0.44335,0.69856 -1.22369,1.16218 -2.11231,1.16218c-0.34826,0 -0.67989,-0.07121 -0.98112,-0.19986l-2.44736,-0.97894l0.02802,-0.07006c-0.16026,-0.0482 -0.31893,-0.10255 -0.47578,-0.16403c-0.71528,-0.28034 -1.54274,-1.20265 -2.30463,-2.17948c-0.33318,0.4648 -0.66635,0.9296 -0.99953,1.3944l0.08311,0.16328c0,0 1.11803,2.23607 -1.11803,3.3541c-0.65309,0.32655 -1.21081,0.36697 -1.67315,0.26055c-0.29674,0.41397 -0.59348,0.82794 -0.89022,1.24192l0.07881,0.19702c0.12865,0.30123 0.19986,0.63286 0.19986,0.98112c0,1.38071 -1.11929,2.5 -2.5,2.5c-0.11176,0 -0.22181,-0.00733 -0.32969,-0.02155c-2.08529,3.09083 -4.17294,6.32057 -6.57107,9.03867c-1.5933,1.80588 -2.73164,5.24958 -5.13416,5.08318c-3.77261,-0.2613 -4.96185,-8.51864 -5.51102,-10.92191c-1.4116,-6.17743 -2.26086,-12.19118 -0.34121,-18.3837c0.06106,-0.19696 0.8442,-1.79006 1.61705,-3.3443zM220.96937,92.11668c-0.11258,-0.38255 -0.23132,-0.75847 -0.35724,-1.12636c-0.10643,-0.31094 -0.21711,-0.61633 -0.33112,-0.91697c-0.26152,-0.46888 -0.52221,-0.93773 -0.78098,-1.4069c-0.00002,0.02785 -0.00003,0.0557 -0.00003,0.08355c0,0.5385 -0.00149,1.07745 -0.00424,1.61679c0.48093,0.59067 0.97409,1.17253 1.47361,1.74989zM259.89271,121.94518c-0.26845,-0.48517 -0.52636,-0.97598 -0.77287,-1.47197c-0.22401,1.68007 -0.44993,3.35989 -0.67663,5.03961c0.4668,-0.8482 0.87709,-1.68818 1.17318,-2.51674c0.1248,-0.34924 0.21508,-0.69962 0.27633,-1.05091zM245.30073,139.86315c-1.17634,-1.2138 -1.89454,-3.10258 -2.99893,-4.42239c-0.58597,-1.36506 -1.11066,-2.74729 -1.58916,-4.14275c-0.16625,-0.27843 -0.3321,-0.55717 -0.4976,-0.83622c-0.10874,0.09333 -0.2256,0.17748 -0.34937,0.25123c-0.04897,0.07163 -0.09794,0.14326 -0.1469,0.2149c0.37668,0.81003 0.76767,1.61496 1.11803,2.43363c1.25423,3.75676 4.93703,10.29906 -2.11229,11.37835c-0.06741,0.01032 -0.13456,0.01785 -0.20147,0.02276c0.30715,0.31992 0.60715,0.64619 0.89911,0.97928c0.07463,-0.06967 0.17625,-0.11979 0.31002,-0.14661c1.69339,-0.33955 3.29502,0.60197 4.90102,1.48232l-0.00932,-0.12117l0.03395,-0.00261c-1.31718,-2.35343 -2.27979,-5.27957 0.6429,-7.0907zM195.43902,120.91973c0.50943,2.25913 1.01824,4.51797 1.55156,6.76865c0.49228,2.07744 1.18165,4.32536 1.86253,6.6348c1.2941,1.43641 2.69229,2.7986 3.95497,4.15381c0.34144,-0.89238 0.70065,-1.73342 1.04151,-2.34915c-0.30674,-0.2698 -0.54684,-0.61357 -0.6924,-1.00343l-0.96987,-2.42468c-1.14908,-2.68065 -2.29991,-5.36315 -3.44535,-8.04904c-1.09312,-1.25135 -2.19337,-2.49578 -3.30294,-3.73095zM255.63626,110.49289c-0.01576,0.4355 -0.03196,0.87097 -0.04856,1.3064l0.32815,-0.82036l-0.01229,-0.03276c-0.09077,-0.14857 -0.17985,-0.29971 -0.2673,-0.45327zM258.21185,95.39117c0.09338,-1.12642 0.1908,-2.25579 0.30032,-3.38752c0.22473,-2.3222 0.81858,-4.56196 1.63923,-6.72301c-0.49541,0.63015 -0.99555,1.26684 -1.50259,1.89949c-0.57605,1.56558 -1.14429,3.11102 -1.64474,4.67637l0.36764,1.10293l-0.01064,0.00355c0.0106,0.02082 0.02116,0.04168 0.03166,0.06256c0.32629,0.64872 0.59248,1.46608 0.81912,2.36563zM306.26786,109.04858c0.54456,-0.66774 1.08967,-1.33503 1.63568,-2.00158c1.13347,-1.38371 1.88378,-3.21084 3.41044,-4.14289c0.10494,-0.06407 0.21161,-0.12404 0.31985,-0.18031l-0.03144,-0.04664l2.33964,-1.5775c0.04698,-0.03266 0.09514,-0.06375 0.14439,-0.09319c0.0252,-0.06074 0.0504,-0.12148 0.0756,-0.18222c1.2773,-3.0789 2.07458,-6.40422 3.83191,-9.23669c0.54392,-0.87669 1.84589,-1.16929 2.26086,-2.11387c0.33904,-0.77174 -1.33862,1.0248 -2.00767,1.53754c-1.13109,0.86684 -2.30368,1.68212 -3.39276,2.60119c-1.35341,1.14215 -2.68974,2.30718 -3.99477,3.50563c0.06656,0.2251 0.10229,0.46343 0.10229,0.71011c0,0.41138 -0.09936,0.79955 -0.2754,1.14183l-2.13929,4.38713c-0.75884,1.89335 -1.51244,3.79429 -2.27934,5.69146zM272.13032,122.99411c0.61804,-2.52095 1.27316,-5.0436 1.92371,-7.59122c-0.70043,1.85271 -1.40085,3.70542 -2.10128,5.55814c0.01307,0.19837 0.02652,0.39662 0.04037,0.59474c0.03245,0.46437 0.07967,0.94489 0.1372,1.43835zM248.81635,131.88558c-1.67699,-2.37801 -3.22393,-4.88373 -4.59947,-7.47886c-0.02344,0.04483 -0.0482,0.08886 -0.07423,0.13204c1.39109,3.02583 2.91837,6.02507 4.45856,9.01591c0.01146,-0.03412 0.02155,-0.06884 0.03008,-0.10422c0.12317,-0.51041 0.16416,-1.03594 0.18505,-1.56487zM233.90343,91.07327c0.6184,-2.8538 1.39076,-5.71529 1.92315,-8.58401c-1.60247,-2.3977 -3.5354,-4.66726 -5.45819,-6.91852c0.0241,0.25567 0.05453,0.50866 0.09572,0.75718c0.62243,3.75493 1.73667,7.19427 2.48999,10.94525c0.26335,1.31127 0.58594,2.57163 0.94932,3.8001zM236.37865,135.81283c-0.38035,0.55612 -0.76073,1.11221 -1.14114,1.66829c1.06301,0.71035 2.15722,1.38926 3.03797,2.27898c0.497,0.50206 -0.89659,-1.11727 -1.16381,-1.77124c-0.28955,-0.70861 -0.50592,-1.44431 -0.73303,-2.17603zM211.35267,102.29914c-1.97165,-4.73015 -4.75631,-9.08654 -5.33775,-14.27635c-0.17612,-1.57205 -0.5657,-3.2802 0.03018,-4.74556c0.05981,-0.14708 0.12636,-0.29014 0.19883,-0.42966l-0.06513,-0.02605l0.65221,-1.63052c-0.3602,-0.41083 -0.73158,-0.80877 -1.11637,-1.191c-1.48877,-1.47884 -3.1912,-2.7319 -4.69067,-4.19913c-0.03045,0.2605 -0.05048,0.51975 -0.03027,0.77191c0.2311,2.88274 0.78803,4.78475 1.79565,7.62067c3.26562,9.19102 6.63714,18.34069 9.82526,27.59434c0.61191,0.35675 1.24296,0.70714 1.88506,1.05633c-0.00033,-1.01599 -0.00057,-2.03198 -0.00074,-3.04797c-1.05625,-2.49027 -2.10108,-4.9895 -3.14627,-7.497zM221.64377,132.88599c-0.1485,0.85045 -0.33077,1.69449 -0.55138,2.53084c0.56313,1.43079 1.12,2.86383 1.67277,4.29857c0.11041,0.13012 0.22052,0.26221 0.32991,0.3954c0.08925,-0.53391 0.32431,-1.04944 0.76372,-1.52319c-0.51688,-1.26349 -1.01241,-2.49531 -1.17999,-2.90913c-0.36478,-0.92007 -0.70901,-1.85146 -1.03504,-2.79249zM265.72772,91.78798c-1.35994,6.49171 -2.51647,13.7426 -2.23258,20.30623c0.07758,1.79367 0.59186,3.54096 0.99901,5.2991c0.67897,-1.85882 1.35815,-3.71757 2.03839,-5.57592c-0.24517,-6.15228 -0.38724,-12.31264 -0.71927,-18.45431c-0.02838,-0.52504 -0.05693,-1.05007 -0.08555,-1.5751zM187.18206,146.73412c-0.12342,0.3002 -0.23575,0.60489 -0.33375,0.91538c-1.65237,5.23545 -0.69404,10.46733 0.48142,15.67078c0.34364,1.5212 0.79839,3.02262 1.01663,4.56681c0.11551,0.81731 -0.67128,2.9849 -0.02125,2.47619c0.81595,-0.63856 0.24607,-2.10263 0.72074,-3.02361c1.64847,-3.19846 4.29948,-6.36062 6.65351,-9.37653c-0.68153,-0.06503 -1.34684,-0.24526 -1.93111,-0.53764c-1.97856,-0.99011 -2.62292,-4.28472 -3.51956,-6.08848c-0.83216,-1.67405 -1.90539,-3.17184 -3.06663,-4.6029zM250.73829,96.56939c-0.05161,-0.25039 -0.06392,-0.6712 -0.04802,-1.20334c-0.02804,-0.10304 -0.05609,-0.20609 -0.08413,-0.30913c-1.26324,0.8933 -2.65584,1.66797 -4.0455,1.79599c-0.01685,0.17835 -0.03368,0.35671 -0.05048,0.53506c1.27346,2.85947 2.61009,5.68825 3.87115,8.55183c0.13899,-0.19921 0.27899,-0.39685 0.42009,-0.59267c0.02139,-0.76733 0.04124,-1.53485 0.05945,-2.30259c-0.229,-0.3776 -0.36085,-0.82068 -0.36085,-1.29455v-3.5l0.06623,0l-0.0614,-0.15534c0.06515,-0.51425 0.1435,-1.02241 0.23346,-1.52527zM283.90119,96.84818c-0.81382,3.22151 -1.62768,6.44301 -2.44154,9.66451l0.53027,-1.15997c1.61201,-3.52627 3.42774,-7.04794 4.99105,-10.62814c-0.30243,-0.41339 -0.48097,-0.92313 -0.48097,-1.47458c0,-0.20562 0.02482,-0.40544 0.07164,-0.59663l0.2226,-0.99857c-0.94533,1.74128 -1.90314,3.47794 -2.89305,5.19338zM279.4348,114.52751c0.60871,-0.70729 1.30834,-1.42463 2.04602,-1.99401c-0.54196,-0.24226 -0.98189,-0.67179 -1.2375,-1.20632c-0.26951,1.06678 -0.53902,2.13355 -0.80853,3.20033zM282.12585,145.54051c0.40402,-0.42082 0.78357,-0.84702 1.13143,-1.27815c-0.00768,0.00827 -0.01536,0.01653 -0.02304,0.0248c-0.37869,0.40782 -0.74603,0.8279 -1.10839,1.25335zM250.01782,124.15017c0.06755,-1.2804 0.1329,-2.56051 0.19562,-3.84049c-0.23069,-1.12223 -0.56644,-2.26203 -0.93032,-3.37668c-0.5593,0.81839 -1.11858,1.63678 -1.67785,2.45519c0.74233,1.62382 1.54525,3.19579 2.41255,4.76198zM248.96892,89.03843c-0.2891,0.60491 -0.59544,1.18395 -0.90532,1.67124c0.40637,-0.29118 0.81528,-0.58682 1.13124,-0.84048c-0.07531,-0.27692 -0.15062,-0.55384 -0.22592,-0.83076zM252.18072,82.27905c0.05431,-0.42881 0.10863,-0.85763 0.16296,-1.28644c-0.10353,0.23624 -0.20706,0.47248 -0.31059,0.70872c0.04919,0.19257 0.0984,0.38514 0.14764,0.57772zM264.56851,139.01843c-0.0421,-0.1506 -0.08317,-0.30173 -0.12327,-0.4533c-0.14604,0.05969 -0.29898,0.10596 -0.4573,0.13728l0.46483,0.46483zM253.95437,142.57863c0.47715,0.09506 0.94402,0.21029 1.38204,0.32204c0.41844,-1.12384 0.83029,-2.25069 1.23757,-3.37939l-0.44897,0.55691c-0.45793,0.57774 -1.16584,0.94833 -1.96031,0.94833c-0.03892,0 -0.07764,-0.00089 -0.11613,-0.00265c-0.03137,0.51816 -0.06278,1.03641 -0.0942,1.55477zM227.45336,126.58504c-0.01826,-0.36165 -0.04046,-0.72434 -0.06613,-1.08756l-0.51022,-0.20409c0.1906,0.43022 0.38225,0.86125 0.57635,1.29165zM245.34661,113.80687c0.61534,-0.94142 1.22586,-1.92239 1.84192,-2.91474c-0.49184,-1.3117 -1.01431,-2.60727 -1.55535,-3.89281c-0.18048,2.05223 -0.35621,4.10498 -0.52634,6.15854c0.07905,0.21593 0.15901,0.43223 0.23977,0.64901zM214.01161,132.54144c0.06764,-0.09436 0.13528,-0.18872 0.20292,-0.28309c-0.35153,-0.62762 -0.66849,-1.28168 -0.95846,-1.95509c0.23209,0.76707 0.48201,1.51597 0.75554,2.23817zM274.66505,151.75135c0.05951,-0.04545 0.11925,-0.09102 0.17921,-0.13672c-0.06637,0.04068 -0.12656,0.08589 -0.17921,0.13672zM193.828,100.04535c1.8286,3.16779 3.675,6.32087 5.38834,9.548c1.06535,2.00663 1.9071,4.09745 2.64864,6.22412c-2.88845,-8.86431 -5.57388,-17.8152 -8.85273,-26.55771c-1.53143,-4.0833 -3.3415,-8.28455 -4.95227,-12.52959c0.15538,1.21607 -0.23675,4.18368 -0.07871,5.21437c0.73361,4.78436 3.17117,9.82147 4.61528,14.40307c0.38945,1.23557 0.80104,2.4681 1.23146,3.69774zM179.58888,106.43534c0.03095,-0.02052 0.06269,-0.04085 0.09523,-0.061c0.0611,-0.03783 0.12154,-0.07281 0.18129,-0.10508c-0.15536,-0.28109 -0.31286,-0.56092 -0.47264,-0.83942c0.0067,0.04753 0.0134,0.09505 0.0201,0.14258c0.05344,0.28442 0.11094,0.57178 0.17601,0.86292z" fill="#a57442" stroke="none" stroke-width="0.5"/></g></g></svg>