<svg version="1.1" xmlns="http://www.w3.org/2000/svg" xmlns:xlink="http://www.w3.org/1999/xlink" width="83" height="82" viewBox="0,0,83,82"><g transform="translate(-198.5,-139)"><g data-paper-data="{&quot;isPaintingLayer&quot;:true}" fill-rule="nonzero" stroke-linecap="butt" stroke-linejoin="miter" stroke-miterlimit="10" stroke-dasharray="" stroke-dashoffset="0" style="mix-blend-mode: normal"><path d="M280.5,180c0,22.09139 -18.13247,40 -40.5,40c-22.36753,0 -40.5,-17.90861 -40.5,-40c0,-22.09139 18.13247,-40 40.5,-40c22.36753,0 40.5,17.90861 40.5,40z" fill="#ffe820" stroke="#000000" stroke-width="2"/><path d="M280.83333,177.16667c0,2.5 -2.5,2.5 -2.5,2.5h-1.66667c-9.20887,-0.01576 -18.67961,-6.67913 -26.73287,0.08722c0,0 -1.92055,1.60046 -3.52101,-0.32009c-1.60046,-1.92055 0.32009,-3.52101 0.32009,-3.52101c1.76518,-1.46081 2.78674,-2.52059 5.00171,-3.39919c8.32909,-3.30388 16.57521,2.16915 24.93209,2.15308h1.66667c0,0 2.5,0 2.5,2.5z" fill="#000000" stroke="none" stroke-width="0.5"/><path d="M206.94259,174.33333h1.66667c8.35687,0.01608 16.60299,-5.45695 24.93209,-2.15308c2.21497,0.8786 3.23653,1.93838 5.00171,3.39919c0,0 1.92055,1.60046 0.32009,3.52102c-1.60046,1.92056 -3.52102,0.32009 -3.52102,0.32009c-8.05326,-6.76635 -17.524,-0.10298 -26.73287,-0.08722h-1.66667c0,0 -2.5,0 -2.5,-2.5c0,-2.5 2.5,-2.5 2.5,-2.5z" data-paper-data="{&quot;index&quot;:null}" fill="#000000" stroke="none" stroke-width="0.5"/><path d="M248.83333,200.83333c0,2.5 -2.5,2.5 -2.5,2.5l-1.97675,-0.01931c-2.87482,-0.35942 -5.7532,-0.67605 -8.63266,-0.99599c0,0 -2.48471,-0.27608 -2.20863,-2.76079c0.27608,-2.48471 2.76079,-2.20863 2.76079,-2.20863c2.90215,0.32246 5.80318,0.64189 8.70067,1.00401l1.35658,-0.01931c0,0 2.5,0 2.5,2.5z" fill="#000000" stroke="none" stroke-width="0.5"/></g></g></svg>