<svg version="1.1" xmlns="http://www.w3.org/2000/svg" xmlns:xlink="http://www.w3.org/1999/xlink" width="83" height="83.58454" viewBox="0,0,83,83.58454"><g transform="translate(-198.5,-137.41546)"><g data-paper-data="{&quot;isPaintingLayer&quot;:true}" fill-rule="nonzero" stroke-linecap="butt" stroke-linejoin="miter" stroke-miterlimit="10" stroke-dasharray="" stroke-dashoffset="0" style="mix-blend-mode: normal"><path d="M280.5,180c0,22.09139 -18.13247,40 -40.5,40c-22.36753,0 -40.5,-17.90861 -40.5,-40c0,-22.09139 18.13247,-40 40.5,-40c22.36753,0 40.5,17.90861 40.5,40z" fill="#ffe820" stroke="#000000" stroke-width="2"/><path d="M274.25454,170.52245c0.03267,-0.47023 0.30045,-2.39745 2.49546,-2.39745c2.5,0 2.5,2.5 2.5,2.5l-0.10543,0.96837c-0.56078,1.83557 -1.19247,4.733 -2.8273,5.97936c-3.42551,2.61154 -8.36872,1.18277 -10.66971,-2.09505c-2.06204,-2.93744 -0.97858,-6.47654 -4.77415,-8.37091c-1.64506,-0.82105 -6.38373,-1.43458 -8.04048,-0.36675c-2.84232,1.83197 -3.33037,6.92618 -3.5932,9.86132c0,0 -0.22634,2.48973 -2.71607,2.26339c-2.48973,-0.22634 -2.26339,-2.71607 -2.26339,-2.71607c0.41729,-4.52847 1.5653,-10.96094 5.9068,-13.63868c4.29279,-2.64769 12.06484,-1.22447 15.5257,2.02531c2.73578,2.56892 2.59613,2.83491 3.69064,6.33515c0.45068,1.44126 0.05697,2.07616 1.47223,2.76233c2.52994,1.22661 2.91885,-1.28088 3.3989,-3.11032z" fill="#000000" stroke="none" stroke-width="0.5"/><path d="M211.14927,174.13278c1.41526,-0.68617 1.02155,-1.32108 1.47223,-2.76234c1.09451,-3.50024 0.95486,-3.76623 3.69064,-6.33515c3.46086,-3.24979 11.23291,-4.673 15.5257,-2.02531c4.34151,2.67774 5.48951,9.11021 5.9068,13.63868c0,0 0.22634,2.48973 -2.2634,2.71607c-2.48973,0.22634 -2.71607,-2.2634 -2.71607,-2.2634c-0.26282,-2.93514 -0.75088,-8.02935 -3.5932,-9.86132c-1.65675,-1.06784 -6.39541,-0.4543 -8.04047,0.36676c-3.79557,1.89437 -2.71211,5.43347 -4.77416,8.37091c-2.30099,3.27782 -7.24419,4.7066 -10.66971,2.09506c-1.63483,-1.24636 -2.26652,-4.1438 -2.82729,-5.97937l-0.10544,-0.96837c0,0 0,-2.5 2.5,-2.5c2.19501,0 2.46279,1.92723 2.49546,2.39746c0.48005,1.82944 0.86896,4.33693 3.3989,3.11032z" data-paper-data="{&quot;index&quot;:null}" fill="#000000" stroke="none" stroke-width="0.5"/><path d="M250.27692,195.42216c0.31562,-0.15258 0.70754,-0.2473 1.19418,-0.2473c2.5,0 2.5,2.5 2.5,2.5l-2.5,2.7341c-5.83988,-0.00609 -11.65119,0.95675 -17.41176,1.84376c0,0 -2.47093,0.38014 -2.85107,-2.09079c-0.38014,-2.47093 2.09079,-2.85107 2.09079,-2.85107c5.62592,-0.8648 11.28135,-1.76951 16.97788,-1.8887z" fill="#000000" stroke="none" stroke-width="0.5"/><path d="M252.26823,157.71012c-0.0357,0.01554 -0.07157,0.03073 -0.10762,0.04557c0.02995,0.16761 0.05428,0.31705 0.07383,0.44948c0.013,-0.1304 0.03343,-0.27118 0.06363,-0.41912zM218.44096,178.94608c-0.04328,0.091 -0.0859,0.18002 -0.12755,0.26655l0.03794,0.68296c0.05209,0.20648 0.10417,0.41295 0.15626,0.61943c0.05065,-0.35669 0.01639,-0.94508 -0.01265,-1.51862c-0.01844,-0.01659 -0.03644,-0.03337 -0.054,-0.05033zM237.48131,174.57244c0,0 -0.98056,2.29967 -3.28024,1.31911c-1.23201,-0.52532 -1.52256,-1.42924 -1.5268,-2.15533c-0.84101,-0.82337 -1.33684,-2.10739 -1.87083,-3.71432c-0.61242,-1.84297 -0.26772,-3.87736 -0.28146,-5.81937c-0.00295,-0.41632 -0.30936,-1.60977 -0.35869,-1.19638c-0.50959,4.27041 -1.17573,8.58974 -1.74979,12.87559c-1.4952,6.35819 -4.2654,11.74625 -11.62396,10.93475c-2.7796,-0.30654 -6.09493,-0.22653 -7.78854,-3.17875c-2.04669,-3.56771 0.9094,-9.56696 2.20987,-12.84069c0.29256,-0.73647 1.34595,-4.4868 0.53371,-5.11977c-0.46585,-0.36303 -2.36702,0.70187 -2.41887,0.73325c-1.10367,0.66797 -2.16316,1.40777 -3.21366,2.15659c-0.69973,0.49879 -1.35591,1.056 -2.03386,1.584c0,0 -1.97338,1.53485 -3.50823,-0.43853c-0.00405,-0.0052 -0.00807,-0.0104 -0.01207,-0.0156c-0.44567,0.50491 -0.89748,0.99206 -1.39674,1.37789c0.77087,-1.41773 1.20878,-3.04271 1.20878,-4.76998c0,-1.02043 -0.15284,-2.00516 -0.43688,-2.93254l0.99837,-1.49756c1.03333,-1.52614 2.2703,-2.92488 3.62286,-4.18005l0.90337,-1.58536c0.68526,-0.68475 1.37052,-1.3695 2.05577,-2.05425c2.48305,-2.79343 5.25363,-6.04392 8.28073,-8.24615c2.69626,-1.96155 3.91808,-1.80171 7.07573,-3.10878c4.83057,-1.99955 9.68384,-4.36374 14.95182,-5.09624c7.24223,-1.007 14.69845,2.21746 21.16432,4.98866c0.26763,0.09675 0.49643,0.22751 0.67086,0.34571c0.17498,0.11837 0.382,0.2828 0.57164,0.49618c4.21236,2.21369 7.87909,3.82745 11.27045,7.29047c1.93314,1.97399 3.25677,2.7626 3.28526,5.88391c0.01581,1.73232 0.37332,3.98106 -0.93935,5.1116c-1.20239,1.03556 -3.17179,-0.11635 -4.75609,-0.20639c-2.74726,-0.15615 -3.12565,-0.27963 -6.03194,-0.69387c0,0 0,0 -0.00001,0c0,0 -0.05019,-0.00717 -0.13527,-0.02662l-2.26794,-0.44629c-0.80868,-0.40502 -1.69031,-0.68903 -2.42603,-1.21507c-0.37729,-0.26977 -0.40518,-0.93468 -0.83256,-1.11487c-0.22661,-0.09554 0.00191,0.4992 -0.06961,0.7345c-0.26564,0.87389 -0.3447,1.87936 -0.93642,2.57514c-1.05329,1.23854 -2.20125,2.96978 -3.82617,3.02506c-3.83857,0.1306 -4.5214,-2.91391 -5.1833,-5.44154c-0.08433,0.00192 -0.16928,0.00351 -0.25473,0.00479c-0.24766,0.76652 -0.46861,1.37046 -0.48182,1.42568c-1.15768,4.83802 -2.20479,8.48195 -6.14686,11.80704c-0.97623,0.82344 -1.77035,2.11051 -3.00302,2.39661c-0.00394,0.00925 -0.00788,0.01851 -0.01182,0.02776zM241.45294,160.73294c-0.07871,0.02017 -0.15637,0.03528 -0.23285,0.04584c0.06514,0.072 0.12615,0.14781 0.18264,0.22705c0.01681,-0.08963 0.03353,-0.18064 0.05021,-0.27289zM223.76322,148.51018c0.03427,-0.03902 0.06854,-0.07803 0.10281,-0.11705c-0.11494,-0.14399 -0.21431,-0.30096 -0.29555,-0.46836c-0.00188,0.32939 -0.07277,0.63344 -0.15793,0.88086c0.1029,-0.10242 0.21971,-0.20348 0.35067,-0.29545zM215.91731,162.70954c0.00502,-0.19788 0.03303,-0.39004 0.08147,-0.57392c-0.14223,0.08047 -0.28588,0.16001 -0.43085,0.23861c0.12437,0.12413 0.24026,0.25105 0.34805,0.38061z" fill="#58ff8e" stroke="none" stroke-width="0.5"/></g></g></svg>