<svg version="1.1" xmlns="http://www.w3.org/2000/svg" xmlns:xlink="http://www.w3.org/1999/xlink" width="90.75" height="86.75" viewBox="0,0,90.75,86.75"><g transform="translate(-198.5,-139)"><g data-paper-data="{&quot;isPaintingLayer&quot;:true}" fill-rule="nonzero" stroke-linecap="butt" stroke-linejoin="miter" stroke-miterlimit="10" stroke-dasharray="" stroke-dashoffset="0" style="mix-blend-mode: normal"><path d="M280.5,180c0,22.09139 -18.13247,40 -40.5,40c-22.36753,0 -40.5,-17.90861 -40.5,-40c0,-22.09139 18.13247,-40 40.5,-40c22.36753,0 40.5,17.90861 40.5,40z" fill="#ffe820" stroke="#000000" stroke-width="2"/><path d="M274.25454,170.52245c0.03267,-0.47023 0.30045,-2.39745 2.49546,-2.39745c2.5,0 2.5,2.5 2.5,2.5l-0.10543,0.96837c-0.56078,1.83557 -1.19247,4.733 -2.8273,5.97936c-3.42551,2.61154 -8.36872,1.18277 -10.66971,-2.09505c-2.06204,-2.93744 -0.97858,-6.47654 -4.77415,-8.37091c-1.64506,-0.82105 -6.38373,-1.43458 -8.04048,-0.36675c-2.84232,1.83197 -3.33037,6.92618 -3.5932,9.86132c0,0 -0.22634,2.48973 -2.71607,2.26339c-2.48973,-0.22634 -2.26339,-2.71607 -2.26339,-2.71607c0.41729,-4.52847 1.5653,-10.96094 5.9068,-13.63868c4.29279,-2.64769 12.06484,-1.22447 15.5257,2.02531c2.73578,2.56892 2.59613,2.83491 3.69064,6.33515c0.45068,1.44126 0.05697,2.07616 1.47223,2.76233c2.52994,1.22661 2.91885,-1.28088 3.3989,-3.11032z" fill="#000000" stroke="none" stroke-width="0.5"/><path d="M211.14927,174.13278c1.41526,-0.68617 1.02155,-1.32108 1.47223,-2.76234c1.09451,-3.50024 0.95486,-3.76623 3.69064,-6.33515c3.46086,-3.24979 11.23291,-4.673 15.5257,-2.02531c4.34151,2.67774 5.48951,9.11021 5.9068,13.63868c0,0 0.22634,2.48973 -2.2634,2.71607c-2.48973,0.22634 -2.71607,-2.2634 -2.71607,-2.2634c-0.26282,-2.93514 -0.75088,-8.02935 -3.5932,-9.86132c-1.65675,-1.06784 -6.39541,-0.4543 -8.04047,0.36676c-3.79557,1.89437 -2.71211,5.43347 -4.77416,8.37091c-2.30099,3.27782 -7.24419,4.7066 -10.66971,2.09506c-1.63483,-1.24636 -2.26652,-4.1438 -2.82729,-5.97937l-0.10544,-0.96837c0,0 0,-2.5 2.5,-2.5c2.19501,0 2.46279,1.92723 2.49546,2.39746c0.48005,1.82944 0.86896,4.33693 3.3989,3.11032z" data-paper-data="{&quot;index&quot;:null}" fill="#000000" stroke="none" stroke-width="0.5"/><path d="M231.1775,196.80066c0.18228,-1.67964 2.0114,-2.04546 2.0114,-2.04546c1.21434,-0.24166 2.41062,-0.60579 3.64303,-0.72498c1.33131,-0.12875 2.86509,-0.70264 4.01252,-0.01537c3.37295,2.02029 3.83885,6.0502 0.87605,8.71349c-0.88465,0.79522 -9.69738,0.98151 -9.70376,0.97807c-1.30234,-0.70348 -0.99969,-2.78648 -1.49954,-4.17972l-0.04033,-0.91542c0,0 0,-1.07062 0.70062,-1.81062zM235.0927,199.46331c-0.05655,0.0125 -0.11313,0.02489 -0.16972,0.03719c-0.10543,0.18632 -0.04283,0.12677 0.16972,-0.03719z" fill="#000000" stroke="none" stroke-width="0.5"/><path d="M253.33333,225.5v-47.66667h35.66667v47.66667z" fill="#ffffff" stroke="#000000" stroke-width="0.5"/><path d="M221.61085,147.44755c1.76777,-1.76777 3.53553,0 3.53553,0l0.12725,0.13335c3.33845,2.96751 6.54428,5.73865 10.26052,8.21614c0,0 2.08013,1.38675 0.69338,3.46688c-1.38675,2.08013 -3.46688,0.69338 -3.46688,0.69338c-3.90779,-2.60519 -7.30069,-5.52099 -10.80884,-8.63935l-0.34096,-0.33486c0,0 -1.76777,-1.76777 0,-3.53553z" fill="#000000" stroke="none" stroke-width="0.5"/><path d="M265.79917,148.08307c1.60046,1.92055 -0.32009,3.52101 -0.32009,3.52101l-2.07661,1.57116c-4.9343,1.97372 -10.04956,3.60578 -14.87663,5.80733c0,0 -2.27592,1.03451 -3.31042,-1.24141c-1.03451,-2.27592 1.24141,-3.31042 1.24141,-3.31042c4.90549,-2.2229 10.08065,-3.89466 15.08869,-5.89788l0.73264,-0.76988c0,0 1.92055,-1.60046 3.52101,0.32009z" fill="#000000" stroke="none" stroke-width="0.5"/></g></g></svg>