<svg version="1.1" xmlns="http://www.w3.org/2000/svg" xmlns:xlink="http://www.w3.org/1999/xlink" width="83" height="82" viewBox="0,0,83,82"><g transform="translate(-198.5,-139)"><g data-paper-data="{&quot;isPaintingLayer&quot;:true}" fill-rule="nonzero" stroke-linecap="butt" stroke-linejoin="miter" stroke-miterlimit="10" stroke-dasharray="" stroke-dashoffset="0" style="mix-blend-mode: normal"><path d="M280.5,180c0,22.09139 -18.13247,40 -40.5,40c-22.36753,0 -40.5,-17.90861 -40.5,-40c0,-22.09139 18.13247,-40 40.5,-40c22.36753,0 40.5,17.90861 40.5,40z" fill="#ffe820" stroke="#000000" stroke-width="2"/><path d="M236.69517,188.64458c0.36668,-1.69227 2.05895,-1.32559 2.05895,-1.32559l1.73638,0.38351c0.9611,0.30253 3.39382,0.98172 4.0555,1.62567c2.3054,2.24365 2.44201,7.17823 0.00894,9.32959c-2.20563,1.95025 -4.20864,1.72458 -6.86843,1.86535c0,0 -1.72912,0.09151 -1.82063,-1.63762c-0.09151,-1.72912 1.63762,-1.82063 1.63762,-1.82063c1.70705,-0.09034 3.28322,0.22427 4.68916,-0.93941c0.97286,-0.80523 0.86626,-3.4717 -0.02789,-4.28277c-0.70043,-0.63535 -1.80846,-0.55373 -2.71104,-0.83592l-1.43297,-0.30321c0,0 -1.69227,-0.36668 -1.32559,-2.05895z" fill="#000000" stroke="none" stroke-width="0.5"/><path d="M236.31078,198.09256c0.36668,-1.69227 2.05895,-1.32559 2.05895,-1.32559l1.73638,0.38351c0.9611,0.30253 3.39382,0.98172 4.0555,1.62567c2.3054,2.24365 2.44201,7.17823 0.00894,9.32959c-2.20563,1.95025 -4.20864,1.72458 -6.86843,1.86535c0,0 -1.72912,0.09151 -1.82063,-1.63762c-0.09151,-1.72912 1.63762,-1.82063 1.63762,-1.82063c1.70705,-0.09034 3.28322,0.22427 4.68916,-0.93941c0.97286,-0.80523 0.86626,-3.4717 -0.02789,-4.28277c-0.70043,-0.63535 -1.80846,-0.55373 -2.71104,-0.83592l-1.43297,-0.30321c0,0 -1.69227,-0.36668 -1.32559,-2.05895z" fill="#000000" stroke="none" stroke-width="0.5"/><path d="M219.4099,167.91992c-0.91514,-3.66055 -2.15924,-7.23032 -2.84357,-10.92791c0,0 -0.44721,-2.45967 2.01246,-2.90689c2.45967,-0.44721 2.90689,2.01246 2.90689,2.01246c0.63765,3.58239 1.88839,7.06352 2.77493,10.60966l0.27473,1.59997c0,0 0.0584,0.3504 -0.00091,0.80904c2.71501,0.25963 5.44823,0.40794 8.04312,0.62216c0,0 2.49136,0.20761 2.28375,2.69898c-0.20761,2.49136 -2.69898,2.28375 -2.69898,2.28375c-5.65304,-0.47518 -11.84381,-0.71634 -17.30567,-2.18639l-1.35012,-0.80251c-1.47923,0.11763 -2.28442,-1.33171 -2.28442,-1.33171l-1.30632,-2.39257c-1.01533,-2.57208 -1.46985,-5.10294 -2.19765,-7.76201c0,0 -0.65779,-2.41191 1.75412,-3.0697c2.41191,-0.65779 3.0697,1.75412 3.0697,1.75412c0.67102,2.46857 1.05361,4.85222 2.01622,7.22065l0.39126,0.6887c0.33455,0.12487 0.54713,0.26659 0.54713,0.26659l0.67567,0.60463c1.0778,0.2985 2.1897,0.54158 3.32316,0.7434z" fill="#000000" stroke="none" stroke-width="0.5"/><path d="M250.55919,150.88178c0,0 -0.65779,-2.41191 1.75412,-3.0697c2.41191,-0.65779 3.0697,1.75412 3.0697,1.75412c1.41514,5.1899 2.59832,10.37591 3.55933,15.66145l0.231,0.57101c3.28226,0.3052 6.55927,0.41956 9.95094,0.41956c0,0 2.5,0 2.5,2.5c0,2.5 -2.5,2.5 -2.5,2.5c-6.05525,0 -11.79387,-0.35875 -17.77091,-1.44495l-1.9358,-0.20907c0,0 -1.29313,-0.14368 -1.90998,-1.15661c-1.17289,-0.25514 -1.72419,-1.45448 -1.72419,-1.45448l-0.39742,-0.93411c-1.51816,-5.31595 -3.65336,-10.02823 -5.53315,-15.17475c0,0 -0.85436,-2.34948 1.49513,-3.20384c2.34948,-0.85436 3.20384,1.49513 3.20384,1.49513c1.89679,5.24207 4.08523,10.07329 5.63437,15.48387l2.06163,0.23452c0.5325,0.09687 1.06274,0.18756 1.59122,0.27237c-0.90072,-4.79888 -1.99123,-9.52067 -3.27982,-14.2445z" fill="#000000" stroke="none" stroke-width="0.5"/></g></g></svg>