<svg version="1.1" xmlns="http://www.w3.org/2000/svg" xmlns:xlink="http://www.w3.org/1999/xlink" width="83" height="82" viewBox="0,0,83,82"><g transform="translate(-198.5,-139)"><g data-paper-data="{&quot;isPaintingLayer&quot;:true}" fill-rule="nonzero" stroke-linecap="butt" stroke-linejoin="miter" stroke-miterlimit="10" stroke-dasharray="" stroke-dashoffset="0" style="mix-blend-mode: normal"><path d="M280.5,180c0,22.09139 -18.13247,40 -40.5,40c-22.36753,0 -40.5,-17.90861 -40.5,-40c0,-22.09139 18.13247,-40 40.5,-40c22.36753,0 40.5,17.90861 40.5,40z" fill="#ffe820" stroke="#000000" stroke-width="2"/><path d="M265.61272,174.06792c0,5.6697 -3.87804,10.2659 -8.66185,10.2659c-4.78381,0 -8.66185,-4.5962 -8.66185,-10.2659c0,-5.6697 3.87804,-10.2659 8.66185,-10.2659c4.78381,0 8.66185,4.5962 8.66185,10.2659z" fill="#000000" stroke="#000000" stroke-width="2"/><path d="M233.85838,175.08815c0,5.6697 -3.87804,10.2659 -8.66185,10.2659c-4.78381,0 -8.66185,-4.59619 -8.66185,-10.26589c0,-5.6697 3.87804,-10.26589 8.66185,-10.26589c4.78381,0 8.66185,4.59619 8.66185,10.2659z" fill="#000000" stroke="#000000" stroke-width="2"/><path d="M224.35792,170.01786c-2.23607,1.11803 -3.3541,-1.11803 -3.3541,-1.11803l-0.07816,-0.19949c-1.50254,-2.25514 -2.88344,-4.56613 -4.27748,-6.88953c0,0 -1.28624,-2.14373 0.85749,-3.42997c2.14373,-1.28624 3.42997,0.85749 3.42997,0.85749c1.35323,2.25539 2.69053,4.50026 4.15027,6.68851l0.39005,0.73692c0,0 1.11803,2.23607 -1.11803,3.3541z" fill="#000000" stroke="none" stroke-width="0.5"/><path d="M220.55967,174.23164c-1.76777,1.76777 -3.53553,0 -3.53553,0l-0.23529,-0.26259c-2.47104,-1.9222 -4.80425,-3.84497 -7.02193,-6.05821c0,0 -1.76777,-1.76777 0,-3.53553c1.76777,-1.76777 3.53553,0 3.53553,0c2.06688,2.07138 4.24808,3.85213 6.5561,5.64699l0.70112,0.67382c0,0 1.76777,1.76777 0,3.53553z" fill="#000000" stroke="none" stroke-width="0.5"/><path d="M273.99728,170.54266c0.9848,2.29786 -1.31306,3.28266 -1.31306,3.28266l-2.17631,0.86412c-1.71676,0.31214 -3.43353,0.62428 -5.15029,0.93642c0,0 -2.45967,0.44721 -2.90689,-2.01246c-0.17702,-0.97362 0.10142,-1.63192 0.50249,-2.07198c-0.36563,0.21372 -2.16026,1.12605 -3.40039,-0.73415c-1.38675,-2.08013 0.69338,-3.46688 0.69338,-3.46688c2.34289,-1.56174 4.70925,-3.06269 7.12363,-4.51158l0.89502,-0.74486c0,0 1.95217,-1.56174 3.51391,0.39043c1.56174,1.95217 -0.39043,3.51391 -0.39043,3.51391l-1.44602,1.12798c-2.00451,1.20249 -3.97434,2.44206 -5.92519,3.72411c0.26023,-0.10009 0.44607,-0.13388 0.44607,-0.13388c1.71676,-0.31214 3.43353,-0.62428 5.15029,-0.93642l1.10114,-0.5405c0,0 2.29786,-0.9848 3.28266,1.31306z" fill="#000000" stroke="none" stroke-width="0.5"/><path d="M214.5,174.75c6.11582,0 12.00842,0.24881 18.00971,-0.95145l2.44938,-0.48988c0.17418,-0.03842 0.35518,-0.05867 0.54091,-0.05867c1.38071,0 2.5,1.11929 2.5,2.5c0,0.57191 -0.19204,1.09897 -0.51515,1.5202l-0.18417,0.24556c0.43303,0.44952 0.69932,1.06078 0.69932,1.73424c0,1.38071 -1.11929,2.5 -2.5,2.5l-1.03945,0c-0.23575,0.61334 -0.57689,1.30976 -1.03857,2.09874c-0.12282,0.20989 -0.26614,0.39866 -0.42746,0.56797c-0.07595,1.15364 -0.93445,2.09353 -2.04965,2.29383l-2.45459,0.49092l-0.05464,-0.27322l-0.5557,0.31888c-1.27017,-0.35762 -2.74785,-0.61805 -3.97546,-1.11377c-1.10589,0.14388 -2.29532,0.11106 -3.64702,0.10823l-2.80001,0.46667c-0.14831,0.02742 -0.30121,0.04176 -0.45746,0.04176c-1.38071,0 -2.5,-1.11929 -2.5,-2.5c0,-0.81791 0.39278,-1.54408 1,-2.00018c0.00004,-0.61639 0.22316,-1.18066 0.59301,-1.6165l-0.06743,-0.01124l-0.01587,0.07937l-2.45459,-0.49092c-1.16847,-0.20987 -2.05512,-1.23166 -2.05512,-2.46053c0,-0.74607 0.32681,-1.41582 0.84509,-1.87388c0.68586,-1.12612 2.15491,-1.12612 2.15491,-1.12612z" fill="#ffe820" stroke="none" stroke-width="0.5"/><path d="M266.5,180.25c0,1.97759 -1.56434,2.39083 -2.21813,2.47719c0.14016,0.31221 0.21813,0.65841 0.21813,1.02281c0,1.38071 -1.11929,2.5 -2.5,2.5c-0.18573,0 -0.36673,-0.02025 -0.54091,-0.05867l-2.22699,-0.4454c-1.55339,0.5783 -3.32545,0.13286 -4.97844,-0.0081c-3.39653,-0.28964 -5.17502,-2.05385 -7.75366,-3.98783l0.12752,-2.34351c-0.39048,-0.44106 -0.62752,-1.0211 -0.62752,-1.65649c0,-0.30028 0.05294,-0.5882 0.15,-0.85493c-0.35359,-0.0604 -0.70725,-0.12016 -1.061,-0.17908c0,0 -2.46598,-0.411 -2.05499,-2.87698c0.411,-2.46598 2.87698,-2.05499 2.87698,-2.05499c7.48351,1.24806 15.0032,3.00694 22.589,2.96598l3.11803,1.26393c0,0 2.23607,1.11803 1.11803,3.3541c-1.11803,2.23607 -3.3541,1.11803 -3.3541,1.11803l-0.88197,-0.73607c-0.68241,-0.00302 -1.36372,-0.01853 -2.04404,-0.04518c0.02855,0.16704 0.04404,0.34836 0.04404,0.54518z" fill="#ffe820" stroke="none" stroke-width="0.5"/><path d="M269.95145,197.75971c0.49029,2.45145 -1.96116,2.94174 -1.96116,2.94174l-3.41697,0.51187c-3.16189,-1.74455 -5.0701,-3.02252 -7.09404,-5.97903c-3.26769,-1.616 -2.2582,6.3034 -4.78852,7.71391c-4.13122,2.30292 -8.34585,-2.43548 -9.86798,-5.20449c-0.10943,-0.19906 0.12881,0.47435 0.03371,0.68064c-0.40686,0.88256 -0.85328,1.7746 -1.5,2.5c-0.8476,0.95072 -5.32145,3.92747 -6.21004,3.80053c-3.46904,-0.49558 -2.77851,-6.27352 -6.9668,-3.77069c-0.6028,0.36022 -0.94125,1.04239 -1.41188,1.56358c0,0 -1.76777,1.76777 -3.53553,0c-1.76777,-1.76777 0,-3.53553 0,-3.53553c2.65336,-2.49783 6.41818,-4.72549 10.3858,-2.9683c1.10564,0.48967 1.76414,1.6966 2.38197,2.73607c0.425,-0.52224 1.2058,-0.66272 1.64351,-1.17435c1.63209,-1.9077 1.72025,-5.08344 5.53371,-4.81936c4.47393,0.30982 2.7299,2.83152 4.8435,4.50942c0.46755,0.37117 1.17123,0.29547 1.69165,0.58793c0.26691,0.15 0.35868,0.89053 0.59687,0.69816c0.26834,-0.21673 -0.23439,-0.67044 -0.2056,-1.01417c0.07095,-0.84687 0.21817,-1.69826 0.5,-2.5c1.10919,-3.15542 1.78554,-5.18024 5.89636,-5.28763c1.43182,-0.0374 2.68048,1.01047 4.02072,1.51571c1.54549,1.94129 2.90338,3.56797 4.90596,5.02097l1.58303,-0.48813c0,0 2.45145,-0.49029 2.94174,1.96116z" fill="#000000" stroke="none" stroke-width="0.5"/></g></g></svg>