<svg version="1.1" xmlns="http://www.w3.org/2000/svg" xmlns:xlink="http://www.w3.org/1999/xlink" width="84.02722" height="82" viewBox="0,0,84.02722,82"><g transform="translate(-198.5,-139)"><g data-paper-data="{&quot;isPaintingLayer&quot;:true}" fill-rule="nonzero" stroke-linecap="butt" stroke-linejoin="miter" stroke-miterlimit="10" stroke-dasharray="" stroke-dashoffset="0" style="mix-blend-mode: normal"><path d="M280.5,180c0,22.09139 -18.13247,40 -40.5,40c-22.36753,0 -40.5,-17.90861 -40.5,-40c0,-22.09139 18.13247,-40 40.5,-40c22.36753,0 40.5,17.90861 40.5,40z" fill="#ffe820" stroke="#000000" stroke-width="2"/><path d="M203.82939,185.74035c-1.24035,-2.17061 0.93026,-3.41096 0.93026,-3.41096l2.45929,-1.40061c1.3252,-0.56582 2.68726,-1.05295 4.07105,-1.46086c-0.24674,-0.76118 -0.43013,-1.5394 -0.59202,-2.32738c-2.24041,0.28005 -4.48081,0.5601 -6.72122,0.84015l-1.03708,0.27799c0,0 -2.42536,0.60634 -3.0317,-1.81902c-0.60634,-2.42536 1.81902,-3.0317 1.81902,-3.0317l1.62959,-0.38867c2.65068,-0.33134 5.30137,-0.66267 7.95205,-0.99401c0.23764,-0.13385 0.52373,-0.24128 0.86775,-0.31008c2.45145,-0.49029 2.94174,1.96116 2.94174,1.96116c0.29631,1.50744 0.66926,4.29101 1.57114,5.68757c0.3608,0.55869 2.93275,2.01274 3.33116,2.18712c5.40989,2.36791 10.91254,1.47816 13.27706,-4.18252l0.61049,-2.47489c0,0 0.60634,-2.42536 3.0317,-1.81902c2.42536,0.60634 1.81902,3.0317 1.81902,3.0317l-0.72284,2.85845c-1.27118,2.91858 -2.836,5.80854 -5.81923,7.38588c-4.9107,2.59646 -13.72838,1.6816 -18.18913,-2.45118c-0.05578,0.01786 -0.08781,0.02586 -0.08781,0.02586c-1.53053,0.37754 -3.04411,0.85564 -4.49195,1.4792l-2.20738,1.26606c0,0 -2.17061,1.24035 -3.41096,-0.93026z" fill="#000000" stroke="none" stroke-width="0.5"/><path d="M282.40381,184.52014c-0.6868,2.40381 -3.09061,1.71701 -3.09061,1.71701l-2.63133,-0.77261c-1.55556,-0.66667 -3.11111,-1.33333 -4.66667,-2c0,0 -0.39835,-0.17072 -0.79225,-0.53586c-4.0494,4.94886 -13.83067,6.2107 -19.10498,3.42199c-2.98323,-1.57734 -4.54806,-4.4673 -5.81923,-7.38588l-0.72285,-2.85845c0,0 -0.60634,-2.42535 1.81902,-3.03169c2.42535,-0.60634 3.0317,1.81902 3.0317,1.81902l0.61048,2.47489c2.36452,5.66068 7.86718,6.55043 13.27707,4.18252c0.39841,-0.17439 2.97036,-1.62843 3.33116,-2.18713c0.90188,-1.39656 1.27483,-4.18014 1.57115,-5.68757c0,0 0.49029,-2.45145 2.94174,-1.96116c0.25216,0.05043 0.47319,0.12161 0.66683,0.20874c0.72934,-0.33245 1.48504,-0.23798 1.48504,-0.23798c0.88889,0.11111 1.77778,0.22222 2.66667,0.33333l2.66667,0.33333c0,0 2.48069,0.31009 2.17061,2.79078c-0.31009,2.48069 -2.79078,2.17061 -2.79078,2.17061c-0.87479,-0.10935 -4.33236,-0.54154 -5.28906,-0.66113c-0.13412,0.68585 -0.2779,1.36551 -0.45858,2.03423c0.41869,0.05718 0.70919,0.18168 0.70919,0.18168c1.55556,0.66667 3.11111,1.33333 4.66667,2l2.03534,0.56072c0,0 2.40381,0.6868 1.71701,3.09061z" fill="#000000" stroke="none" stroke-width="0.5"/><path d="M250.43443,210.26777c-1.76777,1.76777 -3.53553,0 -3.53553,0l-0.49936,-0.51388c-0.65009,-0.5421 -1.386,-0.99536 -1.95028,-1.6263c-0.37619,-0.42063 -0.27153,-1.37229 -0.82589,-1.4778c-0.42519,-0.08093 0.07275,0.9399 -0.18894,1.28465c-0.57031,0.75132 -1.44487,1.21297 -2.16731,1.81945c0,0 -1.92055,1.60046 -3.52101,-0.32009c-1.60046,-1.92055 0.32009,-3.52101 0.32009,-3.52101c1.6785,-1.38651 2.80068,-4.17429 4.97709,-4.22923c1.68251,-0.04247 5.04407,2.96911 6.55717,4.22923l0.83397,0.81945c0,0 1.76777,1.76777 0,3.53553z" fill="#000000" stroke="none" stroke-width="0.5"/><path d="M218.76777,190.06557c0.91825,0.91825 0.88255,1.8365 0.63617,2.50699c0.89091,2.60792 2.8772,7.37593 1.32503,9.00723c-4.43025,4.65612 -7.23123,1.03246 -8.20197,-2.71331c-0.11242,-0.43378 0.55111,-5.48018 0.65897,-6.34322c0,0 0.23555,-1.88442 1.93846,-2.16315l0.1078,-0.29453c0,0 1.76777,-1.76777 3.53553,0z" fill="#00f3ff" stroke="none" stroke-width="0.5"/><path d="M226.66667,203.66667c-2.5,0 -2.5,-2.5 -2.5,-2.5l0.01931,-1.31009c0.21127,-1.66433 0.31726,-3.34557 0.31403,-5.02325c0,0 0,-2.5 2.5,-2.5c2.5,0 2.5,2.5 2.5,2.5c-0.00323,1.88481 -0.12204,3.77277 -0.35264,5.64342l0.01931,0.68991c0,0 0,2.5 -2.5,2.5z" fill="#00f3ff" stroke="none" stroke-width="0.5"/><path d="M230.16667,193.5c0,-1.38071 1.11929,-2.5 2.5,-2.5c1.38071,0 2.5,1.11929 2.5,2.5c0,1.38071 -1.11929,2.5 -2.5,2.5c-1.38071,0 -2.5,-1.11929 -2.5,-2.5z" fill="#00f3ff" stroke="none" stroke-width="0.5"/><path d="M249.16667,191.83333c0,-1.38071 1.11929,-2.5 2.5,-2.5c1.38071,0 2.5,1.11929 2.5,2.5c0,1.38071 -1.11929,2.5 -2.5,2.5c-1.38071,0 -2.5,-1.11929 -2.5,-2.5z" fill="#00f3ff" stroke="none" stroke-width="0.5"/><path d="M254.5,196.5c0,-1.38071 1.11929,-2.5 2.5,-2.5c1.38071,0 2.5,1.11929 2.5,2.5c0,1.38071 -1.11929,2.5 -2.5,2.5c-1.38071,0 -2.5,-1.11929 -2.5,-2.5z" fill="#00f3ff" stroke="none" stroke-width="0.5"/><path d="M259.8989,211.26777c-1.76777,-1.76777 0,-3.53553 0,-3.53553l0.93049,-0.80591c3.05663,-5.22708 0.40835,-9.24483 0.33727,-14.75965c0,0 0,-2.5 2.5,-2.5c2.5,0 2.5,2.5 2.5,2.5c-0.02915,1.61385 0.57078,3.17862 0.93145,4.75192c1.04724,4.5682 0.31815,8.48691 -1.92751,12.48843l-1.73617,1.86075c0,0 -1.76777,1.76777 -3.53553,0z" fill="#00f3ff" stroke="none" stroke-width="0.5"/></g></g></svg>