<svg version="1.1" xmlns="http://www.w3.org/2000/svg" xmlns:xlink="http://www.w3.org/1999/xlink" width="83" height="82" viewBox="0,0,83,82"><g transform="translate(-198.5,-139)"><g data-paper-data="{&quot;isPaintingLayer&quot;:true}" fill-rule="nonzero" stroke-linecap="butt" stroke-linejoin="miter" stroke-miterlimit="10" stroke-dasharray="" stroke-dashoffset="0" style="mix-blend-mode: normal"><path d="M280.5,180c0,22.09139 -18.13247,40 -40.5,40c-22.36753,0 -40.5,-17.90861 -40.5,-40c0,-22.09139 18.13247,-40 40.5,-40c22.36753,0 40.5,17.90861 40.5,40z" fill="#ffe820" stroke="#000000" stroke-width="2"/><path d="M274.25454,170.52245c0.03267,-0.47023 0.30045,-2.39745 2.49546,-2.39745c2.5,0 2.5,2.5 2.5,2.5l-0.10543,0.96837c-0.56078,1.83557 -1.19247,4.733 -2.8273,5.97936c-3.42551,2.61154 -8.36872,1.18277 -10.66971,-2.09505c-2.06204,-2.93744 -0.97858,-6.47654 -4.77415,-8.37091c-1.64506,-0.82105 -6.38373,-1.43458 -8.04048,-0.36675c-2.84232,1.83197 -3.33037,6.92618 -3.5932,9.86132c0,0 -0.22634,2.48973 -2.71607,2.26339c-2.48973,-0.22634 -2.26339,-2.71607 -2.26339,-2.71607c0.41729,-4.52847 1.5653,-10.96094 5.9068,-13.63868c4.29279,-2.64769 12.06484,-1.22447 15.5257,2.02531c2.73578,2.56892 2.59613,2.83491 3.69064,6.33515c0.45068,1.44126 0.05697,2.07616 1.47223,2.76233c2.52994,1.22661 2.91885,-1.28088 3.3989,-3.11032z" fill="#000000" stroke="none" stroke-width="0.5"/><path d="M211.14927,174.13278c1.41526,-0.68617 1.02155,-1.32108 1.47223,-2.76234c1.09451,-3.50024 0.95486,-3.76623 3.69064,-6.33515c3.46086,-3.24979 11.23291,-4.673 15.5257,-2.02531c4.34151,2.67774 5.48951,9.11021 5.9068,13.63868c0,0 0.22634,2.48973 -2.2634,2.71607c-2.48973,0.22634 -2.71607,-2.2634 -2.71607,-2.2634c-0.26282,-2.93514 -0.75088,-8.02935 -3.5932,-9.86132c-1.65675,-1.06784 -6.39541,-0.4543 -8.04047,0.36676c-3.79557,1.89437 -2.71211,5.43347 -4.77416,8.37091c-2.30099,3.27782 -7.24419,4.7066 -10.66971,2.09506c-1.63483,-1.24636 -2.26652,-4.1438 -2.82729,-5.97937l-0.10544,-0.96837c0,0 0,-2.5 2.5,-2.5c2.19501,0 2.46279,1.92723 2.49546,2.39746c0.48005,1.82944 0.86896,4.33693 3.3989,3.11032z" data-paper-data="{&quot;index&quot;:null}" fill="#000000" stroke="none" stroke-width="0.5"/><path d="M262.28761,146.21023c1.60046,1.92055 -0.32009,3.52101 -0.32009,3.52101l-1.13656,0.91088c-4.10245,4.43604 -10.38648,7.31957 -15.46443,10.71979c0,0 -2.08013,1.38675 -3.46688,-0.69338c-1.38675,-2.08013 0.69338,-3.46688 0.69338,-3.46688c2.9383,-1.95125 5.72359,-3.60587 8.5211,-5.75155c2.26051,-1.73381 4.16685,-1.96364 5.97978,-4.12981l1.67269,-1.43016c0,0 1.92055,-1.60046 3.52101,0.32009z" fill="#000000" stroke="none" stroke-width="0.5"/><path d="M237.75839,158.18539c-0.54233,2.44047 -2.98279,1.89814 -2.98279,1.89814l-2.2224,-0.49677c-5.88952,-1.60623 -11.3728,-4.37748 -17.27224,-5.83915c0,0 -2.42536,-0.60634 -1.81902,-3.0317c0.60634,-2.42536 3.0317,-1.81902 3.0317,-1.81902c5.94047,1.49694 11.44708,4.2493 17.37515,5.86605l1.99147,0.43965c0,0 2.44047,0.54233 1.89814,2.98279z" fill="#000000" stroke="none" stroke-width="0.5"/><path d="M251.26766,197.5866c0.79057,2.37171 -1.58114,3.16228 -1.58114,3.16228l-1.71922,0.35213c-4.27579,-0.39319 -8.59101,-0.22384 -12.88349,-0.22384c0,0 -2.5,0 -2.5,-2.5c0,-2.5 2.5,-2.5 2.5,-2.5c4.44668,0 8.90585,-0.15414 13.33617,0.24437l-0.3146,-0.11608c0,0 2.37171,-0.79057 3.16228,1.58114z" fill="#000000" stroke="none" stroke-width="0.5"/></g></g></svg>