<svg version="1.1" xmlns="http://www.w3.org/2000/svg" xmlns:xlink="http://www.w3.org/1999/xlink" width="83" height="82" viewBox="0,0,83,82"><g transform="translate(-198.5,-139)"><g data-paper-data="{&quot;isPaintingLayer&quot;:true}" fill-rule="nonzero" stroke-linecap="butt" stroke-linejoin="miter" stroke-miterlimit="10" stroke-dasharray="" stroke-dashoffset="0" style="mix-blend-mode: normal"><path d="M280.5,180c0,22.09139 -18.13247,40 -40.5,40c-22.36753,0 -40.5,-17.90861 -40.5,-40c0,-22.09139 18.13247,-40 40.5,-40c22.36753,0 40.5,17.90861 40.5,40z" fill="#ffe820" stroke="#000000" stroke-width="2"/><path d="M278.03837,167.70943c0.79057,2.37171 -1.58114,3.16228 -1.58114,3.16228l-0.55022,0.13223c-2.7124,1.31291 -1.84571,2.5807 -3.44213,5.13572c-1.24354,1.99024 -4.03637,4.79334 -5.85893,6.2763c-5.00323,4.07099 -14.01209,5.26755 -19.21191,1c-2.32935,-1.91172 -3.54198,-4.9259 -4.69191,-7.59783c0,0 -0.9848,-2.29786 1.31306,-3.28266c2.29786,-0.9848 3.28266,1.31306 3.28266,1.31306c0.74389,1.74394 1.03103,2.64776 2.08896,4.22557c4.72295,7.04386 15.576,0.83513 18.81496,-4.54709c0.91723,-1.52418 1.04603,-3.67636 2.26574,-5.02429c0.77926,-0.86119 1.97253,-1.22666 2.9588,-1.83999l1.44978,-0.53443c0,0 2.37171,-0.79057 3.16228,1.58114z" fill="#000000" stroke="none" stroke-width="0.5"/><path d="M204.81598,165.46162l1.44978,0.53444c0.98627,0.61333 2.17954,0.9788 2.9588,1.83999c1.2197,1.34794 1.34851,3.50012 2.26574,5.02429c3.23896,5.38222 14.092,11.59096 18.81496,4.5471c1.05793,-1.57781 1.34507,-2.48164 2.08896,-4.22557c0,0 0.9848,-2.29787 3.28267,-1.31306c2.29787,0.9848 1.31306,3.28266 1.31306,3.28266c-1.14992,2.67193 -2.36256,5.68611 -4.69191,7.59783c-5.19983,4.26755 -14.20869,3.07099 -19.21191,-1c-1.82256,-1.48297 -4.61539,-4.28607 -5.85893,-6.27631c-1.59642,-2.55501 -0.72973,-3.82281 -3.44213,-5.13572l-0.55022,-0.13223c0,0 -2.37171,-0.79057 -1.58114,-3.16228c0.79057,-2.37171 3.16228,-1.58114 3.16228,-1.58114z" data-paper-data="{&quot;index&quot;:null}" fill="#000000" stroke="none" stroke-width="0.5"/><path d="M249.5,210.83333c-2,1.5 -3.5,-0.5 -3.5,-0.5l0.12219,-0.49251c-0.45696,-0.292 -0.83199,-0.93669 -1.37087,-0.87601c-0.45995,0.05179 -0.54502,0.74827 -0.81753,1.12241c0,0 -1.92055,1.60046 -3.52101,-0.32009c-1.60046,-1.92055 0.32009,-3.52101 0.32009,-3.52101c1.06082,-0.73697 1.90547,-2.01666 3.18247,-2.21092c1.35731,-0.20648 2.64164,0.74932 3.96246,1.12399l2.12219,2.17416c0,0 1.5,2 -0.5,3.5z" fill="#000000" stroke="none" stroke-width="0.5"/><path d="M214.92234,203.63265c-2.46598,-0.411 -2.05499,-2.87698 -2.05499,-2.87698l0.29932,-1.589c0,-3.75333 -0.23666,-7.32481 -0.65138,-11.05725c0,0 -0.27608,-2.48471 2.20863,-2.76079c2.48471,-0.27608 2.76079,2.20863 2.76079,2.20863c0.43468,3.91212 0.68196,7.67478 0.68196,11.60941l-0.36735,2.411c0,0 -0.411,2.46598 -2.87698,2.05499z" fill="#00b5ff" stroke="none" stroke-width="0.5"/><path d="M224.33333,197.66667c-2.5,0 -2.5,-2.5 -2.5,-2.5l0.01931,-1.02325c-0.11111,-0.88889 -0.22222,-1.77778 -0.33333,-2.66667c0,0 -0.31009,-2.48069 2.17061,-2.79078c2.48069,-0.31009 2.79078,2.17061 2.79078,2.17061c0.11111,0.88889 0.22222,1.77778 0.33333,2.66667l0.01931,1.64342c0,0 0,2.5 -2.5,2.5z" fill="#00b5ff" stroke="none" stroke-width="0.5"/><path d="M232.33333,202c-2.5,0 -2.5,-2.5 -2.5,-2.5v-2c0.00556,-4.07473 0.23692,-8.22599 0.68196,-12.27608c0,0 0.27608,-2.48471 2.76079,-2.20863c2.48471,0.27608 2.20863,2.76079 2.20863,2.76079c-0.43415,3.86062 -0.65725,7.83869 -0.65138,11.72392v2c0,0 0,2.5 -2.5,2.5z" fill="#00b5ff" stroke="none" stroke-width="0.5"/><path d="M259.05275,196.1243c0.1143,-1.97802 0.11392,-3.93064 0.11392,-5.95763c0,0 0,-2.5 2.5,-2.5c2.5,0 2.5,2.5 2.5,2.5c0,3.03385 -0.01693,5.92415 -0.34862,8.94275l-2.89883,-1.12979l-2.07059,0.57763c0.05035,-0.44775 0.09273,-0.89225 0.1284,-1.33458l-0.1437,-0.056c0,0 0,-0.49373 0.21942,-1.04237z" fill="#00b5ff" stroke="none" stroke-width="0.5"/><path d="M268.66667,202.66667c-2.5,0 -2.5,-2.5 -2.5,-2.5c0,-3.22222 0,-7.11111 0,-10.33333c0,0 0,-2.5 2.5,-2.5c2.5,0 2.5,2.5 2.5,2.5c0,3.22222 0,6.44444 0,9.66667v0.66667c0,0 0,2.5 -2.5,2.5z" fill="#00b5ff" stroke="none" stroke-width="0.5"/><path d="M270.16667,184.16667c0,-1.38071 1.11929,-2.5 2.5,-2.5c1.38071,0 2.5,1.11929 2.5,2.5c0,1.38071 -1.11929,2.5 -2.5,2.5c-1.38071,0 -2.5,-1.11929 -2.5,-2.5z" fill="#00b5ff" stroke="none" stroke-width="0.5"/><path d="M250.83333,190.16667c0,-1.38071 1.11929,-2.5 2.5,-2.5c1.38071,0 2.5,1.11929 2.5,2.5c0,1.38071 -1.11929,2.5 -2.5,2.5c-1.38071,0 -2.5,-1.11929 -2.5,-2.5z" fill="#00b5ff" stroke="none" stroke-width="0.5"/><path d="M218.5,202.83333c0,-1.38071 1.11929,-2.5 2.5,-2.5c1.38071,0 2.5,1.11929 2.5,2.5c0,1.38071 -1.11929,2.5 -2.5,2.5c-1.38071,0 -2.5,-1.11929 -2.5,-2.5z" fill="#00b5ff" stroke="none" stroke-width="0.5"/></g></g></svg>