<svg version="1.1" xmlns="http://www.w3.org/2000/svg" xmlns:xlink="http://www.w3.org/1999/xlink" width="83" height="82" viewBox="0,0,83,82"><g transform="translate(-198.5,-139)"><g data-paper-data="{&quot;isPaintingLayer&quot;:true}" fill-rule="nonzero" stroke-linecap="butt" stroke-linejoin="miter" stroke-miterlimit="10" stroke-dasharray="" stroke-dashoffset="0" style="mix-blend-mode: normal"><path d="M280.5,180c0,22.09139 -18.13247,40 -40.5,40c-22.36753,0 -40.5,-17.90861 -40.5,-40c0,-22.09139 18.13247,-40 40.5,-40c22.36753,0 40.5,17.90861 40.5,40z" fill="#ffe820" stroke="#000000" stroke-width="2"/><path d="M269.59249,176.4263c0,6.9722 -4.76894,12.62428 -10.65173,12.62428c-5.88279,0 -10.65173,-5.65208 -10.65173,-12.62428c0,-6.9722 4.76894,-12.62428 10.65173,-12.62428c5.88279,0 10.65173,5.65208 10.65173,12.62428z" fill="#ffffff" stroke="#000000" stroke-width="2"/><path d="M232.92197,175.5737c0,6.9722 -4.76894,12.62429 -10.65173,12.62429c-5.88279,0 -10.65174,-5.65209 -10.65174,-12.62429c0,-6.9722 4.76894,-12.62428 10.65174,-12.62428c5.88279,0 10.65173,5.65208 10.65173,12.62428z" fill="#ffffff" stroke="#000000" stroke-width="2"/><path d="M247.05203,198.61705c0,4.13735 -2.82992,7.49133 -6.32081,7.49133c-3.49089,0 -6.32081,-3.35398 -6.32081,-7.49133c0,-4.13735 2.82992,-7.49133 6.32081,-7.49133c3.49089,0 6.32081,3.35398 6.32081,7.49133z" fill="#000000" stroke="#000000" stroke-width="2"/><path d="M217.62139,166.30202c-1.65067,0 -2.21145,-1.08988 -2.40197,-1.83042c-1.35694,-2.03824 -2.69356,-4.07012 -3.95563,-6.17236c0,0 -1.28624,-2.14373 0.85749,-3.42997c2.14373,-1.28624 3.42997,0.85749 3.42997,0.85749c1.31978,2.20096 2.727,4.3195 4.15027,6.4544l0.41987,1.62085c0,0 0,2.5 -2.5,2.5z" fill="#000000" stroke="none" stroke-width="0.5"/><path d="M213.58913,171.65659c-2.23607,1.11803 -3.3541,-1.11803 -3.3541,-1.11803l0.13344,0.07467c-1.96619,-2.22784 -3.39537,-4.59005 -5.09574,-7.01627c0,0 -1.43366,-2.04808 0.61442,-3.48174c2.04808,-1.43366 3.48174,0.61442 3.48174,0.61442c1.5841,2.26552 2.89106,4.50292 4.73663,6.56176l0.60165,1.01108c0,0 1.11803,2.23607 -1.11803,3.3541z" fill="#000000" stroke="none" stroke-width="0.5"/><path d="M276.6524,160.64295c1.28624,2.14373 -0.85749,3.42997 -0.85749,3.42997l-1.07001,0.63871c-2.50304,1.66846 -4.82906,3.24862 -7.52594,4.60392c0,0 -2.23607,1.11803 -3.3541,-1.11803c-1.11803,-2.23607 1.11803,-3.3541 1.11803,-3.3541c2.51458,-1.25012 4.65823,-2.7383 6.98851,-4.29203l1.27103,-0.76592c0,0 2.14373,-1.28624 3.42997,0.85749z" fill="#000000" stroke="none" stroke-width="0.5"/><path d="M280.33446,168.73608c1.38675,2.08013 -0.69338,3.46688 -0.69338,3.46688l-0.97103,0.62415c-2.41334,1.20428 -4.8862,2.20089 -7.34075,3.3173c0,0 -2.27592,1.03451 -3.31042,-1.24141c-1.03451,-2.27592 1.24141,-3.31042 1.24141,-3.31042c2.39846,-1.08954 4.81874,-2.0576 7.1737,-3.23761l0.4336,-0.31227c0,0 2.08013,-1.38675 3.46688,0.69338z" fill="#000000" stroke="none" stroke-width="0.5"/></g></g></svg>