<svg version="1.1" xmlns="http://www.w3.org/2000/svg" xmlns:xlink="http://www.w3.org/1999/xlink" width="94.57193" height="62.88882" viewBox="0,0,94.57193,62.88882"><defs><linearGradient x1="195.169" y1="176.156" x2="286.17" y2="176.156" gradientUnits="userSpaceOnUse" id="color-1"><stop offset="0" stop-color="#2300ff"/><stop offset="1" stop-color="#006ad4"/></linearGradient><linearGradient x1="198.583" y1="176.1545" x2="282.755" y2="176.1545" gradientUnits="userSpaceOnUse" id="color-2"><stop offset="0" stop-color="#006ad4"/><stop offset="1" stop-color="#2300ff"/></linearGradient></defs><g transform="translate(-191.59807,-148.82)"><g data-paper-data="{&quot;isPaintingLayer&quot;:true}" fill-rule="nonzero" stroke="none" stroke-width="1" stroke-linecap="butt" stroke-linejoin="miter" stroke-miterlimit="10" stroke-dasharray="" stroke-dashoffset="0" style="mix-blend-mode: normal"><path d="M286.17,194.887c0,4.752 -3.854,8.605 -8.605,8.605h-73.792c-4.752,0 -8.604,-3.854 -8.604,-8.605v-37.463c0,-4.752 3.852,-8.604 8.604,-8.604h73.791c4.754,0 8.605,3.852 8.605,8.604v37.463z" fill="url(#color-1)"/><path d="M282.755,157.424v37.462c0,2.862 -2.327,5.19 -5.191,5.19h-73.791c-2.861,0 -5.19,-2.328 -5.19,-5.19v-37.463c0,-2.862 2.329,-5.19 5.19,-5.19h73.791c2.864,0 5.191,2.329 5.191,5.191z" fill="url(#color-2)"/><text transform="translate(202.08007,179.8129) scale(0.45686,0.45686)" font-size="40" xml:space="preserve" fill-opacity="0.63529" fill="#ff0000" fill-rule="nonzero" stroke="none" stroke-width="1" stroke-linecap="butt" stroke-linejoin="miter" stroke-miterlimit="10" stroke-dasharray="" stroke-dashoffset="0" font-family="Marker" font-weight="normal" text-anchor="start" style="mix-blend-mode: normal"><tspan x="0" dy="0">ani-pool</tspan></text><text transform="translate(191.84807,204.34771) scale(0.5,0.5)" font-size="40" xml:space="preserve" fill-opacity="0.63529" fill="#ff0000" fill-rule="nonzero" stroke="none" stroke-width="1" stroke-linecap="butt" stroke-linejoin="miter" stroke-miterlimit="10" stroke-dasharray="" stroke-dashoffset="0" font-family="Marker" font-weight="normal" text-anchor="start" style="mix-blend-mode: normal"><tspan x="0" dy="0"> </tspan></text></g></g></svg>