<svg version="1.1" xmlns="http://www.w3.org/2000/svg" xmlns:xlink="http://www.w3.org/1999/xlink" width="83" height="82" viewBox="0,0,83,82"><g transform="translate(-198.5,-139)"><g data-paper-data="{&quot;isPaintingLayer&quot;:true}" fill-rule="nonzero" stroke-linecap="butt" stroke-linejoin="miter" stroke-miterlimit="10" stroke-dasharray="" stroke-dashoffset="0" style="mix-blend-mode: normal"><path d="M280.5,180c0,22.09139 -18.13247,40 -40.5,40c-22.36753,0 -40.5,-17.90861 -40.5,-40c0,-22.09139 18.13247,-40 40.5,-40c22.36753,0 40.5,17.90861 40.5,40z" fill="#ffe820" stroke="#000000" stroke-width="2"/><path d="M240.03123,161.89925c1.76776,1.76776 0,3.53553 0,3.53553l-1.22877,1.20146c-2.15248,1.67284 -3.84913,3.72112 -5.9067,5.42203c-0.81235,0.67154 -1.63045,1.33711 -2.45011,2.00163c2.34221,2.09917 4.62662,4.25954 6.7117,6.63305l0.60359,1.02615c0,0 1.11804,2.23607 -1.11803,3.35411c-2.23607,1.11803 -3.3541,-1.11803 -3.3541,-1.11803l0.10567,0.0303c-2.11477,-2.4278 -4.46837,-4.60512 -6.8712,-6.72962c-3.1762,2.62859 -6.27459,5.36042 -9.04689,8.48701c0,0 -1.66091,1.86852 -3.52944,0.20761c-1.86853,-1.66091 -0.20761,-3.52943 -0.20761,-3.52943c2.76863,-3.10763 5.83024,-5.86182 8.98031,-8.50141c-0.43449,-0.38411 -0.86734,-0.76989 -1.29741,-1.15851c-2.41577,-2.18293 -4.04197,-4.66259 -6.60234,-6.62281c0,0 -1.97338,-1.53485 -0.43853,-3.50823c1.53485,-1.97338 3.50824,-0.43853 3.50824,-0.43853c2.63923,2.07883 4.345,4.58431 6.84165,6.82118c0.63269,0.56686 1.26949,1.12922 1.90763,1.69009c1.01857,-0.82608 2.03759,-1.65049 3.05038,-2.48101c2.08513,-1.70989 3.86282,-3.83499 6.04351,-5.53233l0.76293,-0.79023c0,0 1.76777,-1.76776 3.53553,0z" fill="#000000" stroke="none" stroke-width="0.5"/><path d="M250.01509,162.16896l0.76294,0.79023c2.18069,1.69735 3.95837,3.82244 6.0435,5.53233c1.01279,0.83052 2.03181,1.65493 3.05038,2.48101c0.63814,-0.56087 1.27495,-1.12323 1.90763,-1.69009c2.49665,-2.23687 4.20242,-4.74235 6.84165,-6.82118c0,0 1.97338,-1.53485 3.50823,0.43853c1.53485,1.97338 -0.43853,3.50823 -0.43853,3.50823c-2.56038,1.96022 -4.18657,4.43988 -6.60234,6.62281c-0.43007,0.38862 -0.86291,0.7744 -1.29741,1.1585c3.15008,2.63959 6.21169,5.39378 8.98031,8.50141c0,0 1.66091,1.86852 -0.20762,3.52943c-1.86852,1.66091 -3.52943,-0.20761 -3.52943,-0.20761c-2.77229,-3.12659 -5.87069,-5.85842 -9.04689,-8.48701c-2.40283,2.1245 -4.75643,4.30182 -6.8712,6.72962l0.10567,-0.0303c0,0 -1.11803,2.23607 -3.3541,1.11803c-2.23607,-1.11803 -1.11804,-3.35411 -1.11804,-3.35411l0.60359,-1.02615c2.08508,-2.37351 4.3695,-4.53389 6.7117,-6.63306c-0.81966,-0.66452 -1.63776,-1.33009 -2.45011,-2.00163c-2.05757,-1.70091 -3.75422,-3.74918 -5.9067,-5.42203l-1.22877,-1.20146c0,0 -1.76776,-1.76777 0,-3.53553c1.76776,-1.76776 3.53553,0 3.53553,0z" data-paper-data="{&quot;index&quot;:null}" fill="#000000" stroke="none" stroke-width="0.5"/><path d="M255.45226,201.01141c0,2.5 -2.5,2.5 -2.5,2.5h-2.73859c-4.28908,-0.0042 -8.5408,0.42163 -12.83479,0.489c-0.33372,0.1651 -0.70959,0.25789 -1.10712,0.25789c-1.38071,0 -2.5,-1.11929 -2.5,-2.5c0,-0.03795 0.00084,-0.07568 0.00252,-0.11321c-0.00167,-0.04441 -0.00252,-0.08966 -0.00252,-0.13575c0,-2.5 2.5,-2.5 2.5,-2.5c4.67235,0 9.2809,-0.49373 13.94191,-0.49792h2.73859c0,0 2.5,0 2.5,2.5z" fill="#000000" stroke="none" stroke-width="0.5"/></g></g></svg>