<svg version="1.1" xmlns="http://www.w3.org/2000/svg" xmlns:xlink="http://www.w3.org/1999/xlink" width="83" height="82" viewBox="0,0,83,82"><g transform="translate(-198.5,-139)"><g data-paper-data="{&quot;isPaintingLayer&quot;:true}" fill-rule="nonzero" stroke-linecap="butt" stroke-linejoin="miter" stroke-miterlimit="10" stroke-dasharray="" stroke-dashoffset="0" style="mix-blend-mode: normal"><path d="M280.5,180c0,22.09139 -18.13247,40 -40.5,40c-22.36753,0 -40.5,-17.90861 -40.5,-40c0,-22.09139 18.13247,-40 40.5,-40c22.36753,0 40.5,17.90861 40.5,40z" fill="#ffe820" stroke="#000000" stroke-width="2"/><path d="M260.10338,168.30721c0.44695,-2.68131 0.92226,-5.28025 1.14514,-7.99026c0,0 0.20761,-2.49136 2.69898,-2.28375c2.49136,0.20761 2.28375,2.69898 2.28375,2.69898c-0.24007,2.84669 -0.72663,5.58097 -1.1959,8.39703l-0.21291,0.6646c0.7404,0.06791 1.44866,0.19424 2.04559,0.4246c0.15741,0.06075 0.33168,0.34301 0.45201,0.58003c-1.06172,-2.9585 2.20754,-6.80382 3.5081,-9.66964l0.664,-1.05456c0,0 1.38675,-2.08013 3.46688,-0.69338c2.08013,1.38675 0.69338,3.46688 0.69338,3.46688l-0.27242,0.35007c-1.14106,2.50656 -3.00591,5.07101 -3.81389,7.69544c-0.38817,1.26085 0.27274,3.05892 -0.75595,3.88489c-1.72255,1.38309 -5.30903,0.11703 -7.27644,-0.05689c-5.3508,-0.47301 -10.78228,-0.4947 -16.15459,-0.93653c0,0 -2.49136,-0.20761 -2.28375,-2.69898c0.20761,-2.49136 2.69898,-2.28375 2.69898,-2.28375c4.00861,0.33806 7.82486,0.79943 11.81616,0.9055z" fill="#000000" stroke="none" stroke-width="0.5"/><path d="M216.33223,170.33594c-0.54853,-3.01692 -1.04414,-5.98721 -1.42564,-9.03308c0,0 -0.31009,-2.48069 2.17061,-2.79078c2.48069,-0.31009 2.79078,2.17061 2.79078,2.17061c0.36857,2.95477 0.85152,5.83236 1.3836,8.75883l0.01628,1.12553c4.16197,-0.27411 8.30458,-0.67837 12.51447,-1.06112c0,0 2.48973,-0.22634 2.71607,2.26339c0.22634,2.48973 -2.26339,2.71607 -2.26339,2.71607c-7.45978,0.67811 -14.72239,1.41489 -22.23212,1.41489h-0.70231c0,0 -1.1117,0 -1.85244,-0.74133c-1.32795,-0.32903 -1.72999,-1.80319 -1.72999,-1.80319l-0.70231,-2.57514c-0.73562,-2.70947 -1.18462,-5.41023 -1.68649,-8.17012c0,0 -0.44721,-2.45967 2.01246,-2.90689c2.45967,-0.44721 2.90689,2.01246 2.90689,2.01246c0.47586,2.61762 0.88728,5.18151 1.59096,7.74896l0.39137,1.43502c1.3712,-0.0028 2.73384,-0.03067 4.09087,-0.07848z" fill="#000000" stroke="none" stroke-width="0.5"/><path d="M254.76879,195.87428c0,2.5 -2.5,2.5 -2.5,2.5h-1.87283c-5.86069,-0.00515 -11.68386,-0.70231 -17.5578,-0.70231c0,0 -2.5,0 -2.5,-2.5c0,-2.5 2.5,-2.5 2.5,-2.5c5.87301,0 11.69996,0.70789 17.5578,0.70231h1.87283c0,0 2.5,0 2.5,2.5z" fill="#000000" stroke="none" stroke-width="0.5"/></g></g></svg>