<svg version="1.1" xmlns="http://www.w3.org/2000/svg" xmlns:xlink="http://www.w3.org/1999/xlink" width="83" height="82" viewBox="0,0,83,82"><g transform="translate(-198.5,-139)"><g data-paper-data="{&quot;isPaintingLayer&quot;:true}" fill-rule="nonzero" stroke-linecap="butt" stroke-linejoin="miter" stroke-miterlimit="10" stroke-dasharray="" stroke-dashoffset="0" style="mix-blend-mode: normal"><path d="M280.5,180c0,22.09139 -18.13247,40 -40.5,40c-22.36753,0 -40.5,-17.90861 -40.5,-40c0,-22.09139 18.13247,-40 40.5,-40c22.36753,0 40.5,17.90861 40.5,40z" fill="#ffe820" stroke="#000000" stroke-width="2"/><path d="" data-paper-data="{&quot;noHover&quot;:false,&quot;origItem&quot;:[&quot;Path&quot;,{&quot;applyMatrix&quot;:true,&quot;segments&quot;:[[[453.38886,402.41993],[-1.36039,-1.73861],[0.14308,-1.64527]],[[453.69655,397.4691],[-0.06595,1.65461],[-1.21276,-0.14037]],[[450.05693,397.0388],[1.21368,0.14645],[0.88348,1.84759]]],&quot;closed&quot;:true}]}" fill="#ffffff" stroke="none" stroke-width="0.5"/><path d="" data-paper-data="{&quot;noHover&quot;:false,&quot;origItem&quot;:[&quot;Path&quot;,{&quot;applyMatrix&quot;:true,&quot;segments&quot;:[[[447.95351,386.70528],[0,0],[1.94798,0.24354]],[[453.79271,387.41298],[-1.94496,-0.22808],[-0.04041,-3.67765]],[[453.66668,376.40874],[0.00115,3.65116],[-2.84415,-0.13988]],[[445.12876,376.08424],[2.84824,0.07148],[0.40565,0.87973]],[[445.62806,377.71316],[0,0],[0.38546,3.08426]],[[446.90315,386.70208],[-0.53143,-2.90476],[0.62141,-0.05042]]],&quot;closed&quot;:true}]}" fill="#ffffff" stroke="none" stroke-width="0.5"/><path d="" data-paper-data="{&quot;noHover&quot;:false,&quot;origItem&quot;:[&quot;Path&quot;,{&quot;applyMatrix&quot;:true,&quot;segments&quot;:[[[473.66667,378.33333],[0,3.65393],[0,0]],[[473.72989,377.64562],[-0.06323,0.41633],[-3.35586,-0.21609]],[[463.66739,376.98705],[3.3532,0.2148],[0.00831,3.83159]],[[463.77722,388.5119],[-0.02365,-3.84632],[3.37728,0.34635]],[[473.90537,389.46723],[-3.37552,-0.2896],[-0.06205,-3.73961]]],&quot;closed&quot;:true}]}" fill="#ffffff" stroke="none" stroke-width="0.5"/><path d="" data-paper-data="{&quot;noHover&quot;:false,&quot;origItem&quot;:[&quot;Path&quot;,{&quot;applyMatrix&quot;:true,&quot;segments&quot;:[[[495.74866,378.64013],[0.49146,4.14094],[-4.03742,-0.05861]],[[483.66342,378.22741],[4.02064,0.20259],[0.00324,0.06845]],[[483.66667,378.33333],[0,0],[0,3.953]],[[483.8269,390.22985],[-0.02128,-3.96632],[3.98933,0.26993]],[[495.80751,390.89882],[-3.99889,-0.17451],[0.31897,-4.05135]]],&quot;closed&quot;:true}]}" fill="#ffffff" stroke="none" stroke-width="0.5"/><path d="" data-paper-data="{&quot;noHover&quot;:false,&quot;origItem&quot;:[&quot;Path&quot;,{&quot;applyMatrix&quot;:true,&quot;segments&quot;:[[[515.00966,381.35598],[-0.48449,3.31542],[0.14178,-0.9702]],[[516.25829,378.69262],[0.27506,0.94113],[-0.19449,-0.66545]],[[514.18457,378.53291],[0.69328,0.00288],[-2.7934,-0.01159]],[[505.79487,378.60618],[2.79819,-0.04065],[0.38923,4.2783]],[[505.67561,391.22499],[0.33843,-4.16121],[2.66035,0.05915]],[[513.66994,391.33007],[-2.66954,-0.01045],[0.79109,-3.24685]]],&quot;closed&quot;:true}]}" fill="#ffffff" stroke="none" stroke-width="0.5"/><path d="" data-paper-data="{&quot;noHover&quot;:false,&quot;origItem&quot;:[&quot;Path&quot;,{&quot;applyMatrix&quot;:true,&quot;segments&quot;:[[[504.43701,405.58331],[0.07319,-1.46701],[1.59114,-1.27245]],[[508.45568,401.27923],[-1.12792,1.5741],[-1.23897,-0.01937]],[[504.74135,401.20588],[1.23728,0.02949],[-0.12425,1.4524]]],&quot;closed&quot;:true}]}" fill="#ffffff" stroke="none" stroke-width="0.5"/><path d="" data-paper-data="{&quot;noHover&quot;:false,&quot;origItem&quot;:[&quot;Path&quot;,{&quot;applyMatrix&quot;:true,&quot;segments&quot;:[[494.19453,408.76393],[[494.33333,409.66667],[0,0],[0.00508,-2.96576]],[[494.8294,400.86466],[-0.27683,2.9095],[-3.78922,-0.16974]],[[483.47506,400.22774],[3.7812,0.25362],[-0.24643,2.68434]],[[482.18405,408.21268],[0.64166,-2.6352],[0,0]],[481.51738,410.87934],[[481.46124,411.06868],[0.03881,-0.12001],[4.1311,0.2475]],[[493.71427,410.34746],[-3.9236,0.81347],[0.15403,-0.93108]]],&quot;closed&quot;:true}]}" fill="#ffffff" stroke="none" stroke-width="0.5"/><path d="" data-paper-data="{&quot;noHover&quot;:false,&quot;origItem&quot;:[&quot;Path&quot;,{&quot;applyMatrix&quot;:true,&quot;segments&quot;:[[[462.96139,406.95351],[0.34391,-2.78975],[0,0]],[[462.69401,407.63571],[0,0],[1.77248,0.51238]],[[467.21268,408.81595],[-1.09064,-0.26874],[1.41572,0.34884]],[[471.68136,409.79954],[-1.55555,-0.30102],[-0.00523,-0.78625]],[471.81595,408.45399],[[472.48262,405.78732],[0,0],[0.5333,-2.06578]],[[473.58454,399.47509],[-0.2205,2.13663],[-3.31663,-0.28146]],[[463.63395,398.54823],[3.31768,0.3356],[-0.12075,2.81167]]],&quot;closed&quot;:true}]}" fill="#ffffff" stroke="none" stroke-width="0.5"/><path d="M252.77432,197.38197c0.78223,-0.39111 1.29081,0.03869 1.52576,0.33217c0.23298,-0.42665 0.45413,-0.85083 0.66568,-1.2643c-0.68351,0.24523 -1.73509,0.34772 -2.76579,0.37811c0.05004,0.19246 0.05004,0.33873 0.05004,0.33873c0,0.22606 -0.00211,0.44801 -0.00647,0.66666c0.107,-0.16633 0.27501,-0.32347 0.53079,-0.45136zM235.33334,197.58334c1.14768,0.00724 2.2529,0.16937 3.35981,0.34861c0.04353,-0.71595 0.06025,-1.42439 0.05686,-2.09861c0,0 0,-0.03902 0.00689,-0.10326c-1.39891,-0.15235 -3.41529,0.11584 -4.4471,-0.82488c-0.34772,-0.31702 0.44849,0.83693 0.56956,1.29163c0.11788,0.44269 0.22223,0.88889 0.33334,1.33334l0.01507,0.06031c0.06563,-0.00715 0.10558,-0.00714 0.10558,-0.00714zM249.12066,202.53017c0.16896,-0.67583 0.29778,-1.30806 0.39348,-1.93093c-0.83469,0.05877 -1.67253,0.12271 -2.50922,0.17711c-0.36862,1.24543 -0.7369,2.48995 -1.06808,3.76242c1.10179,-0.15467 2.17442,-0.47525 3.15407,-0.97002zM249.75,197.16667c0,0 0,-0.16588 0.06043,-0.37679c-0.2721,-0.01621 -0.48968,-0.03401 -0.62982,-0.04924c-0.33605,-0.03653 -0.67267,-0.07139 -1.00971,-0.10498c-0.13769,0.54298 -0.28254,1.0801 -0.43177,1.61358c0.66662,-0.04926 1.33331,-0.10261 1.9972,-0.15186c0.00934,-0.30159 0.01367,-0.61074 0.01367,-0.93071zM251.93835,201.26532c0.22986,-0.26767 0.45025,-0.54631 0.66201,-0.83288c-0.18025,0.0051 -0.36091,0.01134 -0.54193,0.01855c-0.03469,0.27087 -0.07459,0.54171 -0.12008,0.81432zM244.66667,207.08334c-0.26963,0 -0.4811,-0.05816 -0.64695,-0.14939c-3.51315,-0.01801 -7.19085,-0.94699 -8.94796,-2.9301c-1.3087,-1.47703 -1.91269,-3.39235 -2.29748,-5.25869c0,0 -0.05506,-0.27526 0.01746,-0.59098l-0.00441,-0.01766c-0.38738,-1.54953 -1.54877,-4.07201 0.23623,-5.37504c0.66368,-0.48449 3.92355,0.38886 4.79585,0.4979c3.85787,0.48224 7.80107,0.56017 11.66667,1c1.81558,0.20658 6.86964,-1.42271 8.16586,0.13804c0.54104,0.65145 -0.09749,1.69086 -0.14623,2.53628c-1.59265,3.22216 -3.66594,6.87647 -6.95091,8.68646c-1.2941,0.71303 -3.15998,1.14763 -5.17604,1.27483c-0.17458,0.11331 -0.4058,0.18836 -0.71207,0.18836zM243.42603,204.34727c0.28449,-1.16836 0.60828,-2.31035 0.9408,-3.44791c-1.17739,0.02541 -2.34323,0.00029 -3.48516,-0.11745c-0.09144,0.57535 -0.20242,1.14077 -0.33565,1.68793l0.03733,0.69683c0,0 0,0.4047 -0.23027,0.75355c0.96947,0.37053 2.01177,0.60267 3.07132,0.68919zM245.64965,196.40308c-1.46693,-0.12799 -2.93686,-0.24953 -4.40075,-0.3954c-0.00636,0.74813 -0.03379,1.51862 -0.08853,2.29236c1.2809,0.14075 2.60125,0.15304 3.93738,0.1044c0.19051,-0.66181 0.37645,-1.32752 0.5519,-2.00136zM238.12066,201.8635c0.12029,-0.46597 0.22033,-0.95381 0.30257,-1.4537c-0.85076,-0.14601 -1.70194,-0.2813 -2.56933,-0.3174c0.52881,1.03908 1.30538,1.91122 2.24288,2.60514z" fill="#000000" stroke="none" stroke-width="0.5"/><path d="M252.1991,197.85628c0.00437,-0.21865 0.00091,-0.46261 0.00091,-0.68867c0,0 0.00123,-0.15827 -0.0488,-0.35073c1.0307,-0.03038 2.17575,-0.14418 2.85926,-0.38941c-0.21156,0.41347 -0.43834,0.89121 -0.67132,1.31786c-0.23495,-0.29348 -0.83053,-0.74022 -1.61276,-0.34911c-0.25578,0.12789 -0.42029,0.29373 -0.52729,0.46006z" data-paper-data="{&quot;noHover&quot;:false,&quot;origItem&quot;:[&quot;Path&quot;,{&quot;applyMatrix&quot;:true,&quot;segments&quot;:[[[505.54863,394.76393],[-0.51156,0.25578],[1.56445,-0.78222]],[[508.60014,395.42826],[-0.46989,-0.58695],[0.46596,-0.8533]],[[509.9315,392.89966],[-0.42311,0.82694],[-1.36703,0.49046]],[[504.39993,393.65587],[2.0614,-0.06077],[0.10007,0.38493]],[[504.5,394.33333],[0,0],[0,0.45211]],[[504.48705,395.66666],[0.00874,-0.4373],[0.21401,-0.33265]]],&quot;closed&quot;:true}]}" fill="#ffffff" stroke="none" stroke-width="0.5"/><path d="M249.77766,198.12553c-0.66389,0.04925 -1.41135,0.10517 -2.07797,0.15443c0.14923,-0.53348 0.30356,-1.14136 0.44125,-1.68433c0.33704,0.03358 0.72864,0.06519 1.0647,0.10172c0.14014,0.01523 0.375,0.04966 0.6471,0.06587c-0.06043,0.21091 -0.05462,0.38984 -0.05462,0.38984c0,0.31998 -0.01112,0.67087 -0.02046,0.97246z" data-paper-data="{&quot;noHover&quot;:false,&quot;origItem&quot;:[&quot;Path&quot;,{&quot;applyMatrix&quot;:true,&quot;segments&quot;:[[[499.5,394.33333],[0,0.63996],[0,0]],[[499.62086,393.57975],[-0.12086,0.42182],[-0.5442,-0.03241]],[[498.36121,393.48127],[0.28028,0.03047],[-0.67211,-0.07306]],[[496.3418,393.27131],[0.67408,0.06717],[-0.27537,1.08595]],[[495.47826,396.49847],[0.29846,-1.06695],[1.33323,-0.09852]],[[499.47266,396.19476],[-1.32779,0.09849],[0.01868,-0.60319]]],&quot;closed&quot;:true}]}" fill="#ffffff" stroke="none" stroke-width="0.5"/><path d="M252.03501,200.40682c0.18103,-0.00722 0.41621,-0.00842 0.59645,-0.01352c-0.21176,0.28656 -0.49437,0.64349 -0.72423,0.91116c0.04549,-0.27262 0.09309,-0.62677 0.12778,-0.89764z" data-paper-data="{&quot;noHover&quot;:false,&quot;origItem&quot;:[&quot;Path&quot;,{&quot;applyMatrix&quot;:true,&quot;segments&quot;:[[[503.87669,402.53064],[0.09099,-0.54523],[0.45972,-0.53534]],[[505.20071,400.86489],[-0.42352,0.57313],[-0.36049,0.01021]],[[504.11685,400.90199],[0.36205,-0.01443],[-0.06938,0.54175]]],&quot;closed&quot;:true}]}" fill="#ffffff" stroke="none" stroke-width="0.5"/><path d="M249.13126,203.59829c-0.97966,0.49477 -2.12624,0.82283 -3.22803,0.97751c0.33119,-1.27247 0.71442,-2.60039 1.08304,-3.84583c0.83668,-0.0544 1.7268,-0.10897 2.56148,-0.16774c-0.09571,0.62286 -0.20816,1.29072 -0.37712,1.96654z" data-paper-data="{&quot;noHover&quot;:false,&quot;origItem&quot;:[&quot;Path&quot;,{&quot;applyMatrix&quot;:true,&quot;segments&quot;:[[[498.24131,405.06033],[0,0],[0.33792,-1.35166]],[[499.02827,401.19848],[-0.19141,1.24572],[-1.66937,0.11754]],[[494.00984,401.55271],[1.67337,-0.1088],[-0.73724,2.49087]],[[491.87368,409.07754],[0.66237,-2.54493],[2.20358,-0.30934]],[[498.18182,407.1375],[-1.95931,0.98954],[0,0]]],&quot;closed&quot;:true}]}" fill="#ffffff" stroke="none" stroke-width="0.5"/><path d="M243.44869,204.6531c-1.05955,-0.08652 -2.16883,-0.33631 -3.1383,-0.70684c0.23027,-0.34885 0.22462,-0.76677 0.22462,-0.76677l-0.03861,-0.71582c0.13323,-0.54716 0.26326,-1.14598 0.3547,-1.72133c1.14193,0.11774 2.3756,0.14908 3.55299,0.12367c-0.33252,1.13756 -0.66645,2.35491 -0.95094,3.52327z" data-paper-data="{&quot;noHover&quot;:false,&quot;origItem&quot;:[&quot;Path&quot;,{&quot;applyMatrix&quot;:true,&quot;segments&quot;:[[[486.85206,408.69454],[0,0],[0.56898,-2.33672]],[[488.73365,401.79871],[-0.66504,2.27512],[-2.35478,0.05081]],[[481.76332,401.56381],[2.28386,0.23548],[-0.18288,1.1507]],[[481.09202,404.93967],[0.26646,-1.09432],[0,0]],[481.16667,406.33333],[[480.70613,407.84042],[0.46054,-0.6977],[1.93895,0.74107]],[[486.84876,409.2188],[-2.11909,-0.17304],[0,0]]],&quot;closed&quot;:true}]}" fill="#ffffff" stroke="none" stroke-width="0.5"/><path d="M245.13871,198.43312c-1.33613,0.04864 -2.74247,0.02936 -4.02338,-0.11138c0.05473,-0.77374 0.08362,-1.59042 0.08998,-2.33855c1.46389,0.14587 3.02441,0.27482 4.49133,0.40282c-0.17544,0.67384 -0.36743,1.3853 -0.55794,2.04711z" data-paper-data="{&quot;noHover&quot;:false,&quot;origItem&quot;:[&quot;Path&quot;,{&quot;applyMatrix&quot;:true,&quot;segments&quot;:[[[491.29929,392.80616],[-0.35089,1.34768],[-2.93385,-0.25598]],[[482.49779,392.01535],[2.92778,0.29175],[-0.01271,1.49626]],[[482.32074,396.60007],[0.10947,-1.54749],[2.56181,0.28149]],[[490.1955,396.80887],[-2.67226,0.09728],[0.38101,-1.32363]]],&quot;closed&quot;:true}]}" fill="#ffffff" stroke="none" stroke-width="0.5"/><path d="M238.1264,202.73782c-0.9375,-0.69393 -1.77881,-1.64194 -2.30761,-2.68102c0.86739,0.0361 1.79336,0.17656 2.64412,0.32256c-0.08225,0.49989 -0.17682,1.03969 -0.29711,1.50566z" data-paper-data="{&quot;noHover&quot;:false,&quot;origItem&quot;:[&quot;Path&quot;,{&quot;applyMatrix&quot;:true,&quot;segments&quot;:[[[476.24131,403.72699],[0,0],[0.24059,-0.93193]],[[476.84645,400.81959],[-0.16449,0.99978],[-1.70152,-0.29202]],[[471.70778,400.1848],[1.73478,0.0722],[1.05761,2.07816]],[[476.19354,405.39509],[-1.875,-1.38785],[0,0]]],&quot;closed&quot;:true}]}" fill="#ffffff" stroke="none" stroke-width="0.5"/><path d="M235.19151,197.62492l-0.01615,-0.06147c-0.11111,-0.44445 -0.22778,-0.92991 -0.34566,-1.37261c-0.12107,-0.4547 -0.90895,-1.63082 -0.56123,-1.3138c1.03181,0.94072 3.13751,0.68669 4.53642,0.83904c-0.00689,0.06424 -0.00635,0.10527 -0.00635,0.10527c0.00339,0.67423 -0.02088,1.4233 -0.06441,2.13925c-1.10691,-0.17925 -2.28793,-0.33414 -3.43561,-0.34138c0,0 -0.04138,-0.00145 -0.10701,0.00569z" data-paper-data="{&quot;noHover&quot;:false,&quot;origItem&quot;:[&quot;Path&quot;,{&quot;applyMatrix&quot;:true,&quot;segments&quot;:[[[470.66667,395.16667],[0,0],[2.29536,0.01447]],[[477.38629,395.8639],[-2.21382,-0.35849],[0.08707,-1.43189]],[[477.5,391.66667],[0.00678,1.34845],[0,0]],[[477.51378,391.46016],[-0.01378,0.12848],[-2.79782,-0.3047]],[[468.61957,389.8104],[2.06363,1.88143],[-0.69544,-0.63404]],[[469.75869,392.39366],[-0.24215,-0.9094],[0.23576,0.88539]],[[470.42536,395.06033],[-0.22222,-0.88889],[0,0]],[[470.45551,395.18095],[0,0],[0.13125,-0.01429]]],&quot;closed&quot;:true}]}" fill="#ffffff" stroke="none" stroke-width="0.5"/><g fill="#000000"><path d="M233.85838,175.08815c0,5.6697 -3.87804,10.2659 -8.66185,10.2659c-4.78381,0 -8.66185,-4.59619 -8.66185,-10.26589c0,-5.6697 3.87804,-10.26589 8.66185,-10.26589c4.78381,0 8.66185,4.59619 8.66185,10.2659z" stroke="#000000" stroke-width="2"/><path d="M224.35792,170.01786c-2.23607,1.11803 -3.3541,-1.11803 -3.3541,-1.11803l-0.07816,-0.19949c-1.50254,-2.25514 -2.88344,-4.56613 -4.27748,-6.88953c0,0 -1.28624,-2.14373 0.85749,-3.42997c2.14373,-1.28624 3.42997,0.85749 3.42997,0.85749c1.35323,2.25539 2.69053,4.50026 4.15027,6.68851l0.39005,0.73692c0,0 1.11803,2.23607 -1.11803,3.3541z" stroke="none" stroke-width="0.5"/><path d="M220.55967,174.23164c-1.76777,1.76777 -3.53553,0 -3.53553,0l-0.23529,-0.26259c-2.47104,-1.9222 -4.80425,-3.84497 -7.02193,-6.05821c0,0 -1.76777,-1.76777 0,-3.53553c1.76777,-1.76777 3.53553,0 3.53553,0c2.06688,2.07138 4.24808,3.85213 6.5561,5.64699l0.70112,0.67382c0,0 1.76777,1.76777 0,3.53553z" stroke="none" stroke-width="0.5"/></g><g fill="#000000"><path d="M265.61273,174.06792c0,5.6697 -3.87804,10.2659 -8.66185,10.2659c-4.78381,0 -8.66185,-4.5962 -8.66185,-10.2659c0,-5.6697 3.87804,-10.2659 8.66185,-10.2659c4.78381,0 8.66185,4.5962 8.66185,10.2659z" stroke="#000000" stroke-width="2"/><path d="M273.99728,170.54266c0.9848,2.29786 -1.31306,3.28266 -1.31306,3.28266l-2.17631,0.86412c-1.71676,0.31214 -3.43353,0.62428 -5.15029,0.93642c0,0 -2.45967,0.44721 -2.90689,-2.01246c-0.17702,-0.97362 0.10142,-1.63192 0.50249,-2.07198c-0.36563,0.21372 -2.16026,1.12605 -3.40039,-0.73415c-1.38675,-2.08013 0.69338,-3.46688 0.69338,-3.46688c2.34289,-1.56174 4.70925,-3.06269 7.12363,-4.51158l0.89502,-0.74486c0,0 1.95217,-1.56174 3.51391,0.39043c1.56174,1.95217 -0.39043,3.51391 -0.39043,3.51391l-1.44602,1.12798c-2.00451,1.20249 -3.97434,2.44206 -5.92519,3.72411c0.26023,-0.10009 0.44607,-0.13388 0.44607,-0.13388c1.71676,-0.31214 3.43353,-0.62428 5.15029,-0.93642l1.10114,-0.5405c0,0 2.29786,-0.9848 3.28266,1.31306z" stroke="none" stroke-width="0.5"/></g></g></g></svg>