<svg version="1.1" xmlns="http://www.w3.org/2000/svg" xmlns:xlink="http://www.w3.org/1999/xlink" width="83" height="82" viewBox="0,0,83,82"><g transform="translate(-198.5,-139)"><g data-paper-data="{&quot;isPaintingLayer&quot;:true}" fill-rule="nonzero" stroke-linecap="butt" stroke-linejoin="miter" stroke-miterlimit="10" stroke-dasharray="" stroke-dashoffset="0" style="mix-blend-mode: normal"><path d="M280.5,180c0,22.09139 -18.13247,40 -40.5,40c-22.36753,0 -40.5,-17.90861 -40.5,-40c0,-22.09139 18.13247,-40 40.5,-40c22.36753,0 40.5,17.90861 40.5,40z" fill="#ffe820" stroke="#000000" stroke-width="2"/><path d="M274.25454,170.52245c0.03267,-0.47023 0.30045,-2.39745 2.49546,-2.39745c2.5,0 2.5,2.5 2.5,2.5l-0.10543,0.96837c-0.56078,1.83557 -1.19247,4.733 -2.8273,5.97936c-3.42551,2.61154 -8.36872,1.18277 -10.66971,-2.09505c-2.06204,-2.93744 -0.97858,-6.47654 -4.77415,-8.37091c-1.64506,-0.82105 -6.38373,-1.43458 -8.04048,-0.36675c-2.84232,1.83197 -3.33037,6.92618 -3.5932,9.86132c0,0 -0.22634,2.48973 -2.71607,2.26339c-2.48973,-0.22634 -2.26339,-2.71607 -2.26339,-2.71607c0.41729,-4.52847 1.5653,-10.96094 5.9068,-13.63868c4.29279,-2.64769 12.06484,-1.22447 15.5257,2.02531c2.73578,2.56892 2.59613,2.83491 3.69064,6.33515c0.45068,1.44126 0.05697,2.07616 1.47223,2.76233c2.52994,1.22661 2.91885,-1.28088 3.3989,-3.11032z" fill="#000000" stroke="none" stroke-width="0.5"/><path d="M211.14927,174.13278c1.41526,-0.68617 1.02155,-1.32108 1.47223,-2.76234c1.09451,-3.50024 0.95486,-3.76623 3.69064,-6.33515c3.46086,-3.24979 11.23291,-4.673 15.5257,-2.02531c4.34151,2.67774 5.48951,9.11021 5.9068,13.63868c0,0 0.22634,2.48973 -2.2634,2.71607c-2.48973,0.22634 -2.71607,-2.2634 -2.71607,-2.2634c-0.26282,-2.93514 -0.75088,-8.02935 -3.5932,-9.86132c-1.65675,-1.06784 -6.39541,-0.4543 -8.04047,0.36676c-3.79557,1.89437 -2.71211,5.43347 -4.77416,8.37091c-2.30099,3.27782 -7.24419,4.7066 -10.66971,2.09506c-1.63483,-1.24636 -2.26652,-4.1438 -2.82729,-5.97937l-0.10544,-0.96837c0,0 0,-2.5 2.5,-2.5c2.19501,0 2.46279,1.92723 2.49546,2.39746c0.48005,1.82944 0.86896,4.33693 3.3989,3.11032z" data-paper-data="{&quot;index&quot;:null}" fill="#000000" stroke="none" stroke-width="0.5"/><path d="" data-paper-data="{&quot;noHover&quot;:false,&quot;origItem&quot;:[&quot;Path&quot;,{&quot;applyMatrix&quot;:true,&quot;segments&quot;:[[[453.38886,402.41993],[-1.36039,-1.73861],[0.14308,-1.64527]],[[453.69655,397.4691],[-0.06595,1.65461],[-1.21276,-0.14037]],[[450.05693,397.0388],[1.21368,0.14645],[0.88348,1.84759]]],&quot;closed&quot;:true}]}" fill="#ffffff" stroke="none" stroke-width="0.5"/><path d="" data-paper-data="{&quot;noHover&quot;:false,&quot;origItem&quot;:[&quot;Path&quot;,{&quot;applyMatrix&quot;:true,&quot;segments&quot;:[[[447.95351,386.70528],[0,0],[1.94798,0.24354]],[[453.79271,387.41298],[-1.94496,-0.22808],[-0.04041,-3.67765]],[[453.66668,376.40874],[0.00115,3.65116],[-2.84415,-0.13988]],[[445.12876,376.08424],[2.84824,0.07148],[0.40565,0.87973]],[[445.62806,377.71316],[0,0],[0.38546,3.08426]],[[446.90315,386.70208],[-0.53143,-2.90476],[0.62141,-0.05042]]],&quot;closed&quot;:true}]}" fill="#ffffff" stroke="none" stroke-width="0.5"/><path d="" data-paper-data="{&quot;noHover&quot;:false,&quot;origItem&quot;:[&quot;Path&quot;,{&quot;applyMatrix&quot;:true,&quot;segments&quot;:[[[473.66667,378.33333],[0,3.65393],[0,0]],[[473.72989,377.64562],[-0.06323,0.41633],[-3.35586,-0.21609]],[[463.66739,376.98705],[3.3532,0.2148],[0.00831,3.83159]],[[463.77722,388.5119],[-0.02365,-3.84632],[3.37728,0.34635]],[[473.90537,389.46723],[-3.37552,-0.2896],[-0.06205,-3.73961]]],&quot;closed&quot;:true}]}" fill="#ffffff" stroke="none" stroke-width="0.5"/><path d="" data-paper-data="{&quot;noHover&quot;:false,&quot;origItem&quot;:[&quot;Path&quot;,{&quot;applyMatrix&quot;:true,&quot;segments&quot;:[[[495.74866,378.64013],[0.49146,4.14094],[-4.03742,-0.05861]],[[483.66342,378.22741],[4.02064,0.20259],[0.00324,0.06845]],[[483.66667,378.33333],[0,0],[0,3.953]],[[483.8269,390.22985],[-0.02128,-3.96632],[3.98933,0.26993]],[[495.80751,390.89882],[-3.99889,-0.17451],[0.31897,-4.05135]]],&quot;closed&quot;:true}]}" fill="#ffffff" stroke="none" stroke-width="0.5"/><path d="" data-paper-data="{&quot;noHover&quot;:false,&quot;origItem&quot;:[&quot;Path&quot;,{&quot;applyMatrix&quot;:true,&quot;segments&quot;:[[[515.00966,381.35598],[-0.48449,3.31542],[0.14178,-0.9702]],[[516.25829,378.69262],[0.27506,0.94113],[-0.19449,-0.66545]],[[514.18457,378.53291],[0.69328,0.00288],[-2.7934,-0.01159]],[[505.79487,378.60618],[2.79819,-0.04065],[0.38923,4.2783]],[[505.67561,391.22499],[0.33843,-4.16121],[2.66035,0.05915]],[[513.66994,391.33007],[-2.66954,-0.01045],[0.79109,-3.24685]]],&quot;closed&quot;:true}]}" fill="#ffffff" stroke="none" stroke-width="0.5"/><path d="" data-paper-data="{&quot;noHover&quot;:false,&quot;origItem&quot;:[&quot;Path&quot;,{&quot;applyMatrix&quot;:true,&quot;segments&quot;:[[[504.43701,405.58331],[0.07319,-1.46701],[1.59114,-1.27245]],[[508.45568,401.27923],[-1.12792,1.5741],[-1.23897,-0.01937]],[[504.74135,401.20588],[1.23728,0.02949],[-0.12425,1.4524]]],&quot;closed&quot;:true}]}" fill="#ffffff" stroke="none" stroke-width="0.5"/><path d="" data-paper-data="{&quot;noHover&quot;:false,&quot;origItem&quot;:[&quot;Path&quot;,{&quot;applyMatrix&quot;:true,&quot;segments&quot;:[[494.19453,408.76393],[[494.33333,409.66667],[0,0],[0.00508,-2.96576]],[[494.8294,400.86466],[-0.27683,2.9095],[-3.78922,-0.16974]],[[483.47506,400.22774],[3.7812,0.25362],[-0.24643,2.68434]],[[482.18405,408.21268],[0.64166,-2.6352],[0,0]],[481.51738,410.87934],[[481.46124,411.06868],[0.03881,-0.12001],[4.1311,0.2475]],[[493.71427,410.34746],[-3.9236,0.81347],[0.15403,-0.93108]]],&quot;closed&quot;:true}]}" fill="#ffffff" stroke="none" stroke-width="0.5"/><path d="" data-paper-data="{&quot;noHover&quot;:false,&quot;origItem&quot;:[&quot;Path&quot;,{&quot;applyMatrix&quot;:true,&quot;segments&quot;:[[[462.96139,406.95351],[0.34391,-2.78975],[0,0]],[[462.69401,407.63571],[0,0],[1.77248,0.51238]],[[467.21268,408.81595],[-1.09064,-0.26874],[1.41572,0.34884]],[[471.68136,409.79954],[-1.55555,-0.30102],[-0.00523,-0.78625]],[471.81595,408.45399],[[472.48262,405.78732],[0,0],[0.5333,-2.06578]],[[473.58454,399.47509],[-0.2205,2.13663],[-3.31663,-0.28146]],[[463.63395,398.54823],[3.31768,0.3356],[-0.12075,2.81167]]],&quot;closed&quot;:true}]}" fill="#ffffff" stroke="none" stroke-width="0.5"/><path d="M252.77432,197.38197c0.78222,-0.39111 1.29081,0.03869 1.52576,0.33216c0.23298,-0.42665 0.45412,-0.85083 0.66568,-1.2643c-0.68352,0.24523 -1.73508,0.34772 -2.76578,0.3781c0.05003,0.19247 0.05003,0.33873 0.05003,0.33873c0,0.22605 -0.0021,0.44801 -0.00647,0.66666c0.10701,-0.16633 0.27501,-0.32347 0.53079,-0.45136zM235.33333,197.58333c1.14768,0.00723 2.25291,0.16937 3.35981,0.34862c0.04353,-0.71595 0.06024,-1.42439 0.05685,-2.09862c0,0 0,-0.03901 0.00689,-0.10325c-1.39891,-0.15235 -3.41529,0.11583 -4.44711,-0.82488c-0.34772,-0.31702 0.44848,0.83693 0.56956,1.29163c0.11788,0.4427 0.22222,0.88889 0.33333,1.33333l0.01508,0.06031c0.06562,-0.00714 0.10558,-0.00714 0.10558,-0.00714zM249.12066,202.53016c0.16896,-0.67583 0.29778,-1.30806 0.39348,-1.93092c-0.83468,0.05877 -1.67253,0.12272 -2.50922,0.17712c-0.36862,1.24543 -0.73689,2.48995 -1.06808,3.76241c1.10179,-0.15467 2.17442,-0.47525 3.15407,-0.97002zM249.75,197.16667c0,0 0,-0.16588 0.06043,-0.37679c-0.2721,-0.0162 -0.48969,-0.03401 -0.62983,-0.04924c-0.33606,-0.03653 -0.67266,-0.0714 -1.0097,-0.10498c-0.13768,0.54297 -0.28254,1.0801 -0.43177,1.61358c0.66662,-0.04926 1.3333,-0.10261 1.9972,-0.15186c0.00934,-0.30159 0.01367,-0.61073 0.01367,-0.93071zM251.93835,201.26532c0.22986,-0.26767 0.45025,-0.54631 0.66201,-0.83288c-0.18025,0.0051 -0.3609,0.01134 -0.54193,0.01855c-0.03469,0.27088 -0.07459,0.54171 -0.12008,0.81432zM244.66667,207.08333c-0.26963,0 -0.4811,-0.05816 -0.64695,-0.14939c-3.51315,-0.01801 -7.19085,-0.94699 -8.94796,-2.9301c-1.3087,-1.47703 -1.91269,-3.39235 -2.29748,-5.2587c0,0 -0.05505,-0.27526 0.01746,-0.59098l-0.00441,-0.01766c-0.38738,-1.54953 -1.54877,-4.072 0.23623,-5.37504c0.66369,-0.48449 3.92355,0.38886 4.79585,0.4979c3.85786,0.48223 7.80107,0.56017 11.66667,1c1.81558,0.20658 6.86963,-1.42271 8.16586,0.13804c0.54105,0.65145 -0.09749,1.69085 -0.14623,2.53628c-1.59265,3.22216 -3.66594,6.87647 -6.95091,8.68646c-1.2941,0.71304 -3.15997,1.14763 -5.17604,1.27484c-0.17457,0.11331 -0.4058,0.18835 -0.71207,0.18835zM243.42603,204.34727c0.28449,-1.16836 0.60828,-2.31036 0.9408,-3.44792c-1.17739,0.0254 -2.34324,0.00029 -3.48517,-0.11745c-0.09144,0.57535 -0.20242,1.14077 -0.33565,1.68793l0.03732,0.69683c0,0 0,0.40469 -0.23027,0.75354c0.96948,0.37054 2.01177,0.60267 3.07132,0.68919zM245.64965,196.40308c-1.46692,-0.12799 -2.93686,-0.24953 -4.40075,-0.39541c-0.00635,0.74813 -0.03379,1.51862 -0.08852,2.29236c1.28091,0.14075 2.60125,0.15304 3.93738,0.1044c0.19051,-0.66181 0.37645,-1.32751 0.5519,-2.00135zM238.12066,201.8635c0.12029,-0.46597 0.22032,-0.95381 0.30257,-1.4537c-0.85076,-0.14601 -1.70194,-0.28129 -2.56933,-0.31739c0.5288,1.03908 1.30538,1.91122 2.24288,2.60514z" fill="#000000" stroke="none" stroke-width="0.5"/><path d="M252.1991,197.85627c0.00437,-0.21865 0.00091,-0.46261 0.00091,-0.68867c0,0 0.00123,-0.15827 -0.0488,-0.35073c1.0307,-0.03039 2.17574,-0.14418 2.85926,-0.38941c-0.21156,0.41347 -0.43834,0.89121 -0.67132,1.31786c-0.23495,-0.29347 -0.83054,-0.74022 -1.61276,-0.34911c-0.25578,0.12789 -0.42028,0.29373 -0.52729,0.46006z" data-paper-data="{&quot;noHover&quot;:false,&quot;origItem&quot;:[&quot;Path&quot;,{&quot;applyMatrix&quot;:true,&quot;segments&quot;:[[[252.77432,197.38197],[-0.25578,0.12789],[0.78222,-0.39111]],[[254.30007,197.71413],[-0.23495,-0.29347],[0.23298,-0.42665]],[[254.96575,196.44983],[-0.21156,0.41347],[-0.68352,0.24523]],[[252.19997,196.82794],[1.0307,-0.03039],[0.05003,0.19247]],[[252.25,197.16667],[0,0],[0,0.22605]],[[252.24353,197.83333],[0.00437,-0.21865],[0.10701,-0.16633]]],&quot;closed&quot;:true}]}" fill="#ffffff" stroke="none" stroke-width="0.5"/><path d="M249.77766,198.12553c-0.66389,0.04924 -1.41135,0.10517 -2.07797,0.15444c0.14923,-0.53348 0.30357,-1.14136 0.44125,-1.68433c0.33704,0.03358 0.72864,0.06519 1.06469,0.10172c0.14014,0.01523 0.375,0.04966 0.6471,0.06587c-0.06043,0.21091 -0.05462,0.38984 -0.05462,0.38984c0,0.31998 -0.01112,0.67087 -0.02046,0.97246z" data-paper-data="{&quot;noHover&quot;:false,&quot;origItem&quot;:[&quot;Path&quot;,{&quot;applyMatrix&quot;:true,&quot;segments&quot;:[[[249.75,197.16667],[0,0.31998],[0,0]],[[249.81043,196.78987],[-0.06043,0.21091],[-0.2721,-0.0162]],[[249.1806,196.74063],[0.14014,0.01523],[-0.33606,-0.03653]],[[248.1709,196.63566],[0.33704,0.03358],[-0.13768,0.54297]],[[247.73913,198.24923],[0.14923,-0.53348],[0.66662,-0.04926]],[[249.73633,198.09738],[-0.66389,0.04924],[0.00934,-0.30159]]],&quot;closed&quot;:true}]}" fill="#ffffff" stroke="none" stroke-width="0.5"/><path d="M252.03501,200.40682c0.18102,-0.00721 0.41621,-0.00841 0.59646,-0.01352c-0.21176,0.28656 -0.49437,0.64349 -0.72423,0.91116c0.04549,-0.27261 0.09308,-0.62677 0.12777,-0.89764z" data-paper-data="{&quot;noHover&quot;:false,&quot;origItem&quot;:[&quot;Path&quot;,{&quot;applyMatrix&quot;:true,&quot;segments&quot;:[[[251.93835,201.26532],[0.04549,-0.27261],[0.22986,-0.26767]],[[252.60035,200.43244],[-0.21176,0.28656],[-0.18025,0.0051]],[[252.05843,200.451],[0.18102,-0.00721],[-0.03469,0.27088]]],&quot;closed&quot;:true}]}" fill="#ffffff" stroke="none" stroke-width="0.5"/><path d="M249.13125,203.59829c-0.97965,0.49477 -2.12624,0.82283 -3.22802,0.9775c0.33118,-1.27247 0.71442,-2.60039 1.08304,-3.84582c0.83669,-0.0544 1.7268,-0.10897 2.56148,-0.16774c-0.0957,0.62286 -0.20816,1.29072 -0.37711,1.96655z" data-paper-data="{&quot;noHover&quot;:false,&quot;origItem&quot;:[&quot;Path&quot;,{&quot;applyMatrix&quot;:true,&quot;segments&quot;:[[[249.12066,202.53016],[0,0],[0.16896,-0.67583]],[[249.51414,200.59924],[-0.0957,0.62286],[-0.83468,0.05877]],[[247.00492,200.77636],[0.83669,-0.0544],[-0.36862,1.24543]],[[245.93684,204.53877],[0.33118,-1.27247],[1.10179,-0.15467]],[[249.09091,203.56875],[-0.97965,0.49477],[0,0]]],&quot;closed&quot;:true}]}" fill="#ffffff" stroke="none" stroke-width="0.5"/><path d="M243.44868,204.6531c-1.05954,-0.08652 -2.16882,-0.33631 -3.1383,-0.70684c0.23027,-0.34885 0.22462,-0.76677 0.22462,-0.76677l-0.03861,-0.71582c0.13323,-0.54716 0.26326,-1.14597 0.3547,-1.72132c1.14193,0.11774 2.3756,0.14908 3.55299,0.12367c-0.33252,1.13756 -0.66645,2.35491 -0.95094,3.52327z" data-paper-data="{&quot;noHover&quot;:false,&quot;origItem&quot;:[&quot;Path&quot;,{&quot;applyMatrix&quot;:true,&quot;segments&quot;:[[[243.42603,204.34727],[0,0],[0.28449,-1.16836]],[[244.36683,200.89935],[-0.33252,1.13756],[-1.17739,0.0254]],[[240.88166,200.78191],[1.14193,0.11774],[-0.09144,0.57535]],[[240.54601,202.46984],[0.13323,-0.54716],[0,0]],[240.58333,203.16667],[[240.35307,203.92021],[0.23027,-0.34885],[0.96948,0.37054]],[[243.42438,204.6094],[-1.05954,-0.08652],[0,0]]],&quot;closed&quot;:true}]}" fill="#ffffff" stroke="none" stroke-width="0.5"/><path d="M245.13871,198.43311c-1.33613,0.04864 -2.74247,0.02936 -4.02338,-0.11138c0.05473,-0.77374 0.08362,-1.59042 0.08998,-2.33855c1.46389,0.14587 3.02441,0.27483 4.49133,0.40281c-0.17544,0.67384 -0.36742,1.3853 -0.55793,2.04711z" data-paper-data="{&quot;noHover&quot;:false,&quot;origItem&quot;:[&quot;Path&quot;,{&quot;applyMatrix&quot;:true,&quot;segments&quot;:[[[245.64965,196.40308],[-0.17544,0.67384],[-1.46692,-0.12799]],[[241.2489,196.00767],[1.46389,0.14587],[-0.00635,0.74813]],[[241.16037,198.30004],[0.05473,-0.77374],[1.28091,0.14075]],[[245.09775,198.40443],[-1.33613,0.04864],[0.19051,-0.66181]]],&quot;closed&quot;:true}]}" fill="#ffffff" stroke="none" stroke-width="0.5"/><path d="M238.1264,202.73782c-0.9375,-0.69393 -1.77881,-1.64194 -2.30761,-2.68102c0.86739,0.0361 1.79336,0.17656 2.64412,0.32257c-0.08224,0.49989 -0.17682,1.03969 -0.29712,1.50566z" data-paper-data="{&quot;noHover&quot;:false,&quot;origItem&quot;:[&quot;Path&quot;,{&quot;applyMatrix&quot;:true,&quot;segments&quot;:[[[238.12066,201.8635],[0,0],[0.12029,-0.46597]],[[238.42322,200.40979],[-0.08224,0.49989],[-0.85076,-0.14601]],[[235.85389,200.0924],[0.86739,0.0361],[0.5288,1.03908]],[[238.09677,202.69754],[-0.9375,-0.69393],[0,0]]],&quot;closed&quot;:true}]}" fill="#ffffff" stroke="none" stroke-width="0.5"/><path d="M235.19151,197.62492l-0.01615,-0.06148c-0.11111,-0.44444 -0.22777,-0.92991 -0.34565,-1.37261c-0.12108,-0.4547 -0.90895,-1.63082 -0.56123,-1.3138c1.03181,0.94072 3.13751,0.6867 4.53642,0.83905c-0.00689,0.06424 -0.00635,0.10527 -0.00635,0.10527c0.00339,0.67423 -0.02088,1.4233 -0.06442,2.13925c-1.10691,-0.17924 -2.28793,-0.33415 -3.43561,-0.34138c0,0 -0.04139,-0.00145 -0.10701,0.0057z" data-paper-data="{&quot;noHover&quot;:false,&quot;origItem&quot;:[&quot;Path&quot;,{&quot;applyMatrix&quot;:true,&quot;segments&quot;:[[[235.33333,197.58333],[0,0],[1.14768,0.00723]],[[238.69315,197.93195],[-1.10691,-0.17924],[0.04353,-0.71595]],[[238.75,195.83333],[0.00339,0.67423],[0,0]],[[238.75689,195.73008],[-0.00689,0.06424],[-1.39891,-0.15235]],[[234.30979,194.9052],[1.03181,0.94072],[-0.34772,-0.31702]],[[234.87934,196.19683],[-0.12108,-0.4547],[0.11788,0.4427]],[[235.21268,197.53016],[-0.11111,-0.44444],[0,0]],[[235.22776,197.59048],[0,0],[0.06562,-0.00714]]],&quot;closed&quot;:true}]}" fill="#ffffff" stroke="none" stroke-width="0.5"/></g></g></svg>